<svg width="421" height="817" viewBox="0 0 421 817" fill="none" xmlns="http://www.w3.org/2000/svg">
<path d="M138.188 39L143.018 9.90909H153.188C155.215 9.90909 156.83 10.2595 158.032 10.9602C159.235 11.6515 160.059 12.5843 160.504 13.7585C160.949 14.9233 161.048 16.2159 160.802 17.6364C160.594 18.8864 160.201 19.9186 159.623 20.733C159.055 21.5473 158.373 22.1913 157.578 22.6648C156.792 23.1383 155.973 23.4886 155.12 23.7159L155.063 24C155.935 24.0568 156.773 24.3693 157.578 24.9375C158.383 25.5057 159.003 26.3201 159.438 27.3807C159.874 28.4413 159.969 29.7386 159.723 31.2727C159.476 32.7311 158.922 34.0426 158.061 35.2074C157.199 36.3722 155.996 37.2955 154.453 37.9773C152.909 38.6591 150.991 39 148.7 39H138.188ZM142.223 35.875H149.211C151.512 35.875 153.222 35.4299 154.339 34.5398C155.466 33.6402 156.143 32.5511 156.37 31.2727C156.522 30.2879 156.413 29.3788 156.044 28.5455C155.684 27.7027 155.082 27.0303 154.24 26.5284C153.406 26.017 152.355 25.7614 151.086 25.7614H143.927L142.223 35.875ZM144.438 22.6932H150.973C152.033 22.6932 153.027 22.4848 153.955 22.0682C154.884 21.6515 155.66 21.0644 156.285 20.3068C156.91 19.5492 157.298 18.6591 157.45 17.6364C157.677 16.358 157.421 15.2737 156.683 14.3835C155.944 13.4839 154.609 13.0341 152.677 13.0341H146.029L144.438 22.6932ZM165.397 39H161.704L177.215 9.90909H180.852L186.704 39H183.011L178.409 14.5114H178.181L165.397 39ZM168.636 27.6364H183.522L183.011 30.7614H168.125L168.636 27.6364ZM210.724 17.4091C210.724 15.8466 210.208 14.6629 209.176 13.858C208.143 13.0436 206.747 12.6364 204.985 12.6364C203.697 12.6364 202.537 12.8447 201.505 13.2614C200.473 13.678 199.63 14.2509 198.977 14.9801C198.323 15.7093 197.921 16.5379 197.769 17.4659C197.646 18.2424 197.727 18.91 198.011 19.4688C198.295 20.018 198.697 20.4773 199.218 20.8466C199.749 21.2064 200.317 21.5047 200.923 21.7415C201.529 21.9687 202.088 22.1534 202.599 22.2955L205.44 23.0909C206.15 23.2898 206.941 23.5644 207.812 23.9148C208.683 24.2652 209.498 24.7434 210.255 25.3494C211.013 25.946 211.59 26.7131 211.988 27.6506C212.395 28.5881 212.485 29.7386 212.258 31.1023C211.993 32.6742 211.344 34.0947 210.312 35.3636C209.289 36.6326 207.935 37.6411 206.25 38.3892C204.573 39.1373 202.618 39.5114 200.383 39.5114C198.3 39.5114 196.548 39.1752 195.127 38.5028C193.716 37.8305 192.675 36.893 192.002 35.6903C191.339 34.4877 191.084 33.0909 191.235 31.5H194.872C194.777 32.5985 194.995 33.5076 195.525 34.2273C196.055 34.9375 196.794 35.4678 197.741 35.8182C198.688 36.1591 199.739 36.3295 200.894 36.3295C202.239 36.3295 203.48 36.1117 204.616 35.6761C205.762 35.2311 206.709 34.6155 207.457 33.8295C208.214 33.0341 208.678 32.1061 208.849 31.0455C209.019 30.0795 208.887 29.2936 208.451 28.6875C208.016 28.0814 207.386 27.589 206.562 27.2102C205.738 26.8314 204.834 26.5 203.849 26.2159L200.44 25.1932C198.281 24.5398 196.638 23.607 195.511 22.3949C194.393 21.1828 193.991 19.5966 194.303 17.6364C194.588 16.0076 195.274 14.5871 196.363 13.375C197.452 12.1534 198.802 11.2064 200.411 10.5341C202.021 9.85227 203.754 9.51136 205.61 9.51136C207.485 9.51136 209.09 9.85227 210.426 10.5341C211.761 11.2064 212.755 12.1392 213.409 13.3324C214.062 14.5161 214.303 15.875 214.133 17.4091H210.724ZM216.743 39L221.573 9.90909H239.129L238.618 13.0341H224.584L222.936 22.8636H236.061L235.55 25.9886H222.425L220.777 35.875H235.039L234.527 39H216.743ZM278.604 19H275.138C275.1 17.9867 274.892 17.0966 274.513 16.3295C274.134 15.5625 273.623 14.9186 272.979 14.3977C272.344 13.8674 271.615 13.4697 270.791 13.2045C269.968 12.9394 269.087 12.8068 268.149 12.8068C266.35 12.8068 264.646 13.2661 263.036 14.1847C261.426 15.0937 260.048 16.4337 258.902 18.2045C257.756 19.9659 256.975 22.125 256.558 24.6818C256.142 27.1629 256.203 29.2509 256.743 30.946C257.283 32.6411 258.178 33.9242 259.428 34.7955C260.678 35.6667 262.165 36.1023 263.888 36.1023C264.882 36.1023 265.858 35.9697 266.814 35.7045C267.78 35.4394 268.68 35.0464 269.513 34.5256C270.356 33.9953 271.104 33.3466 271.757 32.5795C272.42 31.803 272.941 30.9129 273.32 29.9091H276.843C276.322 31.3958 275.616 32.7263 274.726 33.9006C273.845 35.0748 272.827 36.0739 271.672 36.8977C270.517 37.7121 269.272 38.3324 267.936 38.7585C266.601 39.1847 265.214 39.3977 263.774 39.3977C261.255 39.3977 259.111 38.7822 257.34 37.5511C255.578 36.3106 254.319 34.5587 253.561 32.2955C252.813 30.0227 252.695 27.3333 253.206 24.2273C253.718 21.197 254.698 18.5833 256.147 16.3864C257.595 14.1799 259.371 12.4848 261.473 11.3011C263.576 10.108 265.858 9.51136 268.32 9.51136C269.797 9.51136 271.156 9.72443 272.397 10.1506C273.637 10.5767 274.717 11.2017 275.635 12.0256C276.554 12.84 277.269 13.8343 277.78 15.0085C278.301 16.1733 278.576 17.5038 278.604 19ZM282.194 39H278.501L294.012 9.90909H297.649L303.501 39H299.808L295.205 14.5114H294.978L282.194 39ZM285.433 27.6364H300.319L299.808 30.7614H284.921L285.433 27.6364ZM312.862 9.90909H317.066L322.975 34.0568H323.316L337.18 9.90909H341.384L336.555 39H333.259L336.953 16.8977H336.669L323.884 39H320.703L315.305 16.8977H315.021L311.328 39H308.032L312.862 9.90909ZM343.618 39L348.448 9.90909H358.277C360.55 9.90909 362.344 10.3163 363.661 11.1307C364.986 11.9451 365.881 13.0483 366.345 14.4403C366.819 15.8324 366.914 17.3902 366.629 19.1136C366.345 20.8182 365.735 22.3712 364.797 23.7727C363.869 25.1742 362.61 26.2917 361.019 27.125C359.437 27.9583 357.52 28.375 355.266 28.375H348.22L348.732 25.25H355.664C357.217 25.25 358.514 24.9801 359.556 24.4403C360.597 23.9006 361.412 23.1667 361.999 22.2386C362.586 21.3106 362.974 20.2689 363.164 19.1136C363.353 17.9394 363.306 16.8977 363.022 15.9886C362.747 15.0701 362.174 14.3504 361.303 13.8295C360.441 13.2992 359.224 13.0341 357.652 13.0341H351.459L347.141 39H343.618Z" fill="white"/>
<path d="M59.5205 693.934C59.5205 693.934 51.2856 681.402 49.8535 677.822C48.4213 674.242 45.9151 669.587 46.2731 665.649C46.6311 661.71 50.5695 660.994 49.8535 657.414C49.1374 653.834 40.1865 650.611 38.7543 647.389C37.3222 644.167 38.7543 637.722 38.7543 631.277C38.7543 624.833 35.532 613.017 34.0998 608.721C32.6677 604.424 31.5936 595.115 31.5936 590.461C31.5936 585.806 34.0998 574.349 31.5936 569.695C29.0873 565.04 27.2971 562.176 27.2971 556.447C27.2971 550.719 29.0873 551.077 29.8034 550.361C30.5195 549.645 40.5445 547.138 43.0508 544.632C45.557 542.126 47.7052 536.755 48.0633 536.039C48.4213 535.323 50.9276 531.027 49.8535 528.162C48.7794 525.298 46.2731 524.224 46.2731 522.076C46.2731 519.928 45.557 513.125 46.2731 510.619C46.9892 508.112 46.9892 507.038 46.2731 504.532C45.557 502.026 43.4088 501.31 40.9025 497.729C38.3963 494.149 35.532 490.21 34.0998 487.704C32.6677 485.198 30.1614 482.334 29.8034 478.037C29.4453 473.741 32.6677 468.012 34.0998 466.222C35.532 464.432 40.9025 459.061 40.9025 459.061C40.9025 459.061 49.1374 450.973 51.2856 448.678C53.4338 446.383 59.1624 441.875 59.5205 439.011C59.8785 436.147 49.8535 427.554 49.8535 424.332C49.8535 421.109 59.5205 425.048 64.533 424.332C69.5455 423.616 72.0518 418.245 74.2 417.171C76.3482 416.097 79.9286 419.319 82.7929 417.171C85.6572 415.023 86.7313 407.504 91.0278 406.072C95.3242 404.64 106.423 412.158 110.362 412.158C114.3 412.158 122.535 402.491 122.535 402.491C122.535 402.491 130.054 393.54 131.844 390.318C133.634 387.096 134.708 381.725 137.215 379.935C139.721 378.145 141.869 380.651 144.733 376.713C147.598 372.774 151.536 371.342 151.536 371.342C151.536 371.342 157.265 369.552 158.697 366.33C160.129 363.107 159.413 361.675 160.487 359.885C161.561 358.095 168.364 355.947 169.796 354.514C171.228 353.082 172.302 347.354 173.734 346.28C175.167 345.205 181.611 343.415 183.759 341.983C185.908 340.551 186.982 338.403 187.698 335.896C188.414 333.39 188.414 328.02 189.13 324.797C189.846 321.575 193.068 317.278 194.142 315.13C195.217 312.982 198.081 302.957 198.081 300.093C198.081 297.228 195.933 290.784 194.142 286.487C192.352 282.191 186.266 272.524 186.266 272.524C186.266 272.524 177.673 259.993 176.241 256.77C174.808 253.548 174.45 252.116 174.808 249.967C175.167 247.819 177.673 247.103 177.673 245.671C177.673 244.239 170.154 238.51 169.796 235.646C169.438 232.782 170.87 224.905 171.586 222.041C172.302 219.176 175.167 209.151 176.241 205.929C177.315 202.707 180.537 196.62 182.327 193.04C184.117 189.459 188.414 178.36 190.562 176.57C192.71 174.78 195.933 162.964 196.649 158.668C197.365 154.372 201.661 141.482 203.451 136.828C205.242 132.173 216.341 132.889 218.847 128.951C221.353 125.012 220.279 118.926 221.353 115.345C222.427 111.765 226.366 109.617 228.872 107.469C231.378 105.32 244.626 96.7275 244.626 96.7275" stroke="#FC5200" stroke-width="9" stroke-linecap="round"/>
<path d="M201.898 77.5925C200.648 77.5925 199.561 77.3439 198.638 76.8467C197.714 76.3496 197.022 75.6678 196.56 74.8013C196.098 73.9348 195.932 72.9476 196.059 71.8396H198.616C198.552 72.8198 198.868 73.633 199.564 74.2793C200.268 74.9256 201.173 75.2487 202.281 75.2487C203.176 75.2487 204.007 75.0392 204.774 74.6202C205.548 74.2011 206.194 73.6259 206.713 72.8943C207.238 72.1628 207.579 71.3283 207.736 70.3908C207.892 69.4391 207.824 68.5868 207.533 67.834C207.242 67.0811 206.77 66.4881 206.116 66.0548C205.463 65.6216 204.667 65.405 203.73 65.405C203.069 65.405 202.37 65.5115 201.631 65.7246C200.9 65.9306 200.278 66.1933 199.767 66.5129L197.338 66.2146L200.449 55.476H211.784L211.4 57.8198H202.281L200.449 64.2544H200.576C201.088 63.8922 201.695 63.5975 202.398 63.3702C203.108 63.1358 203.836 63.0186 204.582 63.0186C205.917 63.0186 207.054 63.3382 207.991 63.9774C208.936 64.6095 209.614 65.4796 210.026 66.5875C210.445 67.6884 210.534 68.9419 210.292 70.3482C210.065 71.7402 209.55 72.9831 208.748 74.0769C207.952 75.1635 206.958 76.0229 205.765 76.655C204.579 77.28 203.29 77.5925 201.898 77.5925ZM220.831 77.5925C219.411 77.5925 218.179 77.3546 217.135 76.8787C216.098 76.3958 215.323 75.7246 214.812 74.8652C214.301 73.9987 214.12 72.9902 214.269 71.8396H216.911C216.847 72.5357 216.968 73.1394 217.273 73.6507C217.586 74.1621 218.047 74.5563 218.658 74.8333C219.276 75.1102 220.015 75.2487 220.874 75.2487C221.79 75.2487 222.649 75.0889 223.452 74.7693C224.262 74.4497 224.94 73.9881 225.487 73.3844C226.034 72.7736 226.371 72.0456 226.499 71.2004C226.613 70.4405 226.527 69.7658 226.243 69.1763C225.959 68.5868 225.469 68.1252 224.773 67.7913C224.084 67.4504 223.182 67.28 222.067 67.28H220.277L220.661 64.9362H222.323C223.189 64.9362 223.985 64.7729 224.709 64.4462C225.434 64.1195 226.037 63.6614 226.52 63.0719C227.003 62.4753 227.309 61.7757 227.436 60.9732C227.557 60.27 227.507 59.6592 227.287 59.1408C227.074 58.6152 226.705 58.2068 226.179 57.9156C225.661 57.6244 225 57.4788 224.198 57.4788C223.431 57.4788 222.678 57.6173 221.939 57.8943C221.208 58.1642 220.583 58.5584 220.064 59.0769C219.546 59.5882 219.219 60.2061 219.084 60.9306H216.527C216.747 59.7942 217.241 58.7963 218.008 57.9369C218.775 57.0705 219.709 56.3958 220.81 55.9128C221.918 55.4227 223.09 55.1777 224.326 55.1777C225.696 55.1777 226.826 55.4618 227.713 56.03C228.608 56.5911 229.247 57.3297 229.631 58.2459C230.015 59.155 230.121 60.1351 229.951 61.1862C229.759 62.3865 229.265 63.4021 228.47 64.2331C227.674 65.0641 226.705 65.6536 225.561 66.0016V66.1294C226.904 66.3638 227.877 66.9817 228.48 67.9831C229.091 68.9774 229.283 70.1635 229.056 71.5413C228.857 72.7771 228.377 73.8496 227.617 74.7587C226.858 75.6607 225.895 76.3602 224.73 76.8574C223.566 77.3475 222.266 77.5925 220.831 77.5925ZM239.848 77.5925C238.931 77.5854 238.044 77.4114 237.184 77.0705C236.325 76.7296 235.583 76.1649 234.958 75.3766C234.333 74.5811 233.903 73.5051 233.669 72.1486C233.441 70.7921 233.498 69.0982 233.839 67.0669C234.159 65.1564 234.617 63.4661 235.213 61.9959C235.817 60.5186 236.538 59.2757 237.376 58.2672C238.214 57.2516 239.155 56.4845 240.199 55.9661C241.25 55.4405 242.383 55.1777 243.598 55.1777C244.805 55.1777 245.853 55.4227 246.74 55.9128C247.635 56.3958 248.324 57.0705 248.807 57.9369C249.297 58.7963 249.535 59.7942 249.521 60.9306H247.007C246.971 59.9362 246.669 59.1195 246.101 58.4803C245.54 57.8411 244.677 57.5215 243.512 57.5215C241.822 57.5215 240.345 58.2423 239.081 59.6841C237.816 61.1259 236.95 63.2317 236.481 66.0016L236.652 65.8311C237.149 65.2345 237.699 64.7267 238.303 64.3077C238.907 63.8886 239.549 63.569 240.231 63.3489C240.92 63.1287 241.63 63.0186 242.362 63.0186C243.64 63.0186 244.759 63.3382 245.718 63.9774C246.676 64.6166 247.383 65.4938 247.838 66.6088C248.292 67.7239 248.399 68.9987 248.157 70.4334C247.93 71.7544 247.433 72.9618 246.666 74.0556C245.906 75.1422 244.94 76.0087 243.768 76.655C242.603 77.2942 241.296 77.6067 239.848 77.5925ZM239.933 75.2487C240.842 75.2487 241.701 75.0179 242.511 74.5563C243.321 74.0946 244.006 73.4732 244.567 72.6919C245.128 71.9107 245.487 71.0442 245.643 70.0925C245.785 69.226 245.721 68.4341 245.451 67.7168C245.181 66.9994 244.745 66.4277 244.141 66.0016C243.537 65.5754 242.802 65.3624 241.936 65.3624C241.247 65.3624 240.576 65.5009 239.922 65.7779C239.276 66.0548 238.686 66.4348 238.154 66.9178C237.628 67.3936 237.188 67.9369 236.833 68.5477C236.478 69.1585 236.247 69.8013 236.14 70.476C235.998 71.3141 236.062 72.0953 236.332 72.8198C236.602 73.5442 237.046 74.1301 237.664 74.5776C238.282 75.025 239.038 75.2487 239.933 75.2487ZM251.452 72.8198L251.793 70.6465L263.895 55.476H265.472L264.918 58.8425H263.852L254.69 70.3056V70.476H267.602L267.219 72.8198H251.452ZM260.955 77.2942L261.807 72.1379L261.977 71.1578L264.577 55.476H267.091L263.469 77.2942H260.955ZM274.45 55.476H277.603L282.035 73.5868H282.291L292.689 55.476H295.842L292.22 77.2942H289.748L292.518 60.7175H292.305L282.717 77.2942H280.331L276.282 60.7175H276.069L273.299 77.2942H270.828L274.45 55.476Z" fill="white"/>
<path d="M1.70455 744.516L6.53409 715.425H10.0568L5.73864 741.391H19.2614L18.75 744.516H1.70455ZM48.125 715.425H51.6477L48.4659 734.687C48.1345 736.675 47.3722 738.451 46.179 740.014C44.9858 741.567 43.4659 742.793 41.6193 743.692C39.7727 744.583 37.7083 745.028 35.4261 745.028C33.1439 745.028 31.2311 744.583 29.6875 743.692C28.1439 742.793 27.036 741.567 26.3636 740.014C25.6913 738.451 25.5208 736.675 25.8523 734.687L29.0341 715.425H32.5568L29.4034 734.403C29.1761 735.823 29.285 737.087 29.7301 738.195C30.1752 739.294 30.9233 740.16 31.9744 740.795C33.035 741.42 34.375 741.732 35.9943 741.732C37.6136 741.732 39.0578 741.42 40.3267 740.795C41.5956 740.16 42.6278 739.294 43.4233 738.195C44.2282 737.087 44.7443 735.823 44.9716 734.403L48.125 715.425ZM53.853 744.516L58.6825 715.425H62.2053L59.8189 729.857H60.1598L75.6143 715.425H80.2166L65.8416 728.55L75.3871 744.516H71.1257L63.2848 730.994L58.9666 735.085L57.3757 744.516H53.853ZM79.9467 744.516L84.7763 715.425H88.299L83.9808 741.391H97.5036L96.9922 744.516H79.9467ZM105.476 744.516H101.783L117.294 715.425H120.93L126.783 744.516H123.089L118.487 720.028H118.26L105.476 744.516ZM108.714 733.153H123.601L123.089 736.278H108.203L108.714 733.153Z" fill="white"/>
<path d="M16.6432 781.76L16.9841 779.843L25.4642 771.959C26.4585 771.036 27.2859 770.23 27.9464 769.541C28.6141 768.852 29.1325 768.206 29.5018 767.602C29.8783 766.998 30.1233 766.363 30.2369 765.695C30.3648 764.928 30.2973 764.264 30.0345 763.703C29.7717 763.142 29.3562 762.709 28.7881 762.403C28.2199 762.098 27.5381 761.945 26.7426 761.945C25.9045 761.945 25.141 762.119 24.4521 762.467C23.7632 762.808 23.1915 763.291 22.7369 763.916C22.2824 764.534 21.9841 765.255 21.842 766.079H19.3278C19.5409 764.8 20.0274 763.678 20.7874 762.712C21.5544 761.746 22.4955 760.993 23.6105 760.454C24.7327 759.914 25.933 759.644 27.2114 759.644C28.4898 759.644 29.5729 759.914 30.4606 760.454C31.3484 760.993 31.9912 761.721 32.3889 762.638C32.7866 763.554 32.8932 764.573 32.7085 765.695C32.5665 766.505 32.2859 767.29 31.8669 768.05C31.4479 768.81 30.8051 769.658 29.9386 770.596C29.0793 771.526 27.9145 772.662 26.4443 774.005L20.6915 779.246L20.6489 779.417H30.7909L30.4074 781.76H16.6432ZM41.9237 782.059C40.4322 782.059 39.1574 781.785 38.0991 781.238C37.048 780.685 36.2774 779.935 35.7874 778.991C35.3044 778.046 35.1624 776.981 35.3612 775.795C35.5104 774.9 35.83 774.072 36.32 773.312C36.8101 772.552 37.4067 771.917 38.1098 771.405C38.82 770.894 39.58 770.567 40.3896 770.425V770.34C39.3882 770.063 38.6673 769.449 38.227 768.497C37.7937 767.538 37.6908 766.462 37.918 765.269C38.1311 764.168 38.5821 763.195 39.271 762.35C39.9599 761.505 40.8229 760.844 41.8598 760.368C42.8967 759.885 44.0402 759.644 45.2902 759.644C46.5828 759.644 47.6979 759.907 48.6354 760.432C49.5729 760.951 50.2618 761.661 50.7021 762.563C51.1496 763.458 51.2774 764.474 51.0856 765.61C50.8797 766.824 50.3719 767.854 49.5622 768.699C48.7526 769.537 47.8257 770.084 46.7817 770.34V770.425C47.5487 770.582 48.2128 770.933 48.7739 771.48C49.342 772.027 49.754 772.705 50.0097 773.515C50.2653 774.317 50.3115 775.191 50.1481 776.135C49.9564 777.293 49.477 778.319 48.7099 779.214C47.9429 780.102 46.9734 780.798 45.8016 781.302C44.6368 781.807 43.3442 782.059 41.9237 782.059ZM42.0089 779.715C43.0388 779.715 43.9514 779.548 44.7469 779.214C45.5423 778.873 46.1886 778.401 46.6858 777.797C47.1901 777.187 47.5061 776.476 47.6339 775.667C47.7618 774.857 47.673 774.15 47.3676 773.547C47.0622 772.936 46.5864 772.464 45.9401 772.13C45.2937 771.789 44.5231 771.618 43.6283 771.618C42.6766 771.618 41.7959 771.807 40.9862 772.183C40.1766 772.56 39.5018 773.078 38.9621 773.738C38.4294 774.399 38.0956 775.155 37.9606 776.008C37.8399 776.768 37.9216 777.428 38.2057 777.989C38.4898 778.543 38.955 778.969 39.6013 779.268C40.2476 779.566 41.0501 779.715 42.0089 779.715ZM43.7135 769.36C44.5445 769.36 45.3008 769.193 45.9827 768.859C46.6716 768.525 47.2398 768.064 47.6872 767.474C48.1418 766.885 48.4365 766.207 48.5714 765.439C48.7064 764.701 48.6531 764.072 48.4116 763.554C48.1773 763.028 47.7902 762.631 47.2504 762.361C46.7106 762.084 46.043 761.945 45.2476 761.945C44.3882 761.945 43.6141 762.105 42.9251 762.425C42.2433 762.744 41.6822 763.192 41.2419 763.767C40.8016 764.342 40.5175 765.013 40.3896 765.78C40.2689 766.526 40.3328 767.169 40.5814 767.709C40.83 768.241 41.2241 768.65 41.7639 768.934C42.3108 769.218 42.9606 769.36 43.7135 769.36ZM53.5492 777.286L53.8902 775.113L65.9924 759.942H67.5691L67.0152 763.309H65.9498L56.7879 774.772V774.942H69.6998L69.3163 777.286H53.5492ZM63.0521 781.76L63.9044 776.604L64.0748 775.624L66.6743 759.942H69.1885L65.5663 781.76H63.0521ZM79.6155 782.059C78.0104 782.059 76.7178 781.622 75.7376 780.748C74.7575 779.868 74.1112 778.593 73.7987 776.924C73.4862 775.248 73.5217 773.224 73.9053 770.851C74.2888 768.493 74.9173 766.48 75.7909 764.811C76.6645 763.135 77.7405 761.856 79.0189 760.976C80.2973 760.088 81.732 759.644 83.3229 759.644C84.9138 759.644 86.2028 760.088 87.1901 760.976C88.1844 761.863 88.8449 763.142 89.1716 764.811C89.5054 766.48 89.4734 768.493 89.0757 770.851C88.678 773.224 88.0423 775.244 87.1687 776.913C86.2952 778.582 85.2192 779.857 83.9408 780.738C82.6624 781.618 81.2206 782.059 79.6155 782.059ZM79.999 779.715C81.597 779.715 82.9642 778.948 84.1006 777.414C85.244 775.873 86.0501 773.685 86.5189 770.851C86.8314 768.962 86.8953 767.354 86.7106 766.025C86.526 764.697 86.1141 763.685 85.4749 762.989C84.8356 762.293 83.9905 761.945 82.9393 761.945C81.3626 761.945 80.0061 762.723 78.8697 764.278C77.7334 765.827 76.9308 768.018 76.4621 770.851C76.1496 772.741 76.0821 774.346 76.2597 775.667C76.4372 776.988 76.842 777.993 77.4741 778.682C78.1062 779.371 78.9479 779.715 79.999 779.715ZM95.2973 759.942H98.4507L102.883 778.053H103.138L113.536 759.942H116.689L113.067 781.76H110.596L113.365 765.184H113.152L103.564 781.76H101.178L97.1297 765.184H96.9166L94.1467 781.76H91.6751L95.2973 759.942Z" fill="white"/>
</svg>
