<svg width="844" height="1654" viewBox="0 0 844 1654" fill="none" xmlns="http://www.w3.org/2000/svg">
<path d="M586.491 911.011C586.491 909.058 585.846 907.579 584.556 906.572C583.266 905.554 581.52 905.045 579.318 905.045C577.708 905.045 576.258 905.306 574.968 905.827C573.678 906.348 572.624 907.064 571.808 907.975C570.991 908.887 570.488 909.922 570.298 911.082C570.144 912.053 570.245 912.888 570.6 913.586C570.955 914.272 571.458 914.847 572.109 915.308C572.772 915.758 573.482 916.131 574.24 916.427C574.998 916.711 575.696 916.942 576.335 917.119L579.886 918.114C580.774 918.362 581.763 918.705 582.852 919.143C583.941 919.581 584.959 920.179 585.906 920.937C586.853 921.683 587.575 922.641 588.072 923.813C588.581 924.985 588.693 926.423 588.409 928.128C588.078 930.093 587.267 931.868 585.977 933.455C584.698 935.041 583.005 936.301 580.898 937.237C578.803 938.172 576.359 938.639 573.565 938.639C570.961 938.639 568.771 938.219 566.996 937.379C565.232 936.538 563.93 935.366 563.089 933.863C562.261 932.36 561.941 930.614 562.131 928.625H566.676C566.558 929.998 566.83 931.134 567.493 932.034C568.156 932.922 569.079 933.585 570.263 934.023C571.446 934.449 572.76 934.662 574.205 934.662C575.885 934.662 577.436 934.39 578.857 933.845C580.289 933.289 581.473 932.519 582.408 931.537C583.355 930.543 583.935 929.383 584.148 928.057C584.361 926.849 584.195 925.867 583.651 925.109C583.106 924.352 582.319 923.736 581.289 923.263C580.259 922.789 579.129 922.375 577.898 922.02L573.636 920.741C570.938 919.925 568.884 918.759 567.475 917.244C566.078 915.728 565.575 913.746 565.966 911.295C566.321 909.259 567.179 907.484 568.54 905.969C569.902 904.442 571.589 903.258 573.601 902.418C575.613 901.565 577.779 901.139 580.099 901.139C582.443 901.139 584.45 901.565 586.119 902.418C587.788 903.258 589.031 904.424 589.847 905.915C590.664 907.395 590.966 909.094 590.753 911.011H586.491ZM594.015 938L600.052 901.636H612.339C615.18 901.636 617.423 902.145 619.069 903.163C620.726 904.181 621.845 905.56 622.425 907.3C623.016 909.04 623.135 910.988 622.78 913.142C622.425 915.273 621.661 917.214 620.489 918.966C619.329 920.718 617.755 922.115 615.766 923.156C613.789 924.198 611.392 924.719 608.575 924.719H599.768L600.407 920.812H609.072C611.014 920.812 612.635 920.475 613.937 919.8C615.239 919.126 616.257 918.208 616.991 917.048C617.725 915.888 618.211 914.586 618.447 913.142C618.684 911.674 618.625 910.372 618.27 909.236C617.926 908.088 617.21 907.188 616.121 906.537C615.044 905.874 613.523 905.543 611.558 905.543H603.817L598.419 938H594.015ZM623.485 938H618.869L638.258 901.636H642.804L650.119 938H645.502L639.75 907.389H639.466L623.485 938ZM627.534 923.795H646.142L645.502 927.702H626.895L627.534 923.795ZM666.223 901.636L660.186 938H655.783L661.82 901.636H666.223ZM703.888 901.636L697.851 938H693.589L678.532 909.449H678.177L673.419 938H669.015L675.052 901.636H679.314L694.442 930.259H694.797L699.555 901.636H703.888Z" fill="white"/>
<path d="M325.811 1397.83C314.432 1387.83 325.811 1380.97 316.661 1362.36C307.51 1343.76 302.709 1304.22 325.811 1286.78C348.913 1269.33 348.052 1237.94 366.655 1229.8C385.257 1221.66 404.441 1204.8 404.441 1196.66C404.441 1188.52 382.932 1205.38 378.281 1196.66C373.631 1187.93 354.447 1158.28 345.146 1147.81C335.844 1137.35 341.459 1121.94 357.354 1107.11C347.173 1090.33 357.354 1068.16 378.281 1062.93C399.209 1057.69 410.836 1037.34 404.441 1016.41C398.046 995.478 374.793 1010.01 366.655 989.664C358.516 969.314 363.167 947.219 357.354 924.543C351.54 901.867 316.661 904.193 316.661 886.75C316.661 869.307 336.426 872.214 336.426 872.214C336.426 872.214 390.489 890.238 404.441 877.447C418.393 864.655 427.113 811.163 421.299 793.139C415.486 775.114 404.441 797.209 404.441 778.021C404.441 758.834 436.414 757.09 441.065 741.972C445.715 726.855 441.065 648.361 441.065 629.755C441.065 611.149 426.531 611.149 425.95 598.357C425.369 585.566 473.619 544.284 485.245 541.958C496.872 539.632 515.474 535.562 524.776 521.608C534.077 507.653 549.191 494.862 548.61 479.163C548.029 463.464 488.152 475.093 485.245 459.976C482.339 444.858 497.453 405.902 490.477 397.762C483.501 389.622 419.555 391.948 404.441 393.111C389.326 394.273 378.281 423.927 352.122 425.671C325.962 427.415 299.221 402.995 276.549 405.902C253.877 408.809 262.597 423.345 243.413 416.949C224.23 410.554 232.95 397.762 232.95 397.762C232.95 397.762 255.04 385.552 255.04 372.76C255.04 359.969 248.064 349.503 232.95 348.921C217.835 348.34 194.582 359.387 179.467 362.294C164.353 365.202 137.898 393.111 137.898 393.111M325.811 1397.83C270.93 1374.67 273.491 1476.91 245.007 1440.86C216.522 1404.81 79.3281 1463.53 67.7018 1417.6C56.0755 1371.67 96.1866 1268.17 105.488 1230.38C114.79 1192.59 105.488 1137.35 87.4669 1107.11C69.4458 1076.88 57.8195 1155.37 51.4247 1123.39C45.0298 1091.42 5.49981 1079.79 2.01185 1047.81C-1.47611 1015.83 3.17451 929.776 29.9156 924.543C56.6566 919.31 120.021 750.694 120.021 750.694C120.021 750.694 178.735 576.844 156.645 535.562C142.059 508.305 138.878 443.023 137.898 393.111M325.811 1397.83C325.811 1397.83 405.453 1400.16 449.052 1430.97C492.652 1461.79 494.977 1469.35 507.766 1528.07C520.555 1586.8 589.152 1645.52 619.963 1651.34C650.773 1657.15 674.026 1636.8 680.421 1621.69C686.815 1606.57 690.884 1576.91 721.695 1572.26C752.505 1567.61 811.8 1540.28 833.31 1518.19L842.029 93.0894C794.942 94.2523 678.677 38.4344 621.125 35.5273C563.574 32.6201 448.471 66.3434 407.778 45.4117C367.085 24.48 356.621 -1.68465 307.79 1.22253C258.958 4.12971 235.705 39.0159 236.868 63.4362C238.031 87.8565 144.437 79.135 120.021 108.207C95.6055 137.279 69.4458 127.976 77.5844 164.025C85.723 200.074 114.789 190.771 120.021 229.146C125.253 267.52 135.136 305.314 136.88 335.548C137.472 345.82 137.394 367.431 137.898 393.111" stroke="white" stroke-width="2" stroke-linecap="round"/>
<path d="M61.1307 969.355L67.1676 932.992H79.4545C82.2955 932.992 84.5386 933.501 86.1839 934.519C87.8411 935.537 88.9598 936.916 89.5398 938.656C90.1316 940.396 90.25 942.343 89.8949 944.498C89.5398 946.628 88.7763 948.569 87.6044 950.321C86.4444 952.073 84.87 953.47 82.8814 954.512C80.9046 955.553 78.5076 956.074 75.6903 956.074H66.8835L67.5227 952.168H76.1875C78.1288 952.168 79.7505 951.831 81.0526 951.156C82.3546 950.481 83.3726 949.564 84.1065 948.404C84.8404 947.244 85.3258 945.942 85.5625 944.498C85.7992 943.03 85.7401 941.728 85.3849 940.591C85.0417 939.443 84.3255 938.543 83.2365 937.892C82.1593 937.23 80.6383 936.898 78.6733 936.898H70.9318L65.5341 969.355H61.1307ZM126.485 951.458C125.846 955.246 124.621 958.519 122.809 961.277C120.998 964.023 118.785 966.142 116.169 967.633C113.553 969.113 110.718 969.853 107.664 969.853C104.515 969.853 101.834 969.083 99.6206 967.544C97.4189 965.994 95.8445 963.804 94.8975 960.975C93.9624 958.134 93.8145 954.772 94.4537 950.89C95.0929 947.102 96.318 943.835 98.1291 941.088C99.9402 938.33 102.16 936.212 104.787 934.732C107.415 933.24 110.268 932.495 113.346 932.495C116.471 932.495 119.128 933.27 121.318 934.821C123.52 936.359 125.088 938.549 126.023 941.39C126.97 944.219 127.124 947.575 126.485 951.458ZM122.295 950.89C122.815 947.788 122.738 945.178 122.064 943.059C121.389 940.94 120.27 939.337 118.708 938.248C117.145 937.158 115.287 936.614 113.133 936.614C110.884 936.614 108.753 937.188 106.741 938.336C104.728 939.473 103.006 941.148 101.574 943.361C100.141 945.563 99.1648 948.262 98.644 951.458C98.1232 954.559 98.2001 957.169 98.8748 959.288C99.5495 961.407 100.668 963.011 102.231 964.1C103.793 965.189 105.652 965.733 107.806 965.733C110.055 965.733 112.186 965.165 114.198 964.029C116.21 962.881 117.933 961.206 119.365 959.004C120.797 956.79 121.774 954.086 122.295 950.89ZM130.906 969.355L136.943 932.992H149.23C152.071 932.992 154.32 933.471 155.977 934.43C157.646 935.389 158.777 936.709 159.368 938.39C159.972 940.07 160.096 941.988 159.741 944.142C159.386 946.273 158.629 948.167 157.469 949.824C156.32 951.481 154.758 952.783 152.781 953.73C150.816 954.677 148.425 955.151 145.608 955.151H135.665L136.375 951.174H146.176C148.117 951.174 149.727 950.89 151.006 950.321C152.284 949.753 153.278 948.942 153.988 947.889C154.699 946.835 155.172 945.587 155.409 944.142C155.646 942.675 155.581 941.402 155.214 940.325C154.858 939.236 154.131 938.395 153.03 937.804C151.941 937.2 150.414 936.898 148.449 936.898H140.707L135.309 969.355H130.906ZM150.721 953.02L156.971 969.355H151.858L145.75 953.02H150.721ZM166.298 936.898L166.937 932.992H194.21L193.57 936.898H182.136L176.738 969.355H172.335L177.732 936.898H166.298ZM224.869 932.992H229.273L225.295 957.069C224.881 959.554 223.928 961.774 222.437 963.727C220.945 965.668 219.045 967.201 216.737 968.326C214.429 969.438 211.848 969.995 208.996 969.995C206.143 969.995 203.752 969.438 201.822 968.326C199.893 967.201 198.508 965.668 197.667 963.727C196.827 961.774 196.614 959.554 197.028 957.069L201.006 932.992H205.409L201.467 956.713C201.183 958.489 201.319 960.069 201.876 961.454C202.432 962.827 203.367 963.91 204.681 964.703C206.007 965.485 207.682 965.875 209.706 965.875C211.73 965.875 213.535 965.485 215.121 964.703C216.707 963.91 217.998 962.827 218.992 961.454C219.998 960.069 220.643 958.489 220.927 956.713L224.869 932.992ZM261.006 944.355C260.829 943.16 260.521 942.089 260.083 941.142C259.657 940.183 259.089 939.372 258.379 938.709C257.668 938.034 256.81 937.52 255.804 937.164C254.81 936.797 253.656 936.614 252.342 936.614C250.187 936.614 248.104 937.17 246.092 938.283C244.091 939.396 242.357 941.035 240.889 943.201C239.433 945.368 238.445 948.025 237.924 951.174C237.403 954.322 237.456 956.98 238.084 959.146C238.723 961.312 239.818 962.952 241.369 964.064C242.931 965.177 244.837 965.733 247.086 965.733C249.169 965.733 251.111 965.289 252.91 964.402C254.709 963.502 256.218 962.235 257.438 960.602C258.657 958.957 259.444 957.021 259.799 954.796L261.077 955.08H250.14L250.85 951.174H264.7L263.989 955.08C263.516 958.087 262.462 960.697 260.829 962.91C259.195 965.124 257.159 966.834 254.721 968.042C252.282 969.249 249.619 969.853 246.731 969.853C243.511 969.853 240.812 969.095 238.634 967.58C236.456 966.065 234.923 963.91 234.036 961.117C233.148 958.323 233.023 955.009 233.663 951.174C234.124 948.297 234.929 945.711 236.077 943.414C237.237 941.106 238.658 939.141 240.339 937.52C242.031 935.898 243.92 934.655 246.003 933.791C248.098 932.927 250.306 932.495 252.626 932.495C254.543 932.495 256.283 932.785 257.846 933.365C259.42 933.933 260.776 934.744 261.912 935.797C263.048 936.839 263.93 938.088 264.558 939.544C265.185 940.988 265.516 942.592 265.552 944.355H261.006ZM269.556 969.355H264.939L284.328 932.992H288.874L296.189 969.355H291.573L285.82 938.745H285.536L269.556 969.355ZM273.604 955.151H292.212L291.573 959.057H272.965L273.604 955.151ZM301.853 969.355L307.89 932.992H312.294L306.896 965.449H323.799L323.16 969.355H301.853Z" fill="white"/>
<path d="M96.5 1079.86C96.5 1079.86 152 1032.86 153 1008.36C154 983.855 212.5 941.355 212.5 924.855C212.5 908.355 237 869.355 224.5 847.855C212 826.355 212.5 781.355 212.5 781.355C212.5 781.355 233 723.855 212.5 677.355C192 630.855 179 598.855 185 568.355C191 537.855 171 526.855 171 508.355C171 489.855 185 464.355 185 430.855C185 397.355 188.5 373.355 179 353.355C169.5 333.355 185 327.855 188.5 310.355C192 292.855 179 289.355 179 271.355C179 253.355 198 197.355 198 197.355" stroke="#FC5200" stroke-width="9" stroke-linecap="round"/>
</svg>
