<svg width="588" height="556" viewBox="0 0 588 556" fill="none" xmlns="http://www.w3.org/2000/svg">
<path d="M152.755 473.008C150.74 478.047 143.182 486.109 142.678 492.155C142.174 498.201 180.971 519.363 180.971 519.363C180.971 519.363 236.899 545.059 245.465 530.952C254.031 516.844 278.72 528.936 289.301 538.006C299.882 547.076 314.997 554.634 326.586 554.633C338.175 554.633 348.252 552.114 354.802 543.044C361.352 533.975 354.802 516.844 359.841 504.248C364.879 491.651 389.065 480.566 403.173 482.582C417.281 484.597 458.597 497.697 458.597 497.697C458.597 497.697 502.936 510.798 517.548 497.697C532.16 484.597 573.477 445.8 562.895 436.731C552.314 427.661 546.268 445.296 536.695 433.204C527.121 421.111 538.71 410.026 536.695 402.468C534.679 394.91 524.099 392.391 522.587 380.298C521.075 368.206 536.695 361.152 536.695 361.152C536.695 361.152 545.764 332.936 536.695 323.363C527.625 313.789 528.129 302.201 522.587 298.673C517.044 295.146 486.813 297.162 495.379 288.092C503.944 279.023 541.33 234.191 555.338 228.133C569.345 222.075 561.384 183.29 564.911 173.213C568.438 163.135 593.127 142.478 585.569 135.927C578.011 129.376 565.415 125.346 555.338 123.835C545.261 122.323 527.122 126.858 522.587 120.308L522.332 119.94C517.899 113.532 513.833 107.654 503.944 104.688C493.867 101.665 475.254 105.495 454.566 91.5877C439.571 86.5806 437.32 78.9927 437.939 61.8601C437.203 57.5832 413.993 52.2277 404.684 52.2868C395.375 52.3459 341.985 8.1228 334.144 2.90873C326.303 -2.30534 288.797 3.91645 287.285 12.482C285.774 21.0476 291.82 52.2868 287.285 61.8601C282.751 71.4334 225.815 91.5877 225.815 91.5877C223.369 118.963 193.064 111.742 190.041 111.238L189.932 111.22C186.548 110.658 165.952 107.239 160.817 91.5877C160.817 91.5877 134.616 79.999 132.601 91.5877C130.585 103.176 152.251 150.539 151.244 157.089C150.236 163.639 104.385 161.624 96.827 162.632C89.2691 163.639 86.2459 145.5 76.6726 143.989C67.0994 142.477 63.0684 149.027 55.0068 152.554C46.9451 156.081 6.63639 151.547 2.10167 162.632C-2.43305 173.716 8.6518 186.313 6.13253 194.879C3.61327 203.444 20.1277 211.301 24.7753 212.01C29.4229 212.719 83.7266 222.591 90.7807 228.133C97.8347 233.676 108.416 246.776 118.997 253.83C129.578 260.884 118.997 265.923 123.028 273.481C127.058 281.038 135.12 285.069 138.647 294.139C142.174 303.208 167.367 345.028 167.871 353.594C168.375 362.16 162.832 405.491 162.328 410.53C161.825 415.569 154.771 467.97 152.755 473.008Z" stroke="white" stroke-width="2" stroke-linecap="round"/>
<path d="M149.228 490.643C158.864 490.09 162.832 492.659 168.375 499.209C173.917 505.759 189.033 514.829 195.079 513.317C201.126 511.805 215.738 527.425 225.311 528.433C234.884 529.44 239.923 515.332 250 513.317C260.077 511.302 274.689 519.363 280.231 520.875C285.774 522.386 304.92 524.402 309.959 528.433C314.998 532.464 333.64 541.533 337.671 532.967C341.702 524.402 326.082 520.875 333.64 513.317C341.198 505.759 337.671 493.163 340.694 489.132C343.717 485.101 348.756 483.086 349.764 480.566C350.771 478.047 346.741 471.497 352.787 466.962C358.833 462.427 383.018 445.8 390.072 441.769C397.126 437.738 392.592 427.157 398.134 424.638C403.677 422.119 432.396 416.576 438.443 417.584C444.489 418.592 451.039 425.646 453.558 428.669C456.078 431.692 457.085 448.319 464.643 450.839C472.201 453.358 477.744 454.366 482.278 450.839C486.813 447.312 507.975 413.049 509.991 406.499C512.006 399.949 510.998 390.376 509.991 383.322C508.983 376.268 509.991 360.144 509.991 351.579C509.991 343.013 524.099 332.432 517.548 325.882C510.998 319.332 478.247 310.262 478.247 301.193C478.247 292.123 486.309 284.566 492.859 280.031C499.41 275.496 503.44 266.427 504.952 261.892C506.464 257.357 514.525 255.846 517.548 246.776C520.572 237.707 515.029 204.956 517.548 194.375C520.068 183.794 537.199 172.709 537.199 172.709C537.199 172.709 553.826 165.655 556.345 158.601C558.865 151.547 560.88 132.904 560.88 132.904" stroke="#FC5200" stroke-width="7" stroke-linecap="round"/>
<path d="M249.185 292.83L254.015 263.739H271.458L270.946 266.864H257.026L255.378 276.694H267.992L267.48 279.819H254.867L252.708 292.83H249.185ZM272.662 292.83L277.491 263.739H287.321C289.593 263.739 291.393 264.123 292.718 264.89C294.054 265.657 294.958 266.713 295.431 268.057C295.914 269.402 296.014 270.936 295.73 272.66C295.446 274.364 294.84 275.879 293.912 277.205C292.993 278.531 291.743 279.573 290.162 280.33C288.59 281.088 286.677 281.466 284.423 281.466H276.468L277.037 278.285H284.877C286.431 278.285 287.718 278.057 288.741 277.603C289.764 277.148 290.559 276.5 291.127 275.657C291.696 274.814 292.074 273.815 292.264 272.66C292.453 271.485 292.401 270.467 292.108 269.606C291.824 268.734 291.241 268.062 290.36 267.589C289.489 267.106 288.268 266.864 286.696 266.864H280.502L276.184 292.83H272.662ZM288.514 279.762L293.514 292.83H289.423L284.537 279.762H288.514ZM299.441 292.83H295.748L311.259 263.739H314.895L320.748 292.83H317.054L312.452 268.341H312.225L299.441 292.83ZM302.679 281.466H317.566L317.054 284.591H302.168L302.679 281.466ZM353.176 263.739L348.347 292.83H344.938L332.892 269.989H332.608L328.801 292.83H325.279L330.108 263.739H333.517L345.62 286.637H345.904L349.711 263.739H353.176ZM382.1 272.83H378.635C378.597 271.817 378.388 270.927 378.01 270.16C377.631 269.393 377.119 268.749 376.475 268.228C375.841 267.698 375.112 267.3 374.288 267.035C373.464 266.769 372.583 266.637 371.646 266.637C369.847 266.637 368.142 267.096 366.532 268.015C364.922 268.924 363.545 270.264 362.399 272.035C361.253 273.796 360.472 275.955 360.055 278.512C359.638 280.993 359.7 283.081 360.24 284.776C360.779 286.471 361.674 287.754 362.924 288.626C364.174 289.497 365.661 289.932 367.385 289.932C368.379 289.932 369.354 289.8 370.311 289.535C371.277 289.269 372.176 288.876 373.01 288.356C373.852 287.825 374.6 287.177 375.254 286.41C375.917 285.633 376.438 284.743 376.816 283.739H380.339C379.818 285.226 379.113 286.556 378.223 287.731C377.342 288.905 376.324 289.904 375.169 290.728C374.013 291.542 372.768 292.162 371.433 292.589C370.098 293.015 368.71 293.228 367.271 293.228C364.752 293.228 362.607 292.612 360.836 291.381C359.075 290.141 357.815 288.389 357.058 286.126C356.31 283.853 356.191 281.163 356.703 278.057C357.214 275.027 358.194 272.413 359.643 270.216C361.092 268.01 362.868 266.315 364.97 265.131C367.072 263.938 369.354 263.341 371.816 263.341C373.294 263.341 374.653 263.555 375.893 263.981C377.134 264.407 378.213 265.032 379.132 265.856C380.05 266.67 380.765 267.664 381.277 268.839C381.797 270.003 382.072 271.334 382.1 272.83ZM384.498 292.83L389.327 263.739H406.884L406.373 266.864H392.338L390.691 276.694H403.816L403.304 279.819H390.179L388.532 289.705H402.793L402.282 292.83H384.498Z" fill="white"/>
</svg>
