<svg width="802" height="757" viewBox="0 0 802 757" fill="none" xmlns="http://www.w3.org/2000/svg">
<path d="M207.952 644.687C205.203 651.558 194.896 662.552 194.209 670.797C193.522 679.043 246.43 707.902 246.43 707.902C246.43 707.902 322.701 742.944 334.382 723.705C346.063 704.467 379.732 720.956 394.161 733.325C408.591 745.694 429.205 756.001 445.008 756C460.812 755.999 474.555 752.565 483.487 740.196C492.42 727.828 483.487 704.467 490.358 687.288C497.23 670.11 530.211 654.994 549.451 657.742C568.69 660.49 625.034 678.356 625.034 678.356C625.034 678.356 685.501 696.221 705.427 678.356C725.353 660.49 781.697 607.583 767.268 595.214C752.838 582.845 744.593 606.895 731.537 590.404C718.482 573.913 734.286 558.797 731.537 548.49C728.789 538.183 714.36 534.748 712.298 518.257C710.237 501.765 731.537 492.146 731.537 492.146C731.537 492.146 743.906 453.668 731.537 440.612C719.169 427.556 719.857 411.753 712.298 406.943C704.74 402.133 663.513 404.881 675.194 392.513C686.875 380.146 737.859 319.007 756.961 310.746C776.063 302.485 765.207 249.593 770.016 235.85C774.826 222.107 808.495 193.936 798.188 185.003C787.881 176.069 770.703 170.573 756.961 168.512C743.219 166.451 718.482 172.635 712.298 163.702L711.951 163.201C705.905 154.461 700.36 146.446 686.875 142.401C673.132 138.279 647.75 143.502 619.537 124.536C599.088 117.708 596.019 107.36 596.862 83.9961C595.858 78.1636 564.207 70.8602 551.512 70.9408C538.818 71.0213 466.008 10.7135 455.315 3.60297C444.622 -3.50755 393.474 4.97722 391.413 16.6583C389.352 28.3393 397.597 70.9408 391.413 83.9961C385.229 97.0514 307.584 124.536 307.584 124.536C304.249 161.868 262.921 152.021 258.799 151.334L258.651 151.309C254.035 150.543 225.948 145.88 218.946 124.536C218.946 124.536 183.215 108.732 180.467 124.536C177.718 140.34 207.264 204.929 205.89 213.862C204.516 222.794 141.988 220.046 131.681 221.42C121.375 222.794 117.252 198.058 104.196 195.997C91.1412 193.935 85.6442 202.868 74.6503 207.678C63.6564 212.488 8.68672 206.303 2.50263 221.42C-3.68145 236.537 11.4352 253.715 7.9996 265.396C4.56403 277.077 27.0851 287.791 33.4231 288.758C39.7611 289.725 113.816 303.187 123.436 310.746C133.056 318.304 147.485 336.169 161.915 345.789C176.344 355.409 161.915 362.28 167.412 372.587C172.909 382.894 183.902 388.391 188.712 400.759C193.522 413.127 227.878 470.158 228.565 481.839C229.252 493.52 221.694 552.613 221.007 559.484C220.32 566.355 210.7 637.815 207.952 644.687Z" stroke="white" stroke-width="2" stroke-linecap="round"/>
<path d="M203.142 668.736C216.283 667.981 221.694 671.485 229.252 680.418C236.811 689.35 257.424 701.718 265.67 699.657C273.915 697.596 293.842 718.896 306.897 720.27C319.952 721.645 326.824 702.405 340.566 699.657C354.308 696.908 374.235 707.902 381.793 709.964C389.352 712.025 415.462 714.774 422.333 720.27C429.205 725.767 454.628 738.136 460.125 726.455C465.622 714.774 444.321 709.964 454.628 699.657C464.935 689.35 460.125 672.172 464.248 666.675C468.37 661.178 475.242 658.43 476.616 654.994C477.99 651.558 472.493 642.626 480.739 636.442C488.984 630.258 521.966 607.583 531.585 602.086C541.205 596.589 535.021 582.159 542.579 578.724C550.138 575.288 589.304 567.73 597.549 569.104C605.794 570.478 614.727 580.098 618.163 584.221C621.598 588.343 622.973 611.018 633.279 614.454C643.586 617.89 651.144 619.264 657.329 614.454C663.513 609.644 692.372 562.92 695.12 553.987C697.869 545.055 696.494 531.999 695.12 522.38C693.746 512.76 695.12 490.772 695.12 479.091C695.12 467.41 714.36 452.981 705.427 444.048C696.494 435.115 651.832 422.747 651.832 410.379C651.832 398.011 662.825 387.704 671.758 381.52C680.691 375.336 686.188 362.968 688.249 356.784C690.31 350.6 701.304 348.538 705.427 336.17C709.55 323.802 701.991 279.139 705.427 264.71C708.863 250.28 732.225 235.163 732.225 235.163C732.225 235.163 754.9 225.544 758.335 215.924C761.771 206.304 764.519 180.881 764.519 180.881" stroke="#FC5200" stroke-width="7" stroke-linecap="round"/>
<path d="M338.835 384.789L343.664 355.698H361.108L360.596 358.823H346.676L345.028 368.653H357.642L357.13 371.778H344.517L342.358 384.789H338.835ZM362.311 384.789L367.141 355.698H376.971C379.243 355.698 381.043 356.082 382.368 356.849C383.704 357.616 384.608 358.672 385.081 360.016C385.564 361.361 385.664 362.895 385.38 364.619C385.096 366.323 384.49 367.838 383.561 369.164C382.643 370.49 381.393 371.531 379.811 372.289C378.24 373.047 376.327 373.425 374.073 373.425H366.118L366.686 370.244H374.527C376.08 370.244 377.368 370.016 378.391 369.562C379.414 369.107 380.209 368.459 380.777 367.616C381.346 366.773 381.724 365.774 381.914 364.619C382.103 363.444 382.051 362.426 381.758 361.565C381.473 360.693 380.891 360.021 380.01 359.548C379.139 359.065 377.918 358.823 376.346 358.823H370.152L365.834 384.789H362.311ZM378.164 371.721L383.164 384.789H379.073L374.186 371.721H378.164ZM389.091 384.789H385.397L400.909 355.698H404.545L410.397 384.789H406.704L402.102 360.3H401.875L389.091 384.789ZM392.329 373.425H407.216L406.704 376.55H391.818L392.329 373.425ZM442.826 355.698L437.997 384.789H434.588L422.542 361.948H422.258L418.451 384.789H414.929L419.758 355.698H423.167L435.27 378.596H435.554L439.36 355.698H442.826ZM471.75 364.789H468.284C468.247 363.776 468.038 362.886 467.659 362.119C467.281 361.352 466.769 360.708 466.125 360.187C465.491 359.656 464.762 359.259 463.938 358.994C463.114 358.728 462.233 358.596 461.296 358.596C459.497 358.596 457.792 359.055 456.182 359.974C454.572 360.883 453.195 362.223 452.049 363.994C450.903 365.755 450.122 367.914 449.705 370.471C449.288 372.952 449.35 375.04 449.89 376.735C450.429 378.43 451.324 379.713 452.574 380.585C453.824 381.456 455.311 381.891 457.034 381.891C458.029 381.891 459.004 381.759 459.961 381.494C460.927 381.228 461.826 380.835 462.659 380.315C463.502 379.784 464.25 379.136 464.904 378.369C465.567 377.592 466.088 376.702 466.466 375.698H469.989C469.468 377.185 468.763 378.515 467.873 379.69C466.992 380.864 465.974 381.863 464.819 382.687C463.663 383.501 462.418 384.121 461.083 384.548C459.748 384.974 458.36 385.187 456.921 385.187C454.402 385.187 452.257 384.571 450.486 383.34C448.725 382.1 447.465 380.348 446.708 378.085C445.96 375.812 445.841 373.122 446.353 370.016C446.864 366.986 447.844 364.372 449.293 362.175C450.742 359.969 452.517 358.274 454.62 357.09C456.722 355.897 459.004 355.3 461.466 355.3C462.944 355.3 464.302 355.513 465.543 355.94C466.784 356.366 467.863 356.991 468.782 357.815C469.7 358.629 470.415 359.623 470.927 360.798C471.447 361.962 471.722 363.293 471.75 364.789ZM474.147 384.789L478.977 355.698H496.534L496.022 358.823H481.988L480.341 368.653H493.466L492.954 371.778H479.829L478.182 381.664H492.443L491.932 384.789H474.147Z" fill="white"/>
</svg>
