<svg width="452" height="719" viewBox="0 0 452 719" fill="none" xmlns="http://www.w3.org/2000/svg">
<path d="M301.193 368.409C301.193 366.847 300.677 365.663 299.645 364.858C298.613 364.044 297.216 363.636 295.455 363.636C294.167 363.636 293.007 363.845 291.974 364.261C290.942 364.678 290.099 365.251 289.446 365.98C288.793 366.709 288.39 367.538 288.239 368.466C288.116 369.242 288.196 369.91 288.48 370.469C288.764 371.018 289.167 371.477 289.688 371.847C290.218 372.206 290.786 372.505 291.392 372.741C291.998 372.969 292.557 373.153 293.068 373.295L295.909 374.091C296.619 374.29 297.41 374.564 298.281 374.915C299.152 375.265 299.967 375.743 300.724 376.349C301.482 376.946 302.06 377.713 302.457 378.651C302.865 379.588 302.955 380.739 302.727 382.102C302.462 383.674 301.813 385.095 300.781 386.364C299.759 387.633 298.404 388.641 296.719 389.389C295.043 390.137 293.087 390.511 290.852 390.511C288.769 390.511 287.017 390.175 285.597 389.503C284.186 388.83 283.144 387.893 282.472 386.69C281.809 385.488 281.553 384.091 281.705 382.5H285.341C285.246 383.598 285.464 384.508 285.994 385.227C286.525 385.937 287.263 386.468 288.21 386.818C289.157 387.159 290.208 387.33 291.364 387.33C292.708 387.33 293.949 387.112 295.085 386.676C296.231 386.231 297.178 385.616 297.926 384.83C298.684 384.034 299.148 383.106 299.318 382.045C299.489 381.08 299.356 380.294 298.92 379.688C298.485 379.081 297.855 378.589 297.031 378.21C296.207 377.831 295.303 377.5 294.318 377.216L290.909 376.193C288.75 375.54 287.107 374.607 285.98 373.395C284.863 372.183 284.46 370.597 284.773 368.636C285.057 367.008 285.743 365.587 286.832 364.375C287.921 363.153 289.271 362.206 290.881 361.534C292.491 360.852 294.223 360.511 296.08 360.511C297.955 360.511 299.56 360.852 300.895 361.534C302.23 362.206 303.224 363.139 303.878 364.332C304.531 365.516 304.773 366.875 304.602 368.409H301.193ZM307.212 390L312.042 360.909H321.871C324.144 360.909 325.939 361.316 327.255 362.131C328.581 362.945 329.476 364.048 329.94 365.44C330.413 366.832 330.508 368.39 330.224 370.114C329.94 371.818 329.329 373.371 328.391 374.773C327.463 376.174 326.204 377.292 324.613 378.125C323.031 378.958 321.114 379.375 318.86 379.375H311.815L312.326 376.25H319.258C320.811 376.25 322.108 375.98 323.15 375.44C324.192 374.901 325.006 374.167 325.593 373.239C326.18 372.311 326.568 371.269 326.758 370.114C326.947 368.939 326.9 367.898 326.616 366.989C326.341 366.07 325.768 365.35 324.897 364.83C324.035 364.299 322.818 364.034 321.246 364.034H315.053L310.735 390H307.212ZM330.788 390H327.095L342.607 360.909H346.243L352.095 390H348.402L343.8 365.511H343.572L330.788 390ZM334.027 378.636H348.913L348.402 381.761H333.516L334.027 378.636ZM364.979 360.909L360.149 390H356.626L361.456 360.909H364.979ZM395.11 360.909L390.281 390H386.871L374.826 367.159H374.542L370.735 390H367.212L372.042 360.909H375.451L387.553 383.807H387.837L391.644 360.909H395.11Z" fill="white"/>
<path d="M142.029 607.489C137.089 603.147 142.029 600.168 138.056 592.089C134.083 584.011 131.999 566.844 142.029 559.27C152.06 551.697 151.686 538.064 159.763 534.53C167.84 530.996 176.17 523.674 176.17 520.14C176.17 516.606 166.831 523.927 164.811 520.14C162.792 516.353 154.463 503.478 150.424 498.934C146.386 494.39 148.823 487.697 155.725 481.262C151.304 473.977 155.725 464.348 164.811 462.076C173.898 459.804 178.946 450.968 176.17 441.88C173.393 432.791 163.297 439.103 159.763 430.267C156.229 421.431 158.249 411.838 155.725 401.992C153.201 392.146 138.056 393.156 138.056 385.583C138.056 378.009 146.638 379.271 146.638 379.271C146.638 379.271 170.112 387.097 176.17 381.543C182.227 375.989 186.013 352.764 183.489 344.938C180.965 337.112 176.17 346.705 176.17 338.374C176.17 330.043 190.052 329.286 192.071 322.722C194.09 316.158 192.071 282.077 192.071 273.998C192.071 265.92 185.761 265.92 185.509 260.366C185.256 254.812 206.206 236.888 211.254 235.878C216.302 234.868 224.379 233.101 228.417 227.042C232.456 220.983 239.019 215.429 238.766 208.613C238.514 201.797 212.516 206.846 211.254 200.282C209.992 193.718 216.554 176.804 213.526 173.27C210.497 169.735 182.732 170.745 176.17 171.25C169.607 171.755 164.811 184.63 153.453 185.387C142.095 186.145 130.484 175.542 120.64 176.804C110.796 178.066 114.583 184.378 106.253 181.601C97.9238 178.824 101.71 173.27 101.71 173.27C101.71 173.27 111.301 167.968 111.301 162.414C111.301 156.86 108.272 152.316 101.71 152.064C95.1473 151.811 85.0511 156.608 78.4885 157.87C71.926 159.132 60.4395 171.25 60.4395 171.25M142.029 607.489C118.201 597.433 119.313 641.822 106.945 626.17C94.5771 610.518 35.0092 636.016 29.9612 616.072C24.9132 596.128 42.329 551.192 46.3675 534.782C50.4061 518.373 46.3675 494.39 38.543 481.262C30.7184 468.135 25.6704 502.216 22.8938 488.331C20.1173 474.446 2.95377 469.397 1.43933 455.512C-0.075099 441.627 1.94415 404.264 13.5548 401.992C25.1655 399.72 52.6777 326.509 52.6777 326.509C52.6777 326.509 78.1707 251.025 68.5792 233.101C62.2462 221.266 60.865 192.921 60.4395 171.25M142.029 607.489C142.029 607.489 176.609 608.499 195.539 621.879C214.47 635.259 215.479 638.541 221.032 664.038C226.585 689.536 256.369 715.034 269.747 717.558C283.124 720.083 293.22 711.247 295.997 704.683C298.773 698.12 300.54 685.244 313.918 683.225C327.295 681.205 353.04 673.632 362.379 664.038M60.4395 171.25C60.2206 160.1 60.2547 150.717 59.9974 146.257C59.2402 133.13 54.9493 116.72 52.6777 100.058C50.406 83.3963 37.7858 87.4356 34.2521 71.7835C30.7184 56.1314 42.0766 60.1706 52.6777 47.548C63.2787 34.9253 103.916 38.7121 103.411 28.1091C102.906 17.5061 113.003 2.35888 134.205 1.09662C155.407 -0.165646 159.95 11.1947 177.618 20.2831C195.287 29.3714 245.263 14.7291 270.251 15.9914C295.24 17.2536 345.721 41.4891 366.166 40.9842" stroke="white" stroke-width="2" stroke-linecap="round"/>
<path d="M100.703 504.399L72.8932 494.592L74.6001 484.911C74.9947 482.673 75.7073 480.977 76.7379 479.822C77.7702 478.658 79.012 477.968 80.4635 477.753C81.9166 477.528 83.4672 477.705 85.1151 478.284C86.7444 478.86 88.1678 479.731 89.3852 480.898C90.6043 482.055 91.4861 483.49 92.0305 485.201C92.5765 486.903 92.6539 488.864 92.2625 491.084L91.0391 498.022L88.0504 496.976L89.2541 490.149C89.5237 488.62 89.4832 487.295 89.1325 486.176C88.7819 485.056 88.2005 484.127 87.3885 483.387C86.5766 482.648 85.6181 482.085 84.5133 481.698C83.3898 481.307 82.3557 481.173 81.4111 481.295C80.4588 481.406 79.6505 481.845 78.9863 482.613C78.3145 483.369 77.842 484.521 77.5691 486.069L76.4936 492.169L101.315 500.93L100.703 504.399ZM95.6817 450.424C98.5772 451.454 100.986 452.874 102.907 454.684C104.819 456.492 106.181 458.53 106.992 460.798C107.795 463.065 107.984 465.401 107.56 467.807C107.122 470.288 106.143 472.293 104.624 473.824C103.096 475.343 101.152 476.279 98.7916 476.632C96.4235 476.974 93.7545 476.624 90.7844 475.581C87.8889 474.551 85.4852 473.132 83.5732 471.323C81.6518 469.513 80.2908 467.47 79.4902 465.195C78.6802 462.917 78.4889 460.566 78.9165 458.141C79.3506 455.679 80.3306 453.693 81.8565 452.183C83.3747 450.663 85.3179 449.731 87.686 449.389C90.0464 449.036 92.7117 449.381 95.6817 450.424ZM94.652 453.646C92.281 452.805 90.2139 452.503 88.4509 452.74C86.6878 452.978 85.2688 453.636 84.1938 454.716C83.1187 455.796 82.4316 457.184 82.1323 458.881C81.8198 460.653 81.9762 462.412 82.6012 464.157C83.2169 465.9 84.2973 467.489 85.8423 468.925C87.3779 470.36 89.3685 471.504 91.8141 472.358C94.1851 473.199 96.2522 473.501 98.0152 473.264C99.7783 473.027 101.197 472.368 102.272 471.289C103.347 470.209 104.035 468.82 104.334 467.123C104.646 465.351 104.495 463.594 103.879 461.85C103.254 460.106 102.173 458.516 100.638 457.082C99.0929 455.646 97.0976 454.501 94.652 453.646ZM110.397 449.427L82.5863 439.619L84.2932 429.939C84.6878 427.701 85.3779 425.996 86.3636 424.823C87.3508 423.641 88.5477 422.934 89.9542 422.701C91.3623 422.459 92.8903 422.628 94.5383 423.207C96.1676 423.782 97.5545 424.642 98.699 425.787C99.8451 426.921 100.654 428.333 101.125 430.022C101.598 431.702 101.639 433.652 101.248 435.871L99.8666 443.705L96.8318 442.593L98.1934 434.871C98.4631 433.341 98.4629 432.034 98.1928 430.948C97.9228 429.861 97.4221 428.965 96.6908 428.26C95.9594 427.554 95.0413 427.007 93.9365 426.62C92.813 426.23 91.8014 426.104 90.9018 426.244C89.9944 426.372 89.2312 426.829 88.612 427.614C87.9851 428.388 87.5351 429.549 87.2622 431.097L86.1867 437.196L111.008 445.958L110.397 449.427ZM100.28 431.546L114.018 428.892L113.307 432.92L99.589 435.463L100.28 431.546ZM89.7417 417.035L86.753 415.989L90.5417 394.502L93.5304 395.548L91.9419 404.557L116.763 413.319L116.152 416.788L91.3302 408.026L89.7417 417.035ZM94.8008 370.347L95.4126 366.878L113.829 373.356C115.73 374.028 117.346 375.087 118.677 376.533C120 377.978 120.943 379.688 121.509 381.662C122.065 383.635 122.145 385.746 121.748 387.993C121.352 390.241 120.581 392.047 119.437 393.413C118.283 394.777 116.883 395.655 115.237 396.047C113.581 396.438 111.803 396.298 109.902 395.626L91.4857 389.148L92.0975 385.679L110.239 392.08C111.598 392.55 112.862 392.662 114.031 392.416C115.19 392.169 116.173 391.583 116.98 390.658C117.78 389.722 118.32 388.456 118.602 386.862C118.883 385.267 118.826 383.79 118.431 382.432C118.026 381.072 117.352 379.905 116.408 378.931C115.457 377.946 114.302 377.218 112.942 376.748L94.8008 370.347ZM108.774 343.455C107.807 343.429 106.92 343.522 106.114 343.736C105.299 343.939 104.581 344.274 103.96 344.741C103.33 345.207 102.805 345.811 102.386 346.555C101.958 347.287 101.654 348.171 101.471 349.206C101.172 350.903 101.321 352.622 101.918 354.362C102.516 356.093 103.567 357.687 105.07 359.144C106.574 360.592 108.531 361.74 110.939 362.588C113.347 363.435 115.448 363.763 117.242 363.569C119.037 363.366 120.481 362.732 121.573 361.664C122.667 360.588 123.37 359.164 123.682 357.392C123.972 355.751 123.892 354.16 123.442 352.619C122.983 351.076 122.195 349.711 121.078 348.524C119.951 347.335 118.535 346.446 116.831 345.857L117.233 344.889L115.713 353.506L112.735 352.404L114.659 341.493L117.637 342.595C119.94 343.385 121.85 344.578 123.367 346.172C124.884 347.767 125.949 349.609 126.562 351.697C127.174 353.786 127.28 355.968 126.878 358.244C126.431 360.781 125.459 362.802 123.963 364.307C122.467 365.813 120.557 366.721 118.232 367.032C115.908 367.344 113.28 366.981 110.347 365.945C108.145 365.182 106.219 364.188 104.569 362.964C102.912 361.73 101.561 360.338 100.517 358.788C99.4745 357.229 98.7576 355.569 98.3662 353.808C97.9765 352.037 97.9428 350.238 98.2651 348.41C98.5315 346.899 99.0017 345.569 99.6757 344.418C100.342 343.257 101.169 342.302 102.157 341.553C103.136 340.802 104.242 340.281 105.476 339.989C106.701 339.695 108.011 339.657 109.405 339.874L108.774 343.455ZM129.658 340.192L129.016 343.829L103.061 323.502L103.692 319.921L133.357 319.209L132.716 322.846L107.8 323.126L107.761 323.35L129.658 340.192ZM119.029 335.03L121.614 320.369L124.603 321.416L122.018 336.076L119.029 335.03ZM134.144 314.747L106.334 304.939L106.946 301.47L131.767 310.231L134.116 296.914L137.104 297.96L134.144 314.747Z" fill="white"/>
<path d="M42.4648 469.427C42.4648 469.427 66.5623 449.02 66.9965 438.382C67.4307 427.745 92.8307 409.292 92.8307 402.128C92.8307 394.964 103.468 378.03 98.041 368.695C92.6136 359.36 92.8307 339.822 92.8307 339.822C92.8307 339.822 101.732 314.856 92.8307 294.666C83.9299 274.476 78.2854 260.582 80.8905 247.339C83.4957 234.097 74.8119 229.321 74.8119 221.288C74.8119 213.256 80.8905 202.184 80.8905 187.638C80.8905 173.093 82.4102 162.673 78.2854 153.989C74.1606 145.305 80.8905 142.917 82.4102 135.319C83.9299 127.72 78.2854 126.201 78.2854 118.385C78.2854 110.57 86.535 86.2554 86.535 86.2554" stroke="#FC5200" stroke-width="9" stroke-linecap="round"/>
</svg>
