<svg width="200" height="160" viewBox="0 0 200 160" fill="none" xmlns="http://www.w3.org/2000/svg">
<path d="M5.86915 130.805C5.86915 130.805 7.36447 138.282 9.98128 140.898C12.5981 143.515 108.672 151.366 108.672 151.366C108.672 151.366 178.579 156.973 180.074 155.852C181.569 154.73 184.186 105.758 184.186 103.515C184.186 101.272 180.822 100.525 180.074 99.4033C179.326 98.2817 184.186 86.3193 184.186 83.7024C184.186 81.0856 178.205 81.8334 178.579 78.4688C178.953 75.1043 194.28 47.0671 195.775 45.5718C197.27 44.0764 196.51 40.9911 195.775 38.469C195.04 35.9469 190.915 28.7494 186.429 28.7494C181.943 28.7494 149.046 27.628 145.682 26.8802C142.317 26.1325 135.588 25.0111 131.102 26.8802C126.616 28.7494 123.626 29.497 120.261 30.9924C116.897 32.4878 110.542 30.9924 108.672 30.9924C106.803 30.9924 96.3361 32.4876 94.0931 33.983C91.8501 35.4784 82.8782 28.7493 80.6352 28.7494C78.3922 28.7495 68.6726 30.9924 64.9343 30.9924C61.196 30.9924 60.0745 26.8802 58.2054 24.2634C56.3362 21.6466 58.2054 14.17 55.9624 11.5532C53.7194 8.93639 35.0279 2.20744 33.9064 4.45042C32.7849 6.6934 30.1681 29.8708 29.4205 33.983C28.6728 38.0952 23.0653 64.637 22.3177 68.0016C21.57 71.3661 13.7196 93.7958 12.5981 96.4127C11.4766 99.0296 4 108.749 4 111.74C4 114.73 6.61681 114.356 7.36447 116.973C8.11213 119.59 5.86915 130.805 5.86915 130.805Z" stroke="white"/>
<path d="M83.0703 89.4027C82.9448 90.1532 82.7034 90.8054 82.3459 91.3594C81.9884 91.9134 81.5516 92.3419 81.0355 92.6449C80.5194 92.9479 79.9583 93.0994 79.3523 93.0994C78.7296 93.0994 78.2041 92.9444 77.7756 92.6342C77.3494 92.3217 77.0476 91.8838 76.87 91.3203C76.6925 90.7545 76.6664 90.0893 76.7919 89.3246C76.9174 88.5741 77.1589 87.9219 77.5163 87.3679C77.8738 86.8139 78.3118 86.3854 78.8303 86.0824C79.3487 85.7794 79.9122 85.6278 80.5206 85.6278C81.1361 85.6278 81.657 85.7829 82.0831 86.093C82.5092 86.4032 82.8123 86.8411 82.9922 87.407C83.1721 87.9704 83.1982 88.6357 83.0703 89.4027ZM82.4347 89.3246C82.5436 88.6759 82.5294 88.1231 82.392 87.6662C82.2571 87.2093 82.0251 86.8601 81.696 86.6186C81.367 86.3748 80.968 86.2528 80.4993 86.2528C80.014 86.2528 79.5582 86.3783 79.1321 86.6293C78.706 86.8778 78.3426 87.2377 78.0419 87.7088C77.7412 88.1776 77.5353 88.7422 77.424 89.4027C77.3175 90.049 77.3317 90.6018 77.4666 91.0611C77.6016 91.518 77.8336 91.8684 78.1626 92.1122C78.4941 92.3537 78.8954 92.4744 79.3665 92.4744C79.8542 92.4744 80.3111 92.349 80.7372 92.098C81.1634 91.8471 81.5256 91.4872 81.8239 91.0185C82.1245 90.5473 82.3281 89.9827 82.4347 89.3246ZM84.0797 93L85.2871 85.7273H87.6344C88.1505 85.7273 88.566 85.8196 88.8809 86.0043C89.1981 86.1889 89.4171 86.4458 89.5378 86.7749C89.6609 87.1016 89.6882 87.478 89.6195 87.9041C89.5485 88.3255 89.397 88.6984 89.165 89.0227C88.9353 89.3471 88.6323 89.6016 88.2559 89.7862C87.8794 89.9685 87.4355 90.0597 86.9242 90.0597H84.9284L85.0314 89.4524H87.0094C87.3906 89.4524 87.7173 89.3897 87.9895 89.2642C88.2618 89.1387 88.4796 88.96 88.6429 88.728C88.8063 88.496 88.914 88.2214 88.9661 87.9041C89.0182 87.5845 89.0004 87.3063 88.9128 87.0696C88.8276 86.8329 88.669 86.6494 88.437 86.5192C88.2073 86.389 87.9007 86.3239 87.5172 86.3239H85.8517L84.7438 93H84.0797ZM87.8297 89.7188L89.0762 93H88.3127L87.0875 89.7188H87.8297ZM90.3883 93L91.5957 85.7273H95.8145L95.715 86.3239H92.1603L91.7058 89.0618H95.0368L94.9373 89.6584H91.6064L91.1518 92.4034H94.7775L94.6781 93H90.3883ZM102.178 88C102.154 87.7562 102.1 87.5289 102.015 87.3182C101.93 87.1051 101.81 86.9193 101.656 86.7607C101.502 86.602 101.312 86.4777 101.084 86.3878C100.859 86.2978 100.594 86.2528 100.289 86.2528C99.8367 86.2528 99.3987 86.3724 98.975 86.6115C98.5536 86.8506 98.1878 87.2022 97.8777 87.6662C97.5699 88.1278 97.3604 88.6937 97.2491 89.3636C97.1402 90.0194 97.1509 90.5793 97.2811 91.0433C97.4113 91.5073 97.6421 91.8625 97.9735 92.1087C98.305 92.3525 98.7181 92.4744 99.2129 92.4744C99.658 92.4744 100.072 92.375 100.456 92.1761C100.839 91.9749 101.162 91.6896 101.425 91.3203C101.688 90.951 101.858 90.513 101.937 90.0064L102.135 90.0739H99.8059L99.916 89.4773H102.675L102.565 90.0739C102.466 90.6965 102.254 91.2339 101.93 91.6861C101.605 92.1383 101.203 92.4875 100.722 92.7337C100.242 92.9775 99.7183 93.0994 99.1525 93.0994C98.5181 93.0994 97.9877 92.9467 97.5616 92.6413C97.1378 92.3336 96.8407 91.9003 96.6703 91.3416C96.4998 90.7829 96.4785 90.1236 96.6064 89.3636C96.6963 88.7931 96.8549 88.2782 97.0822 87.8189C97.3095 87.3596 97.5888 86.9678 97.9203 86.6435C98.2541 86.3168 98.6258 86.0658 99.0353 85.8906C99.4473 85.7154 99.8829 85.6278 100.342 85.6278C100.74 85.6278 101.094 85.6906 101.404 85.8161C101.714 85.9415 101.977 86.1143 102.192 86.3345C102.408 86.5523 102.571 86.8045 102.682 87.0909C102.796 87.375 102.855 87.678 102.86 88H102.178ZM110.297 89.4027C110.171 90.1532 109.93 90.8054 109.572 91.3594C109.215 91.9134 108.778 92.3419 108.262 92.6449C107.746 92.9479 107.185 93.0994 106.579 93.0994C105.956 93.0994 105.431 92.9444 105.002 92.6342C104.576 92.3217 104.274 91.8838 104.097 91.3203C103.919 90.7545 103.893 90.0893 104.018 89.3246C104.144 88.5741 104.385 87.9219 104.743 87.3679C105.1 86.8139 105.538 86.3854 106.057 86.0824C106.575 85.7794 107.139 85.6278 107.747 85.6278C108.363 85.6278 108.884 85.7829 109.31 86.093C109.736 86.4032 110.039 86.8411 110.219 87.407C110.399 87.9704 110.425 88.6357 110.297 89.4027ZM109.661 89.3246C109.77 88.6759 109.756 88.1231 109.619 87.6662C109.484 87.2093 109.252 86.8601 108.923 86.6186C108.594 86.3748 108.195 86.2528 107.726 86.2528C107.241 86.2528 106.785 86.3783 106.359 86.6293C105.933 86.8778 105.569 87.2377 105.268 87.7088C104.968 88.1776 104.762 88.7422 104.651 89.4027C104.544 90.049 104.558 90.6018 104.693 91.0611C104.828 91.518 105.06 91.8684 105.389 92.1122C105.721 92.3537 106.122 92.4744 106.593 92.4744C107.081 92.4744 107.538 92.349 107.964 92.098C108.39 91.8471 108.752 91.4872 109.05 91.0185C109.351 90.5473 109.555 89.9827 109.661 89.3246ZM118.178 85.7273L116.97 93H116.324L113.039 86.9098H112.982L111.97 93H111.306L112.514 85.7273H113.156L116.452 91.8246H116.509L117.524 85.7273H118.178Z" fill="white"/>
<path d="M38 143.5C38 143.5 41.757 139.777 44.7476 140.899C47.7382 142.02 52.9719 140.525 54.841 139.777C56.7102 139.029 58.4021 136.247 58.5793 135.665C58.7565 135.083 56.3363 131.553 56.3363 130.431C56.3363 129.31 61.9438 124.076 61.9438 122.581C61.9438 121.086 59.7008 115.852 60.0746 114.731C60.4485 113.609 63.0653 113.609 63.8129 113.235C64.5606 112.861 68.6727 103.516 67.9251 102.768C67.1774 102.02 61.9438 99.7773 61.9438 98.6558C61.9438 97.5343 69.0466 96.7867 69.0466 95.6652C69.0466 94.5437 68.6727 88.5624 69.0466 87.4409C69.4204 86.3194 73.9064 82.9549 74.654 82.5811C75.4017 82.2073 75.0279 78.469 74.654 77.3475C74.2802 76.226 71.6634 75.1045 71.6634 73.6092C71.6634 72.1139 77.6447 65.0111 77.6447 64.2634C77.6447 63.5158 74.654 62.3943 74.654 61.2728C74.654 60.1513 77.2708 58.2821 77.6447 57.1607C78.0185 56.0392 79.14 48.1887 79.14 47.0672C79.14 45.9457 82.8783 44.8243 82.5045 43.7028C82.1306 42.5813 78.0185 36.2262 77.6447 35.1047C77.2708 33.9832 81.383 30.2449 81.383 30.2449" stroke="#FC5200" stroke-width="3"/>
</svg>
