<svg width="327" height="819" viewBox="0 0 327 819" fill="none" xmlns="http://www.w3.org/2000/svg">
<path d="M165.596 808.135C161.864 765.603 130.596 715.635 114.596 721.135C108.034 722.567 107.418 719.255 107.596 711.635C107.379 699.847 106.829 697.305 102.096 693.635C83.8327 694.848 75.1767 692.867 67.5959 676.135V656.635L36.5958 594.635V577.635L46.0958 567.135V557.635C40.1332 556.535 36.4836 556.618 29.5958 557.635C27.0085 556.859 25.7841 555.168 24.5958 546.635L25.5958 513.136L0.595842 454.636C7.23832 448.28 -0.329043 429.712 0.595842 423.136C4.26131 418.095 4.0266 411.414 3.09584 398.636C-0.182476 386.78 1.11026 379.948 5.59584 367.636L16.5958 349.136V339.136L21.5958 330.136V307.136M303.096 185.136L326.096 43.1356L158.596 1.63557C146.49 -4.65967 149.56 15.5455 156.096 54.1356C146.27 58.1428 140.983 60.5514 151.096 79.1356C138.44 98.2486 131.703 98.6696 120.096 87.6356C118.966 65.3181 122.474 57.1965 138.096 52.6356C146.391 50.5264 145.812 47.7189 138.096 40.6356C111.818 29.9702 100.517 23.7048 91.0958 11.6356C82.1226 16.9755 79.3384 20.2989 80.5958 27.1356C92.2727 53.5394 90.6285 82.4878 82.8656 116.636M303.096 185.136C274.659 175.405 258.317 169.059 233.596 167.636H187.096L153.596 156.636C113.445 166.804 106.858 160.735 115.096 135.136C116.863 130.221 113.489 128.714 103.596 127.136C93.0642 118.2 88.7265 116.301 82.8656 116.636M303.096 185.136C314.201 193.436 318.036 198.235 311.096 207.636L283.096 251.136C278.666 256.588 277.813 259.915 287.096 267.636C286.639 303.677 282.287 324.417 265.096 362.636L21.5958 307.136M82.8656 116.636C75.6404 148.418 63.1148 184.705 51.0958 227.636C31.9098 246.153 23.3893 256.145 21.5958 271.636V307.136" stroke="black"/>
<path d="M166.596 340.636L131.096 482.636L282.096 702.636C294.08 724.199 297.835 732.985 295.096 738.136C295.149 750.697 294.197 756.134 288.096 758.636C273.811 773.411 269.338 784.876 275.596 818.136" stroke="black"/>
<path d="M163.596 807.636L276.596 816.636" stroke="black"/>
</svg>
