<svg width="407" height="899" viewBox="0 0 407 899" fill="none" xmlns="http://www.w3.org/2000/svg">
<path d="M205.596 848.135C201.864 805.603 170.596 755.635 154.596 761.135C148.034 762.567 147.418 759.255 147.596 751.635C147.379 739.847 146.829 737.305 142.096 733.635C123.833 734.848 115.177 732.867 107.596 716.135V696.635L76.5958 634.635V617.635L86.0958 607.135V597.635C80.1332 596.535 76.4836 596.618 69.5958 597.635C67.0085 596.859 65.7841 595.168 64.5958 586.635L65.5958 553.136L40.5958 494.636C47.2383 488.28 39.671 469.712 40.5958 463.136C44.2613 458.095 44.0266 451.414 43.0958 438.636C39.8175 426.78 41.1103 419.948 45.5958 407.636L56.5958 389.136V379.136L61.5958 370.136V347.136M343.096 225.136L366.096 83.1356L198.596 41.6356C186.49 35.3403 189.56 55.5455 196.096 94.1356C186.27 98.1428 180.983 100.551 191.096 119.136C178.44 138.249 171.703 138.67 160.096 127.636C158.966 105.318 162.474 97.1965 178.096 92.6356C186.391 90.5264 185.812 87.7189 178.096 80.6356C151.818 69.9702 140.517 63.7048 131.096 51.6356C122.123 56.9755 119.338 60.2989 120.596 67.1356C132.273 93.5394 130.629 122.488 122.866 156.636M343.096 225.136C314.659 215.405 298.317 209.059 273.596 207.636H227.096L193.596 196.636C153.445 206.804 146.858 200.735 155.096 175.136C156.863 170.221 153.489 168.714 143.596 167.136C133.064 158.2 128.727 156.301 122.866 156.636M343.096 225.136C354.201 233.436 358.036 238.235 351.096 247.636L323.096 291.136C318.666 296.588 317.813 299.915 327.096 307.636C326.639 343.677 322.287 364.417 305.096 402.636L61.5958 347.136M122.866 156.636C115.64 188.418 103.115 224.705 91.0958 267.636C71.9098 286.153 63.3893 296.145 61.5958 311.636V347.136" stroke="white"/>
<path d="M206.596 380.636L171.096 522.636L322.096 742.636C334.08 764.199 337.835 772.985 335.096 778.136C335.149 790.697 334.197 796.134 328.096 798.636C313.811 813.411 309.338 824.876 315.596 858.136" stroke="white"/>
<path d="M266.466 847.336C267.47 848.707 252.938 841.55 252.937 822.951C252.937 804.352 253.664 800.095 251.707 793.193C249.751 786.29 249.247 784.926 245.148 780.793C241.048 776.66 239.296 776.444 229.569 773.354C219.841 770.263 191.441 757.648 192.261 742.769C192.147 733.43 194.274 733.054 202.1 728.716C209.927 724.378 216.449 713.837 214.399 693.998C210.635 647.474 200.34 627.937 193.901 609.683C176.728 561.378 162.953 519.727 148.394 493.129C133.834 466.531 156.183 434.852 134.455 417.907C120.543 410.353 117.21 425.274 98.3769 403.028C88.6304 392.134 91.8969 363.036 92.6373 357.977C121.729 363.153 132.641 360.484 143.474 346.817C184.777 286.456 191.589 256.633 197.181 205.052C198.112 196.15 207.966 189.495 215.219 178.187C222.473 166.879 215.37 159.912 223.419 149.255C248.513 126.72 246.005 125.869 247.197 120.323C251.358 99.958 249.372 95.8594 242.688 93.8713C236.464 90.9997 258.677 75.6857 261.546 57.5" stroke="#D5D5D5" stroke-width="9"/>
<path d="M205.516 847.5L316.516 858.5" stroke="white"/>
<rect x="40.5162" y="4.5" width="59.375" height="30" rx="3" fill="#444444"/>
<rect x="41.0162" y="5" width="58.375" height="29" rx="2.5" stroke="white" stroke-opacity="0.0980392"/>
<path d="M51.8599 16.5C51.813 16.1042 51.6229 15.7969 51.2896 15.5781C50.9563 15.3594 50.5474 15.25 50.063 15.25C49.7089 15.25 49.399 15.3073 49.1333 15.4219C48.8703 15.5365 48.6646 15.694 48.5162 15.8945C48.3703 16.0951 48.2974 16.3229 48.2974 16.5781C48.2974 16.7917 48.3482 16.9753 48.4498 17.1289C48.5539 17.2799 48.6867 17.4062 48.8482 17.5078C49.0096 17.6068 49.1789 17.6888 49.356 17.7539C49.5331 17.8164 49.6958 17.8672 49.8443 17.9062L50.6568 18.125C50.8651 18.1797 51.0969 18.2552 51.3521 18.3516C51.6099 18.4479 51.856 18.5794 52.0904 18.7461C52.3274 18.9102 52.5227 19.1211 52.6763 19.3789C52.83 19.6367 52.9068 19.9531 52.9068 20.3281C52.9068 20.7604 52.7935 21.151 52.5669 21.5C52.343 21.849 52.0149 22.1263 51.5826 22.332C51.1529 22.5378 50.6307 22.6406 50.0162 22.6406C49.4432 22.6406 48.9471 22.5482 48.5279 22.3633C48.1112 22.1784 47.7831 21.9206 47.5435 21.5898C47.3065 21.2591 47.1724 20.875 47.1412 20.4375H48.1412C48.1672 20.7396 48.2688 20.9896 48.4458 21.1875C48.6255 21.3828 48.8521 21.5286 49.1255 21.625C49.4016 21.7187 49.6985 21.7656 50.0162 21.7656C50.386 21.7656 50.718 21.7057 51.0123 21.5859C51.3065 21.4635 51.5396 21.2943 51.7115 21.0781C51.8833 20.8594 51.9693 20.6042 51.9693 20.3125C51.9693 20.0469 51.8951 19.8307 51.7466 19.6641C51.5982 19.4974 51.4029 19.362 51.1607 19.2578C50.9185 19.1536 50.6568 19.0625 50.3755 18.9844L49.3912 18.7031C48.7662 18.5234 48.2714 18.2669 47.9068 17.9336C47.5422 17.6003 47.3599 17.1641 47.3599 16.625C47.3599 16.1771 47.481 15.7865 47.7232 15.4531C47.968 15.1172 48.2961 14.8568 48.7076 14.6719C49.1216 14.4844 49.5839 14.3906 50.0943 14.3906C50.6099 14.3906 51.0682 14.4831 51.4693 14.668C51.8703 14.8503 52.188 15.1003 52.4224 15.418C52.6594 15.7357 52.7844 16.0964 52.7974 16.5H51.8599ZM56.8902 22.625C56.3121 22.625 55.8134 22.4974 55.3941 22.2422C54.9774 21.9844 54.6558 21.625 54.4292 21.1641C54.2053 20.7005 54.0933 20.1615 54.0933 19.5469C54.0933 18.9323 54.2053 18.3906 54.4292 17.9219C54.6558 17.4505 54.9709 17.0833 55.3746 16.8203C55.7808 16.5547 56.2548 16.4219 56.7964 16.4219C57.1089 16.4219 57.4175 16.474 57.7222 16.5781C58.0269 16.6823 58.3042 16.8516 58.5542 17.0859C58.8042 17.3177 59.0035 17.625 59.1519 18.0078C59.3003 18.3906 59.3746 18.862 59.3746 19.4219V19.8125H54.7496V19.0156H58.4371C58.4371 18.6771 58.3693 18.375 58.2339 18.1094C58.1011 17.8437 57.911 17.6341 57.6636 17.4805C57.4188 17.3268 57.1298 17.25 56.7964 17.25C56.4292 17.25 56.1115 17.3411 55.8433 17.5234C55.5777 17.7031 55.3733 17.9375 55.23 18.2266C55.0868 18.5156 55.0152 18.8255 55.0152 19.1562V19.6875C55.0152 20.1406 55.0933 20.5247 55.2496 20.8398C55.4084 21.1523 55.6285 21.3906 55.9097 21.5547C56.191 21.7161 56.5178 21.7969 56.8902 21.7969C57.1324 21.7969 57.3511 21.763 57.5464 21.6953C57.7443 21.625 57.9149 21.5208 58.0582 21.3828C58.2014 21.2422 58.3121 21.0677 58.3902 20.8594L59.2808 21.1094C59.1871 21.4115 59.0295 21.6771 58.8082 21.9062C58.5868 22.1328 58.3134 22.3099 57.9878 22.4375C57.6623 22.5625 57.2964 22.625 56.8902 22.625ZM63.2144 22.625C62.6519 22.625 62.1675 22.4922 61.7613 22.2266C61.355 21.9609 61.0425 21.5951 60.8238 21.1289C60.605 20.6628 60.4957 20.1302 60.4957 19.5312C60.4957 18.9219 60.6076 18.3841 60.8316 17.918C61.0582 17.4492 61.3733 17.0833 61.7769 16.8203C62.1832 16.5547 62.6571 16.4219 63.1988 16.4219C63.6207 16.4219 64.0009 16.5 64.3394 16.6562C64.6779 16.8125 64.9553 17.0312 65.1714 17.3125C65.3876 17.5937 65.5217 17.9219 65.5738 18.2969H64.6519C64.5816 18.0234 64.4253 17.7812 64.1832 17.5703C63.9436 17.3568 63.6207 17.25 63.2144 17.25C62.855 17.25 62.5399 17.3437 62.2691 17.5312C62.0009 17.7161 61.7912 17.9779 61.6402 18.3164C61.4917 18.6523 61.4175 19.0469 61.4175 19.5C61.4175 19.9635 61.4904 20.3672 61.6363 20.7109C61.7847 21.0547 61.993 21.3216 62.2613 21.5117C62.5321 21.7018 62.8498 21.7969 63.2144 21.7969C63.454 21.7969 63.6714 21.7552 63.8667 21.6719C64.0621 21.5885 64.2274 21.4688 64.3628 21.3125C64.4983 21.1562 64.5946 20.9687 64.6519 20.75H65.5738C65.5217 21.1042 65.3928 21.4232 65.1871 21.707C64.9839 21.9883 64.7144 22.2122 64.3785 22.3789C64.0451 22.543 63.6571 22.625 63.2144 22.625ZM69.5308 16.5V17.2812H66.4214V16.5H69.5308ZM67.3277 15.0625H68.2496V20.7812C68.2496 21.0417 68.2873 21.237 68.3628 21.3672C68.441 21.4948 68.5399 21.5807 68.6597 21.625C68.7821 21.6667 68.911 21.6875 69.0464 21.6875C69.148 21.6875 69.2313 21.6823 69.2964 21.6719C69.3615 21.6589 69.4136 21.6484 69.4527 21.6406L69.6402 22.4687C69.5777 22.4922 69.4904 22.5156 69.3785 22.5391C69.2665 22.5651 69.1246 22.5781 68.9527 22.5781C68.6923 22.5781 68.4371 22.5221 68.1871 22.4102C67.9397 22.2982 67.7339 22.1276 67.5699 21.8984C67.4084 21.6693 67.3277 21.3802 67.3277 21.0312V15.0625ZM70.9175 22.5V16.5H71.8394V22.5H70.9175ZM71.3863 15.5C71.2066 15.5 71.0516 15.4388 70.9214 15.3164C70.7938 15.194 70.73 15.0469 70.73 14.875C70.73 14.7031 70.7938 14.556 70.9214 14.4336C71.0516 14.3112 71.2066 14.25 71.3863 14.25C71.566 14.25 71.7196 14.3112 71.8472 14.4336C71.9774 14.556 72.0425 14.7031 72.0425 14.875C72.0425 15.0469 71.9774 15.194 71.8472 15.3164C71.7196 15.4388 71.566 15.5 71.3863 15.5ZM75.9654 22.625C75.4237 22.625 74.9485 22.4961 74.5396 22.2383C74.1333 21.9805 73.8156 21.6198 73.5865 21.1562C73.3599 20.6927 73.2466 20.151 73.2466 19.5312C73.2466 18.9062 73.3599 18.3607 73.5865 17.8945C73.8156 17.4284 74.1333 17.0664 74.5396 16.8086C74.9485 16.5508 75.4237 16.4219 75.9654 16.4219C76.507 16.4219 76.981 16.5508 77.3873 16.8086C77.7961 17.0664 78.1138 17.4284 78.3404 17.8945C78.5695 18.3607 78.6841 18.9062 78.6841 19.5312C78.6841 20.151 78.5695 20.6927 78.3404 21.1562C78.1138 21.6198 77.7961 21.9805 77.3873 22.2383C76.981 22.4961 76.507 22.625 75.9654 22.625ZM75.9654 21.7969C76.3768 21.7969 76.7154 21.6914 76.981 21.4805C77.2466 21.2695 77.4432 20.9922 77.5708 20.6484C77.6985 20.3047 77.7623 19.9323 77.7623 19.5312C77.7623 19.1302 77.6985 18.7565 77.5708 18.4102C77.4432 18.0638 77.2466 17.7839 76.981 17.5703C76.7154 17.3568 76.3768 17.25 75.9654 17.25C75.5539 17.25 75.2154 17.3568 74.9498 17.5703C74.6841 17.7839 74.4875 18.0638 74.3599 18.4102C74.2323 18.7565 74.1685 19.1302 74.1685 19.5312C74.1685 19.9323 74.2323 20.3047 74.3599 20.6484C74.4875 20.9922 74.6841 21.2695 74.9498 21.4805C75.2154 21.6914 75.5539 21.7969 75.9654 21.7969ZM81.0132 18.8906V22.5H80.0914V16.5H80.982V17.4375H81.0601C81.2007 17.1328 81.4143 16.888 81.7007 16.7031C81.9872 16.5156 82.357 16.4219 82.8101 16.4219C83.2164 16.4219 83.5718 16.5052 83.8765 16.6719C84.1812 16.8359 84.4182 17.0859 84.5874 17.4219C84.7567 17.7552 84.8414 18.1771 84.8414 18.6875V22.5H83.9195V18.75C83.9195 18.2786 83.7971 17.9115 83.5523 17.6484C83.3075 17.3828 82.9716 17.25 82.5445 17.25C82.2502 17.25 81.9872 17.3138 81.7554 17.4414C81.5263 17.569 81.3453 17.7552 81.2124 18C81.0796 18.2448 81.0132 18.5417 81.0132 18.8906ZM92.4165 14.5V22.5H91.4478V15.5156H91.4009L89.4478 16.8125V15.8281L91.4478 14.5H92.4165Z" fill="white"/>
</svg>
