<svg width="251" height="502" viewBox="0 0 251 502" fill="none" xmlns="http://www.w3.org/2000/svg">
<path d="M124.723 452.5C122.82 430.803 106.878 405.313 98.7198 408.119C95.374 408.849 95.0601 407.16 95.1508 403.272C95.04 397.259 94.7597 395.962 92.3465 394.09C83.0349 394.708 78.6215 393.698 74.7564 385.163V375.215L58.9507 343.587V334.915L63.7944 329.558V324.712C60.7542 324.151 58.8935 324.193 55.3817 324.712C54.0625 324.316 53.4382 323.454 52.8324 319.101L53.3422 302.011L40.5957 272.169C43.9825 268.926 40.1242 259.454 40.5957 256.1C42.4646 253.528 42.345 250.12 41.8704 243.601C40.1989 237.553 40.858 234.068 43.145 227.787L48.7535 218.35V213.249L51.3028 208.657V196.924M194.828 134.688L206.555 62.2497L121.154 41.0793C114.981 37.8679 116.547 48.1752 119.879 67.8612C114.869 69.9054 112.174 71.1341 117.33 80.6144C110.877 90.3646 107.442 90.5794 101.524 84.9506C100.948 73.5657 102.736 69.4226 110.701 67.096C114.931 66.02 114.636 64.5878 110.701 60.9744C97.3036 55.5337 91.5416 52.3375 86.7381 46.1806C82.1629 48.9047 80.7434 50.6 81.3845 54.0876C87.3381 67.557 86.4998 82.3245 82.5418 99.7444M194.828 134.688C180.33 129.725 171.998 126.487 159.393 125.761H135.685L118.604 120.15C98.1329 125.337 94.7743 122.241 98.9747 109.182C99.8758 106.675 98.1555 105.906 93.1113 105.101C87.7416 100.542 85.5301 99.5736 82.5418 99.7444M194.828 134.688C200.49 138.922 202.446 141.371 198.907 146.166L184.631 168.357C182.373 171.138 181.938 172.835 186.671 176.774C186.438 195.16 184.219 205.74 175.454 225.237L51.3028 196.924M82.5418 99.7444C78.858 115.958 72.4717 134.468 66.3437 156.369C56.5615 165.815 52.2172 170.913 51.3028 178.815V196.924" stroke="white"/>
<path d="M125.644 214.5L107.555 287.061L184.497 399.48C190.604 410.499 192.517 414.988 191.121 417.62C191.149 424.039 190.663 426.818 187.555 428.096C180.276 435.646 177.996 441.504 181.185 458.5" stroke="white"/>
<path d="M152.992 49.1883C151.203 56.3434 140.401 66.3078 143.577 67.7747C146.987 68.7893 148.002 70.886 145.889 81.3101C145.283 84.1488 146.563 84.5834 133.772 96.1268C129.671 101.584 133.297 105.147 129.602 110.937C125.907 116.727 120.883 120.137 120.412 124.693C117.582 151.093 114.12 166.359 93.0779 197.268C87.5582 204.267 81.9931 205.637 67.1512 203.001C66.7757 205.591 65.1221 220.484 70.0985 226.054C79.7147 237.431 81.4083 229.794 88.508 233.654C99.599 242.316 88.2125 258.538 95.6509 272.144C103.089 285.75 110.134 307.06 118.914 331.773C122.207 341.112 127.467 351.106 129.407 374.915C130.462 385.067 127.139 390.464 123.149 392.688C119.158 394.911 118.074 395.104 118.136 399.884C117.724 407.499 132.216 413.943 137.179 415.52C142.143 417.097 143.036 417.207 145.129 419.321C147.223 421.434 147.48 422.132 148.481 425.663C149.482 429.195 149.113 431.374 149.121 440.892C149.129 450.411 151.203 449.872 153.503 451.15C155.803 452.428 158.639 453.309 158.358 456.005" stroke="#D5D5D5" stroke-width="9"/>
<path d="M124.555 452.5L180.555 458.5" stroke="white"/>
<rect x="40.5551" y="4.5" width="59.375" height="30" rx="3" fill="#444444"/>
<rect x="41.0551" y="5" width="58.375" height="29" rx="2.5" stroke="white" stroke-opacity="0.0980392"/>
<path d="M51.8989 16.5C51.852 16.1042 51.6619 15.7969 51.3286 15.5781C50.9952 15.3594 50.5864 15.25 50.102 15.25C49.7478 15.25 49.4379 15.3073 49.1723 15.4219C48.9093 15.5365 48.7036 15.694 48.5551 15.8945C48.4093 16.0951 48.3364 16.3229 48.3364 16.5781C48.3364 16.7917 48.3871 16.9753 48.4887 17.1289C48.5929 17.2799 48.7257 17.4062 48.8871 17.5078C49.0486 17.6068 49.2179 17.6888 49.395 17.7539C49.572 17.8164 49.7348 17.8672 49.8832 17.9062L50.6957 18.125C50.9041 18.1797 51.1358 18.2552 51.3911 18.3516C51.6489 18.4479 51.895 18.5794 52.1293 18.7461C52.3663 18.9102 52.5616 19.1211 52.7153 19.3789C52.8689 19.6367 52.9457 19.9531 52.9457 20.3281C52.9457 20.7604 52.8325 21.151 52.6059 21.5C52.3819 21.849 52.0538 22.1263 51.6215 22.332C51.1918 22.5378 50.6697 22.6406 50.0551 22.6406C49.4822 22.6406 48.9861 22.5482 48.5668 22.3633C48.1502 22.1784 47.822 21.9206 47.5825 21.5898C47.3455 21.2591 47.2114 20.875 47.1801 20.4375H48.1801C48.2062 20.7396 48.3077 20.9896 48.4848 21.1875C48.6645 21.3828 48.8911 21.5286 49.1645 21.625C49.4405 21.7187 49.7374 21.7656 50.0551 21.7656C50.4249 21.7656 50.7569 21.7057 51.0512 21.5859C51.3455 21.4635 51.5786 21.2943 51.7504 21.0781C51.9223 20.8594 52.0082 20.6042 52.0082 20.3125C52.0082 20.0469 51.934 19.8307 51.7856 19.6641C51.6371 19.4974 51.4418 19.362 51.1996 19.2578C50.9575 19.1536 50.6957 19.0625 50.4145 18.9844L49.4301 18.7031C48.8051 18.5234 48.3103 18.2669 47.9457 17.9336C47.5812 17.6003 47.3989 17.1641 47.3989 16.625C47.3989 16.1771 47.52 15.7865 47.7621 15.4531C48.0069 15.1172 48.3351 14.8568 48.7465 14.6719C49.1606 14.4844 49.6228 14.3906 50.1332 14.3906C50.6489 14.3906 51.1072 14.4831 51.5082 14.668C51.9093 14.8503 52.227 15.1003 52.4614 15.418C52.6983 15.7357 52.8233 16.0964 52.8364 16.5H51.8989ZM56.9291 22.625C56.351 22.625 55.8523 22.4974 55.433 22.2422C55.0164 21.9844 54.6948 21.625 54.4682 21.1641C54.2442 20.7005 54.1323 20.1615 54.1323 19.5469C54.1323 18.9323 54.2442 18.3906 54.4682 17.9219C54.6948 17.4505 55.0099 17.0833 55.4135 16.8203C55.8198 16.5547 56.2937 16.4219 56.8354 16.4219C57.1479 16.4219 57.4565 16.474 57.7612 16.5781C58.0659 16.6823 58.3432 16.8516 58.5932 17.0859C58.8432 17.3177 59.0424 17.625 59.1909 18.0078C59.3393 18.3906 59.4135 18.862 59.4135 19.4219V19.8125H54.7885V19.0156H58.476C58.476 18.6771 58.4083 18.375 58.2729 18.1094C58.1401 17.8437 57.95 17.6341 57.7026 17.4805C57.4578 17.3268 57.1687 17.25 56.8354 17.25C56.4682 17.25 56.1505 17.3411 55.8823 17.5234C55.6166 17.7031 55.4122 17.9375 55.269 18.2266C55.1258 18.5156 55.0541 18.8255 55.0541 19.1562V19.6875C55.0541 20.1406 55.1323 20.5247 55.2885 20.8398C55.4474 21.1523 55.6674 21.3906 55.9487 21.5547C56.2299 21.7161 56.5567 21.7969 56.9291 21.7969C57.1713 21.7969 57.3901 21.763 57.5854 21.6953C57.7833 21.625 57.9539 21.5208 58.0971 21.3828C58.2403 21.2422 58.351 21.0677 58.4291 20.8594L59.3198 21.1094C59.226 21.4115 59.0685 21.6771 58.8471 21.9062C58.6258 22.1328 58.3523 22.3099 58.0268 22.4375C57.7013 22.5625 57.3354 22.625 56.9291 22.625ZM63.2534 22.625C62.6909 22.625 62.2065 22.4922 61.8002 22.2266C61.394 21.9609 61.0815 21.5951 60.8627 21.1289C60.644 20.6628 60.5346 20.1302 60.5346 19.5312C60.5346 18.9219 60.6466 18.3841 60.8705 17.918C61.0971 17.4492 61.4122 17.0833 61.8159 16.8203C62.2221 16.5547 62.6961 16.4219 63.2377 16.4219C63.6596 16.4219 64.0398 16.5 64.3784 16.6562C64.7169 16.8125 64.9942 17.0312 65.2104 17.3125C65.4265 17.5937 65.5606 17.9219 65.6127 18.2969H64.6909C64.6205 18.0234 64.4643 17.7812 64.2221 17.5703C63.9825 17.3568 63.6596 17.25 63.2534 17.25C62.894 17.25 62.5789 17.3437 62.308 17.5312C62.0398 17.7161 61.8302 17.9779 61.6791 18.3164C61.5307 18.6523 61.4565 19.0469 61.4565 19.5C61.4565 19.9635 61.5294 20.3672 61.6752 20.7109C61.8237 21.0547 62.032 21.3216 62.3002 21.5117C62.5711 21.7018 62.8888 21.7969 63.2534 21.7969C63.4929 21.7969 63.7104 21.7552 63.9057 21.6719C64.101 21.5885 64.2664 21.4688 64.4018 21.3125C64.5372 21.1562 64.6336 20.9687 64.6909 20.75H65.6127C65.5606 21.1042 65.4317 21.4232 65.226 21.707C65.0229 21.9883 64.7534 22.2122 64.4174 22.3789C64.0841 22.543 63.6961 22.625 63.2534 22.625ZM69.5698 16.5V17.2812H66.4604V16.5H69.5698ZM67.3666 15.0625H68.2885V20.7812C68.2885 21.0417 68.3263 21.237 68.4018 21.3672C68.4799 21.4948 68.5789 21.5807 68.6987 21.625C68.8211 21.6667 68.95 21.6875 69.0854 21.6875C69.187 21.6875 69.2703 21.6823 69.3354 21.6719C69.4005 21.6589 69.4526 21.6484 69.4916 21.6406L69.6791 22.4687C69.6166 22.4922 69.5294 22.5156 69.4174 22.5391C69.3054 22.5651 69.1635 22.5781 68.9916 22.5781C68.7312 22.5781 68.476 22.5221 68.226 22.4102C67.9786 22.2982 67.7729 22.1276 67.6088 21.8984C67.4474 21.6693 67.3666 21.3802 67.3666 21.0312V15.0625ZM70.9565 22.5V16.5H71.8784V22.5H70.9565ZM71.4252 15.5C71.2455 15.5 71.0906 15.4388 70.9604 15.3164C70.8328 15.194 70.769 15.0469 70.769 14.875C70.769 14.7031 70.8328 14.556 70.9604 14.4336C71.0906 14.3112 71.2455 14.25 71.4252 14.25C71.6049 14.25 71.7586 14.3112 71.8862 14.4336C72.0164 14.556 72.0815 14.7031 72.0815 14.875C72.0815 15.0469 72.0164 15.194 71.8862 15.3164C71.7586 15.4388 71.6049 15.5 71.4252 15.5ZM76.0043 22.625C75.4627 22.625 74.9874 22.4961 74.5786 22.2383C74.1723 21.9805 73.8546 21.6198 73.6254 21.1562C73.3989 20.6927 73.2856 20.151 73.2856 19.5312C73.2856 18.9062 73.3989 18.3607 73.6254 17.8945C73.8546 17.4284 74.1723 17.0664 74.5786 16.8086C74.9874 16.5508 75.4627 16.4219 76.0043 16.4219C76.546 16.4219 77.02 16.5508 77.4262 16.8086C77.8351 17.0664 78.1528 17.4284 78.3793 17.8945C78.6085 18.3607 78.7231 18.9062 78.7231 19.5312C78.7231 20.151 78.6085 20.6927 78.3793 21.1562C78.1528 21.6198 77.8351 21.9805 77.4262 22.2383C77.02 22.4961 76.546 22.625 76.0043 22.625ZM76.0043 21.7969C76.4158 21.7969 76.7543 21.6914 77.02 21.4805C77.2856 21.2695 77.4822 20.9922 77.6098 20.6484C77.7374 20.3047 77.8012 19.9323 77.8012 19.5312C77.8012 19.1302 77.7374 18.7565 77.6098 18.4102C77.4822 18.0638 77.2856 17.7839 77.02 17.5703C76.7543 17.3568 76.4158 17.25 76.0043 17.25C75.5929 17.25 75.2543 17.3568 74.9887 17.5703C74.7231 17.7839 74.5265 18.0638 74.3989 18.4102C74.2713 18.7565 74.2075 19.1302 74.2075 19.5312C74.2075 19.9323 74.2713 20.3047 74.3989 20.6484C74.5265 20.9922 74.7231 21.2695 74.9887 21.4805C75.2543 21.6914 75.5929 21.7969 76.0043 21.7969ZM81.0522 18.8906V22.5H80.1303V16.5H81.0209V17.4375H81.0991C81.2397 17.1328 81.4532 16.888 81.7397 16.7031C82.0261 16.5156 82.3959 16.4219 82.8491 16.4219C83.2553 16.4219 83.6108 16.5052 83.9155 16.6719C84.2202 16.8359 84.4571 17.0859 84.6264 17.4219C84.7957 17.7552 84.8803 18.1771 84.8803 18.6875V22.5H83.9584V18.75C83.9584 18.2786 83.836 17.9115 83.5912 17.6484C83.3465 17.3828 83.0105 17.25 82.5834 17.25C82.2892 17.25 82.0261 17.3138 81.7944 17.4414C81.5652 17.569 81.3842 17.7552 81.2514 18C81.1186 18.2448 81.0522 18.5417 81.0522 18.8906ZM92.4555 14.5V22.5H91.4868V15.5156H91.4399L89.4868 16.8125V15.8281L91.4868 14.5H92.4555Z" fill="white"/>
</svg>
