<svg width="200" height="200" viewBox="0 0 200 200" fill="none" xmlns="http://www.w3.org/2000/svg">
<path d="M83.1478 133.693H82.4873C82.4802 133.445 82.4305 133.215 82.3382 133.004C82.2458 132.791 82.1168 132.605 81.9511 132.447C81.7854 132.288 81.5877 132.165 81.358 132.077C81.1308 131.99 80.8763 131.946 80.5945 131.946C80.1305 131.946 79.6866 132.068 79.2629 132.312C78.8391 132.553 78.4745 132.908 78.1691 133.377C77.8637 133.846 77.6554 134.419 77.5441 135.096C77.4329 135.763 77.4506 136.326 77.5974 136.783C77.7442 137.237 77.9845 137.582 78.3183 137.816C78.6544 138.05 79.0486 138.168 79.5008 138.168C79.7896 138.168 80.0666 138.124 80.3318 138.036C80.5969 137.949 80.8408 137.827 81.0633 137.67C81.2858 137.512 81.4811 137.326 81.6492 137.113C81.8173 136.9 81.9475 136.669 82.0399 136.42H82.7075C82.5915 136.754 82.4293 137.066 82.221 137.354C82.0126 137.641 81.7664 137.892 81.4823 138.107C81.2006 138.323 80.8893 138.491 80.5484 138.611C80.2098 138.732 79.85 138.793 79.4688 138.793C78.8486 138.793 78.3242 138.637 77.8957 138.327C77.4695 138.017 77.1665 137.58 76.9866 137.017C76.809 136.451 76.7842 135.785 76.912 135.018C77.0375 134.265 77.2778 133.611 77.6329 133.057C77.9904 132.503 78.4284 132.076 78.9468 131.776C79.4653 131.472 80.0287 131.321 80.6372 131.321C81.0254 131.321 81.3734 131.381 81.6812 131.502C81.989 131.62 82.2506 131.789 82.466 132.006C82.6838 132.222 82.8507 132.473 82.9667 132.759C83.0827 133.046 83.1431 133.357 83.1478 133.693ZM90.4463 135.096C90.3208 135.846 90.0793 136.499 89.7219 137.052C89.3644 137.606 88.9276 138.035 88.4115 138.338C87.8954 138.641 87.3343 138.793 86.7282 138.793C86.1056 138.793 85.58 138.637 85.1515 138.327C84.7254 138.015 84.4236 137.577 84.246 137.013C84.0684 136.448 84.0424 135.782 84.1679 135.018C84.2934 134.267 84.5348 133.615 84.8923 133.061C85.2498 132.507 85.6878 132.079 86.2062 131.776C86.7247 131.472 87.2881 131.321 87.8966 131.321C88.5121 131.321 89.0329 131.476 89.4591 131.786C89.8852 132.096 90.1882 132.534 90.3682 133.1C90.5481 133.664 90.5741 134.329 90.4463 135.096ZM89.8106 135.018C89.9195 134.369 89.9053 133.816 89.768 133.359C89.6331 132.902 89.4011 132.553 89.072 132.312C88.7429 132.068 88.344 131.946 87.8753 131.946C87.3899 131.946 86.9342 132.071 86.5081 132.322C86.0819 132.571 85.7185 132.931 85.4179 133.402C85.1172 133.871 84.9113 134.435 84.8 135.096C84.6934 135.742 84.7077 136.295 84.8426 136.754C84.9775 137.211 85.2095 137.561 85.5386 137.805C85.8701 138.047 86.2713 138.168 86.7425 138.168C87.2301 138.168 87.6871 138.042 88.1132 137.791C88.5393 137.54 88.9015 137.18 89.1998 136.712C89.5005 136.24 89.7041 135.676 89.8106 135.018ZM91.4557 138.693L92.6631 131.42H93.3271L92.2192 138.097H95.6851L95.5857 138.693H91.4557ZM103.356 135.096C103.231 135.846 102.989 136.499 102.632 137.052C102.275 137.606 101.838 138.035 101.322 138.338C100.806 138.641 100.244 138.793 99.6384 138.793C99.0158 138.793 98.4902 138.637 98.0617 138.327C97.6356 138.015 97.3337 137.577 97.1562 137.013C96.9786 136.448 96.9526 135.782 97.078 135.018C97.2035 134.267 97.445 133.615 97.8025 133.061C98.1599 132.507 98.5979 132.079 99.1164 131.776C99.6349 131.472 100.198 131.321 100.807 131.321C101.422 131.321 101.943 131.476 102.369 131.786C102.795 132.096 103.098 132.534 103.278 133.1C103.458 133.664 103.484 134.329 103.356 135.096ZM102.721 135.018C102.83 134.369 102.815 133.816 102.678 133.359C102.543 132.902 102.311 132.553 101.982 132.312C101.653 132.068 101.254 131.946 100.785 131.946C100.3 131.946 99.8444 132.071 99.4182 132.322C98.9921 132.571 98.6287 132.931 98.328 133.402C98.0274 133.871 97.8214 134.435 97.7101 135.096C97.6036 135.742 97.6178 136.295 97.7528 136.754C97.8877 137.211 98.1197 137.561 98.4488 137.805C98.7802 138.047 99.1815 138.168 99.6526 138.168C100.14 138.168 100.597 138.042 101.023 137.791C101.449 137.54 101.812 137.18 102.11 136.712C102.411 136.24 102.614 135.676 102.721 135.018ZM104.366 138.693L105.573 131.42H107.921C108.437 131.42 108.852 131.513 109.167 131.697C109.484 131.882 109.703 132.139 109.824 132.468C109.947 132.795 109.974 133.171 109.906 133.597C109.835 134.019 109.683 134.392 109.451 134.716C109.221 135.04 108.918 135.295 108.542 135.479C108.166 135.662 107.722 135.753 107.21 135.753H105.215L105.318 135.146H107.296C107.677 135.146 108.003 135.083 108.276 134.957C108.548 134.832 108.766 134.653 108.929 134.421C109.092 134.189 109.2 133.914 109.252 133.597C109.304 133.278 109.287 132.999 109.199 132.763C109.114 132.526 108.955 132.342 108.723 132.212C108.493 132.082 108.187 132.017 107.803 132.017H106.138L105.03 138.693H104.366ZM108.116 135.412L109.362 138.693H108.599L107.374 135.412H108.116ZM110.685 138.693H109.989L113.842 131.42H114.552L115.991 138.693H115.294L114.084 132.283H114.037L110.685 138.693ZM111.651 135.905H115.259L115.16 136.502H111.552L111.651 135.905ZM119.385 138.693H117.237L118.444 131.42H120.685C121.376 131.42 121.947 131.567 122.397 131.861C122.847 132.154 123.159 132.575 123.334 133.121C123.509 133.666 123.533 134.317 123.405 135.075C123.28 135.832 123.04 136.481 122.684 137.021C122.329 137.56 121.872 137.975 121.314 138.263C120.757 138.55 120.115 138.693 119.385 138.693ZM118 138.097H119.421C120.041 138.097 120.583 137.971 121.047 137.72C121.511 137.469 121.889 137.113 122.18 136.651C122.471 136.187 122.669 135.637 122.773 135C122.877 134.375 122.866 133.84 122.738 133.395C122.612 132.95 122.37 132.609 122.01 132.372C121.652 132.135 121.178 132.017 120.586 132.017H119.005L118 138.097ZM130.974 135.096C130.848 135.846 130.607 136.499 130.249 137.052C129.892 137.606 129.455 138.035 128.939 138.338C128.423 138.641 127.862 138.793 127.256 138.793C126.633 138.793 126.107 138.637 125.679 138.327C125.253 138.015 124.951 137.577 124.773 137.013C124.596 136.448 124.57 135.782 124.695 135.018C124.821 134.267 125.062 133.615 125.42 133.061C125.777 132.507 126.215 132.079 126.734 131.776C127.252 131.472 127.815 131.321 128.424 131.321C129.039 131.321 129.56 131.476 129.986 131.786C130.413 132.096 130.716 132.534 130.896 133.1C131.075 133.664 131.101 134.329 130.974 135.096ZM130.338 135.018C130.447 134.369 130.433 133.816 130.295 133.359C130.16 132.902 129.928 132.553 129.599 132.312C129.27 132.068 128.871 131.946 128.403 131.946C127.917 131.946 127.462 132.071 127.035 132.322C126.609 132.571 126.246 132.931 125.945 133.402C125.645 133.871 125.439 134.435 125.327 135.096C125.221 135.742 125.235 136.295 125.37 136.754C125.505 137.211 125.737 137.561 126.066 137.805C126.397 138.047 126.799 138.168 127.27 138.168C127.757 138.168 128.214 138.042 128.641 137.791C129.067 137.54 129.429 137.18 129.727 136.712C130.028 136.24 130.231 135.676 130.338 135.018Z" fill="white"/>
</svg>
