<svg width="150" height="200" viewBox="0 0 150 200" fill="none" xmlns="http://www.w3.org/2000/svg">
<path d="M42.4959 170.597H41.7999L45.6529 163.324H46.3631L47.8013 170.597H47.1053L45.8943 164.187H45.8482L42.4959 170.597ZM43.4618 167.809H47.0698L46.9703 168.406H43.3624L43.4618 167.809ZM48.7601 170.597L48.8489 170.096L53.9021 163.921H49.8538L49.9462 163.324H54.797L54.7189 163.825L49.655 170H53.7246L53.6252 170.597H48.7601Z" fill="white"/>
<path d="M96.3276 162.824L95.1203 170.097H94.4739L91.1891 164.007H91.1323L90.1203 170.097H89.4562L90.6636 162.824H91.3063L94.6018 168.922H94.6586L95.6742 162.824H96.3276ZM98.2612 162.824H99.0283L100.619 169.16H100.687L104.369 162.824H105.136L103.929 170.097H103.304L104.284 164.227H104.227L100.793 170.097H100.189L98.7158 164.227H98.659L97.6788 170.097H97.0538L98.2612 162.824Z" fill="white"/>
<path d="M47.3809 107.629H48.2615L47.4661 112.444C47.3832 112.941 47.1926 113.385 46.8944 113.776C46.5961 114.164 46.2161 114.47 45.7544 114.695C45.2928 114.918 44.7767 115.029 44.2061 115.029C43.6356 115.029 43.1574 114.918 42.7715 114.695C42.3856 114.47 42.1086 114.164 41.9405 113.776C41.7724 113.385 41.7298 112.941 41.8127 112.444L42.6081 107.629H43.4888L42.7005 112.373C42.6436 112.728 42.6709 113.044 42.7821 113.321C42.8934 113.596 43.0804 113.812 43.3432 113.971C43.6084 114.127 43.9434 114.205 44.3482 114.205C44.753 114.205 45.1141 114.127 45.4313 113.971C45.7485 113.812 46.0066 113.596 46.2054 113.321C46.4067 113.044 46.5357 112.728 46.5925 112.373L47.3809 107.629ZM49.4947 108.41L49.6225 107.629H55.0771L54.9492 108.41H52.6623L51.5827 114.901H50.7021L51.7816 108.41H49.4947Z" fill="white"/>
<path d="M98.2959 112.149H97.4294C97.4199 111.896 97.3678 111.673 97.2731 111.481C97.1785 111.29 97.0506 111.129 96.8896 110.998C96.731 110.866 96.5487 110.766 96.3428 110.7C96.1368 110.634 95.9166 110.601 95.6822 110.601C95.2324 110.601 94.8063 110.715 94.4038 110.945C94.0014 111.172 93.6569 111.507 93.3705 111.95C93.084 112.39 92.8887 112.93 92.7845 113.569C92.6803 114.19 92.6957 114.712 92.8307 115.135C92.9656 115.559 93.1893 115.88 93.5018 116.098C93.8143 116.316 94.186 116.424 94.6169 116.424C94.8655 116.424 95.1093 116.391 95.3484 116.325C95.5899 116.259 95.8148 116.161 96.0231 116.03C96.2338 115.898 96.4209 115.736 96.5842 115.544C96.7499 115.35 96.8802 115.127 96.9749 114.876H97.8555C97.7253 115.248 97.549 115.581 97.3264 115.874C97.1062 116.168 96.8517 116.417 96.5629 116.623C96.2741 116.827 95.9628 116.982 95.629 117.089C95.2952 117.195 94.9483 117.248 94.5885 117.248C93.9588 117.248 93.4225 117.094 92.9798 116.787C92.5395 116.477 92.2246 116.039 92.0352 115.473C91.8482 114.905 91.8186 114.232 91.9464 113.456C92.0743 112.698 92.3193 112.045 92.6815 111.496C93.0437 110.944 93.4876 110.52 94.0132 110.224C94.5388 109.926 95.1093 109.777 95.7249 109.777C96.0942 109.777 96.4339 109.83 96.744 109.937C97.0542 110.043 97.324 110.199 97.5537 110.405C97.7833 110.609 97.9621 110.857 98.0899 111.151C98.2201 111.442 98.2888 111.775 98.2959 112.149ZM105.628 113.569C105.5 114.327 105.255 114.982 104.893 115.533C104.531 116.082 104.088 116.506 103.565 116.804C103.042 117.1 102.475 117.248 101.864 117.248C101.234 117.248 100.698 117.094 100.255 116.787C99.8149 116.477 99.5 116.039 99.3106 115.473C99.1236 114.905 99.094 114.232 99.2218 113.456C99.3497 112.698 99.5947 112.045 99.9569 111.496C100.319 110.944 100.763 110.52 101.289 110.224C101.814 109.926 102.385 109.777 103 109.777C103.625 109.777 104.157 109.932 104.595 110.242C105.035 110.55 105.349 110.988 105.536 111.556C105.725 112.122 105.756 112.793 105.628 113.569ZM104.79 113.456C104.894 112.835 104.879 112.313 104.744 111.89C104.609 111.466 104.385 111.145 104.073 110.927C103.76 110.71 103.389 110.601 102.958 110.601C102.508 110.601 102.082 110.715 101.679 110.945C101.277 111.172 100.932 111.507 100.646 111.95C100.359 112.39 100.164 112.93 100.06 113.569C99.9557 114.19 99.9711 114.712 100.106 115.135C100.241 115.559 100.465 115.88 100.777 116.098C101.09 116.316 101.461 116.424 101.892 116.424C102.342 116.424 102.768 116.311 103.171 116.084C103.573 115.854 103.918 115.519 104.204 115.079C104.491 114.636 104.686 114.095 104.79 113.456Z" fill="white"/>
<path d="M75.7297 71.6929L74.9449 64.4201H75.6196L76.2268 70.6737H76.2836L78.9719 64.4201H79.7389L80.3497 70.6737H80.4065L83.0912 64.4201H83.773L80.5734 71.6929H79.8596L79.1991 65.5245H79.153L76.4399 71.6929H75.7297ZM84.2879 64.4201H85.0443L86.6317 67.8718H86.7027L89.4264 64.4201H90.197L86.8873 68.543L86.3653 71.6929H85.7048L86.2233 68.543L84.2879 64.4201Z" fill="white"/>
<path d="M21.1213 54.6799L19.914 61.9526H19.2499L20.4573 54.6799H21.1213ZM23.996 61.9526H21.8475L23.0549 54.6799H25.2957C25.987 54.6799 26.5575 54.8267 27.0073 55.1202C27.4572 55.4138 27.7697 55.834 27.9448 56.3809C28.12 56.9254 28.1437 57.5765 28.0159 58.334C27.8904 59.0916 27.6501 59.7403 27.295 60.2801C26.9399 60.8198 26.483 61.2341 25.9243 61.5229C25.3679 61.8094 24.7251 61.9526 23.996 61.9526ZM22.611 61.356H24.0315C24.6518 61.356 25.1939 61.2306 25.6579 60.9796C26.1219 60.7287 26.4995 60.3724 26.7907 59.9107C27.0819 59.4467 27.2796 58.8963 27.3838 58.2595C27.4879 57.6345 27.4761 57.0994 27.3483 56.6543C27.2228 56.2093 26.9801 55.8684 26.6203 55.6316C26.2628 55.3949 25.7881 55.2765 25.1963 55.2765H23.616L22.611 61.356Z" fill="white"/>
<path d="M59.4331 18.9643H60.2002L61.7911 25.2996H61.8585L65.5411 18.9643H66.3081L65.1007 26.2371H64.4757L65.4558 20.367H65.399L61.9651 26.2371H61.3614L59.8877 20.367H59.8308L58.8507 26.2371H58.2257L59.4331 18.9643ZM67.7019 19.5609L67.8014 18.9643H73.0748L72.9754 19.5609H70.6707L69.5627 26.2371H68.8987L70.0066 19.5609H67.7019Z" fill="white"/>
</svg>
