<svg width="150" height="201" viewBox="0 0 150 201" fill="none" xmlns="http://www.w3.org/2000/svg">
<path d="M38.703 7.37573L39.9104 0.103005H42.3642C42.8377 0.103005 43.2189 0.185865 43.5077 0.351584C43.7965 0.517304 43.9954 0.743393 44.1043 1.02985C44.2156 1.31631 44.2392 1.64183 44.1753 2.00641C44.1256 2.30944 44.0321 2.56868 43.8948 2.78411C43.7575 2.99718 43.5906 3.17119 43.3941 3.30613C43.1999 3.43871 42.9904 3.53459 42.7655 3.59377L42.7549 3.65059C42.9869 3.66716 43.2011 3.75002 43.3976 3.89917C43.5941 4.04595 43.7409 4.25192 43.838 4.51707C43.9374 4.78222 43.9575 5.09945 43.8983 5.46877C43.8368 5.83572 43.6995 6.16361 43.4864 6.45244C43.2757 6.7389 42.9869 6.96498 42.6199 7.1307C42.2553 7.29406 41.8126 7.37573 41.2918 7.37573H38.703ZM39.4665 6.77914H41.3912C41.9523 6.77914 42.3879 6.65485 42.698 6.40627C43.0082 6.15769 43.1964 5.84519 43.2627 5.46877C43.3077 5.19178 43.2816 4.94084 43.1845 4.71593C43.0875 4.48866 42.9289 4.30873 42.7087 4.17616C42.4885 4.04358 42.2151 3.97729 41.8884 3.97729H39.9353L39.4665 6.77914ZM40.0347 3.38781H41.8848C42.1713 3.38781 42.4317 3.32862 42.6661 3.21025C42.9005 3.09188 43.0946 2.92853 43.2485 2.72019C43.4024 2.51186 43.5006 2.27393 43.5432 2.00641C43.6095 1.62052 43.5373 1.30684 43.3266 1.06536C43.1183 0.821518 42.7643 0.699596 42.2648 0.699596H40.475L40.0347 3.38781ZM45.1883 7.37573H44.4923L48.3452 0.103005H49.0555L50.4937 7.37573H49.7977L48.5867 0.965931H48.5405L45.1883 7.37573ZM46.1542 4.58809H49.7621L49.6627 5.18468H46.0548L46.1542 4.58809ZM56.5874 1.96025C56.604 1.53411 56.4773 1.20031 56.2075 0.958829C55.9399 0.717352 55.5647 0.596613 55.0817 0.596613C54.7456 0.596613 54.4378 0.655799 54.1584 0.77417C53.8815 0.890174 53.653 1.04997 53.4731 1.25357C53.2955 1.45717 53.1854 1.68918 53.1428 1.9496C53.112 2.14136 53.1263 2.30944 53.1854 2.45386C53.2446 2.5959 53.3358 2.71901 53.4589 2.82318C53.582 2.92734 53.7228 3.01612 53.8815 3.08951C54.0424 3.1629 54.2058 3.22445 54.3715 3.27417L55.1066 3.49434C55.3244 3.55826 55.541 3.63994 55.7565 3.73937C55.9719 3.8388 56.1637 3.96309 56.3317 4.11224C56.4998 4.26139 56.6241 4.44486 56.7046 4.66266C56.7875 4.88047 56.804 5.14088 56.7543 5.44391C56.688 5.83691 56.5294 6.18847 56.2785 6.4986C56.0299 6.80637 55.7032 7.05021 55.2984 7.23014C54.8935 7.41006 54.426 7.50002 53.8957 7.50002C53.4009 7.50002 52.9842 7.41835 52.6457 7.25499C52.3071 7.08927 52.0574 6.86082 51.8964 6.56962C51.7354 6.27843 51.6738 5.94107 51.7117 5.55755H52.3935C52.3675 5.84401 52.4208 6.08667 52.5533 6.28553C52.6883 6.4844 52.88 6.63591 53.1286 6.74008C53.3796 6.84188 53.6684 6.89278 53.9951 6.89278C54.3573 6.89278 54.6899 6.83241 54.993 6.71167C55.296 6.58856 55.5458 6.41811 55.7423 6.20031C55.9411 5.98014 56.0642 5.72445 56.1116 5.43326C56.1542 5.18705 56.1246 4.9799 56.0228 4.81181C55.9234 4.64372 55.7683 4.50286 55.5576 4.38923C55.3493 4.27322 55.1007 4.17142 54.8119 4.08383L53.9809 3.82815C53.4388 3.66243 53.0351 3.42924 52.77 3.12857C52.5072 2.82791 52.4137 2.44439 52.4894 1.978C52.5557 1.58501 52.7179 1.24055 52.9759 0.944624C53.2363 0.646329 53.5595 0.414321 53.9454 0.248602C54.3313 0.0828818 54.7479 2.18153e-05 55.1954 2.18153e-05C55.6476 2.18153e-05 56.0323 0.0840654 56.3495 0.252152C56.6691 0.42024 56.9058 0.652247 57.0597 0.948176C57.216 1.24174 57.274 1.57909 57.2337 1.96025H56.5874ZM58.0292 7.37573L59.2366 0.103005H63.4553L63.3559 0.699596H59.8012L59.3467 3.43752H62.6776L62.5782 4.03411H59.2472L58.7927 6.77914H62.4184L62.319 7.37573H58.0292ZM73.2955 2.37573H72.635C72.6279 2.12715 72.5782 1.89751 72.4859 1.68681C72.3935 1.47374 72.2645 1.2879 72.0988 1.12928C71.9331 0.970666 71.7354 0.84756 71.5057 0.759965C71.2785 0.67237 71.024 0.628573 70.7423 0.628573C70.2782 0.628573 69.8343 0.750495 69.4106 0.99434C68.9868 1.23582 68.6222 1.59093 68.3168 2.05968C68.0114 2.52843 67.8031 3.10135 67.6918 3.77843C67.5806 4.44604 67.5983 5.00831 67.7451 5.46522C67.8919 5.91977 68.1322 6.26423 68.466 6.4986C68.8022 6.73298 69.1963 6.85016 69.6485 6.85016C69.9373 6.85016 70.2143 6.80637 70.4795 6.71877C70.7446 6.63118 70.9885 6.50926 71.211 6.35301C71.4335 6.19439 71.6289 6.00854 71.7969 5.79548C71.965 5.58241 72.0952 5.35158 72.1876 5.10301H72.8552C72.7392 5.43681 72.577 5.74813 72.3687 6.03695C72.1603 6.32341 71.9141 6.57436 71.63 6.78979C71.3483 7.00523 71.037 7.17332 70.6961 7.29406C70.3575 7.41479 69.9977 7.47516 69.6165 7.47516C68.9963 7.47516 68.4719 7.3201 68.0434 7.00997C67.6173 6.69983 67.3142 6.26304 67.1343 5.6996C66.9567 5.13378 66.9319 4.46735 67.0597 3.70031C67.1852 2.94747 67.4255 2.29406 67.7806 1.74008C68.1381 1.1861 68.5761 0.758782 69.0945 0.458119C69.613 0.155088 70.1764 0.00357306 70.7849 0.00357306C71.1731 0.00357306 71.5211 0.0639424 71.8289 0.184681C72.1367 0.303052 72.3983 0.47114 72.6137 0.688942C72.8315 0.904378 72.9984 1.15533 73.1144 1.44178C73.2304 1.72824 73.2908 2.03956 73.2955 2.37573ZM74.0457 7.37573H73.3497L77.2027 0.103005H77.9129L79.3511 7.37573H78.6551L77.4441 0.965931H77.398L74.0457 7.37573ZM75.0116 4.58809H78.6196L78.5201 5.18468H74.9122L75.0116 4.58809ZM81.8049 0.103005H82.572L84.1629 6.43823H84.2304L87.9129 0.103005H88.6799L87.4725 7.37573H86.8475L87.8277 1.5057H87.7708L84.3369 7.37573H83.7332L82.2595 1.5057H82.2027L81.2225 7.37573H80.5975L81.8049 0.103005ZM89.4061 7.37573L90.6135 0.103005H92.9608C93.4769 0.103005 93.8924 0.201253 94.2073 0.397749C94.5221 0.594246 94.7388 0.861765 94.8571 1.20031C94.9779 1.53885 95.0027 1.92119 94.9317 2.34732C94.8631 2.76872 94.7115 3.14988 94.4772 3.49079C94.2452 3.82933 93.9386 4.09803 93.5574 4.2969C93.1786 4.49576 92.7336 4.59519 92.2222 4.59519H90.3756L90.475 3.9986H92.3039C92.685 3.9986 93.0129 3.92758 93.2875 3.78553C93.5645 3.64112 93.7859 3.44462 93.9516 3.19604C94.1173 2.9451 94.2262 2.66219 94.2783 2.34732C94.3304 2.02772 94.3138 1.74363 94.2286 1.49505C94.1457 1.24647 93.9895 1.05234 93.7598 0.912664C93.5326 0.770618 93.2272 0.699596 92.8436 0.699596H91.1782L90.0702 7.37573H89.4061Z" fill="white"/>
<path d="M54.9744 15.4553C54.6506 15.4553 54.3712 15.3899 54.1364 15.2593C53.9034 15.1267 53.7301 14.9449 53.6165 14.7138C53.5047 14.4827 53.4688 14.2185 53.5085 13.9212H54.0227C53.9905 14.228 54.0691 14.4808 54.2585 14.6797C54.4479 14.8786 54.7093 14.978 55.0426 14.978C55.3021 14.978 55.5436 14.9155 55.767 14.7905C55.9924 14.6655 56.1818 14.4951 56.3352 14.2791C56.4886 14.0632 56.5881 13.8189 56.6335 13.5462C56.679 13.2621 56.6591 13.0111 56.5739 12.7933C56.4905 12.5755 56.3561 12.406 56.1705 12.2848C55.9848 12.1617 55.7623 12.1002 55.5028 12.1002C55.3097 12.1002 55.1117 12.1333 54.9091 12.1996C54.7083 12.2659 54.5369 12.3502 54.3949 12.4524L53.875 12.3843L54.6932 9.55755H57.5682L57.4886 10.0348H55.0597L54.5028 11.9808H54.5341C54.6818 11.871 54.8523 11.7829 55.0455 11.7166C55.2405 11.6485 55.4441 11.6144 55.6562 11.6144C55.9972 11.6144 56.2907 11.6968 56.5369 11.8615C56.785 12.0263 56.965 12.2536 57.0767 12.5433C57.1884 12.8312 57.2121 13.1627 57.1477 13.5377C57.0871 13.9051 56.9527 14.2337 56.7443 14.5235C56.5379 14.8113 56.2803 15.0386 55.9716 15.2053C55.6648 15.3719 55.3324 15.4553 54.9744 15.4553ZM59.9503 15.4553C59.5904 15.4553 59.2779 15.3909 59.0128 15.2621C58.7476 15.1314 58.5507 14.9515 58.4219 14.7223C58.2931 14.4913 58.2495 14.2242 58.2912 13.9212H58.8224C58.7978 14.1314 58.8291 14.3161 58.9162 14.4752C59.0033 14.6343 59.1359 14.7583 59.3139 14.8473C59.4938 14.9344 59.7088 14.978 59.9588 14.978C60.224 14.978 60.4711 14.9288 60.7003 14.8303C60.9295 14.7299 61.1207 14.5907 61.2741 14.4127C61.4295 14.2327 61.5251 14.0244 61.5611 13.7877C61.5971 13.5604 61.5705 13.3596 61.4815 13.1854C61.3944 13.0093 61.2495 12.8719 61.0469 12.7735C60.8442 12.675 60.5885 12.6257 60.2798 12.6257H59.9332L60.0071 12.1485H60.3338C60.5857 12.1485 60.8177 12.1021 61.0298 12.0093C61.242 11.9146 61.419 11.782 61.5611 11.6115C61.7031 11.4392 61.7931 11.2365 61.831 11.0036C61.8651 10.7952 61.8499 10.6125 61.7855 10.4553C61.723 10.2962 61.6151 10.1721 61.4616 10.0831C61.3082 9.99221 61.1141 9.94675 60.8793 9.94675C60.6539 9.94675 60.4361 9.99032 60.2259 10.0774C60.0156 10.1646 59.8376 10.2877 59.6918 10.4468C59.5459 10.6058 59.4541 10.7943 59.4162 11.0121H58.902C58.9569 10.711 59.0819 10.4449 59.277 10.2138C59.4721 9.98274 59.7107 9.80282 59.9929 9.67403C60.2751 9.54335 60.5772 9.478 60.8991 9.478C61.2438 9.478 61.5308 9.54997 61.7599 9.69391C61.991 9.83785 62.1567 10.0282 62.2571 10.2649C62.3575 10.5017 62.384 10.7611 62.3366 11.0433C62.2855 11.3691 62.1501 11.6466 61.9304 11.8757C61.7107 12.1049 61.4408 12.2668 61.1207 12.3615V12.3899C61.4806 12.4638 61.7448 12.6333 61.9134 12.8985C62.0838 13.1636 62.1378 13.4808 62.0753 13.8502C62.0241 14.1683 61.9001 14.4486 61.7031 14.6911C61.5062 14.9316 61.2571 15.1191 60.956 15.2536C60.6548 15.388 60.3196 15.4553 59.9503 15.4553ZM64.9332 15.4553C64.6889 15.4534 64.4579 15.4041 64.2401 15.3076C64.0241 15.2091 63.8404 15.0519 63.6889 14.836C63.5393 14.6201 63.4389 14.335 63.3878 13.9808C63.3366 13.6267 63.3546 13.193 63.4418 12.6797C63.5194 12.2081 63.6312 11.7772 63.777 11.3871C63.9228 10.9969 64.1009 10.6598 64.3111 10.3757C64.5213 10.0897 64.7628 9.8691 65.0355 9.7138C65.3101 9.5566 65.6141 9.478 65.9474 9.478C66.258 9.478 66.5251 9.54335 66.7486 9.67403C66.9721 9.80282 67.1416 9.98274 67.2571 10.2138C67.3726 10.443 67.4238 10.7091 67.4105 11.0121H66.902C66.9077 10.7034 66.8319 10.4505 66.6747 10.2536C66.5175 10.0547 66.2713 9.95528 65.9361 9.95528C65.4588 9.95528 65.0459 10.174 64.6974 10.6115C64.349 11.0471 64.1046 11.6816 63.9645 12.5149L64.0014 12.4865C64.1207 12.3161 64.2628 12.1683 64.4276 12.0433C64.5942 11.9183 64.7751 11.8218 64.9702 11.7536C65.1652 11.6854 65.3651 11.6513 65.5696 11.6513C65.8991 11.6513 66.187 11.7346 66.4332 11.9013C66.6795 12.068 66.8603 12.2962 66.9759 12.586C67.0933 12.8757 67.1207 13.2062 67.0582 13.5774C66.9995 13.9183 66.8717 14.2318 66.6747 14.5178C66.4777 14.8038 66.2296 15.032 65.9304 15.2024C65.6312 15.3729 65.2988 15.4572 64.9332 15.4553ZM64.9474 14.978C65.2031 14.978 65.4437 14.9127 65.669 14.782C65.8963 14.6494 66.0885 14.4723 66.2457 14.2507C66.4029 14.0291 66.5043 13.7839 66.5497 13.5149C66.5914 13.2593 66.5734 13.0263 66.4957 12.8161C66.42 12.6058 66.295 12.4392 66.1207 12.3161C65.9484 12.1911 65.7382 12.1286 65.4901 12.1286C65.2931 12.1286 65.1018 12.1693 64.9162 12.2507C64.7325 12.3303 64.5658 12.4392 64.4162 12.5774C64.2685 12.7157 64.1473 12.8738 64.0526 13.0519C63.9579 13.228 63.902 13.4146 63.8849 13.6115C63.8622 13.8729 63.8897 14.1068 63.9673 14.3132C64.0469 14.5197 64.17 14.6826 64.3366 14.8019C64.5052 14.9193 64.7088 14.978 64.9474 14.978ZM68.027 14.1257L68.0952 13.6939L71.3764 9.55755H71.6946L71.5781 10.282H71.3423L68.7031 13.6115V13.6485H72.1037L72.0241 14.1257H68.027ZM70.5327 15.3757L70.7628 13.9865L70.7969 13.7933L71.4986 9.55755H72.0043L71.0384 15.3757H70.5327ZM74.0547 9.55755H74.6683L75.9411 14.6257H75.995L78.9411 9.55755H79.5547L78.5888 15.3757H78.0888L78.8729 10.6797H78.8274L76.0803 15.3757H75.5973L74.4183 10.6797H74.3729L73.5888 15.3757H73.0888L74.0547 9.55755Z" fill="white"/>
<path d="M3.51136 189.376L4.71875 182.103H5.38281L4.27486 188.779H7.74077L7.64134 189.376H3.51136ZM15.1911 182.103H15.8551L15.0597 186.918C14.9768 187.413 14.7874 187.856 14.4915 188.246C14.1955 188.635 13.8215 188.941 13.3693 189.166C12.9195 189.389 12.4212 189.5 11.8743 189.5C11.3298 189.5 10.8693 189.388 10.4929 189.163C10.1165 188.938 9.84422 188.631 9.67614 188.243C9.50805 187.855 9.46544 187.413 9.5483 186.918L10.3438 182.103H11.0078L10.2159 186.872C10.1544 187.258 10.1839 187.603 10.3047 187.906C10.4254 188.206 10.6267 188.443 10.9084 188.616C11.1925 188.789 11.5452 188.875 11.9666 188.875C12.3904 188.875 12.7739 188.789 13.1172 188.616C13.4628 188.443 13.7469 188.206 13.9695 187.906C14.1944 187.603 14.3388 187.258 14.4027 186.872L15.1911 182.103ZM16.5778 189.376L17.7852 182.103H18.4492L17.7994 186.02H17.8668L22.0643 182.103H22.9379L19.2766 185.466L21.7163 189.376H20.9066L18.7901 185.928L17.6396 187.014L17.2418 189.376H16.5778ZM22.984 189.376L24.1914 182.103H24.8555L23.7475 188.779H27.2134L27.114 189.376H22.984ZM29.0787 189.376H28.3826L32.2356 182.103H32.9458L34.3841 189.376H33.688L32.4771 182.966H32.4309L29.0787 189.376ZM30.0446 186.588H33.6525L33.5531 187.185H29.9451L30.0446 186.588Z" fill="white"/>
<path d="M6.28409 197.376L6.35227 196.987L8.60227 194.85C8.89583 194.57 9.13542 194.33 9.32102 194.131C9.50663 193.931 9.64867 193.747 9.74716 193.58C9.84564 193.412 9.91004 193.237 9.94034 193.055C9.97633 192.833 9.95739 192.64 9.88352 192.475C9.81155 192.308 9.69508 192.179 9.53409 192.086C9.375 191.993 9.18182 191.947 8.95455 191.947C8.71591 191.947 8.49716 191.998 8.2983 192.1C8.09943 192.202 7.93371 192.344 7.80114 192.523C7.67045 192.701 7.58523 192.905 7.54545 193.134H7.03693C7.08996 192.812 7.21212 192.527 7.40341 192.279C7.59659 192.029 7.83523 191.833 8.11932 191.691C8.40341 191.549 8.70928 191.478 9.03693 191.478C9.36269 191.478 9.6392 191.548 9.86648 191.688C10.0938 191.826 10.2585 192.015 10.3608 192.254C10.4631 192.492 10.4896 192.759 10.4403 193.055C10.4025 193.271 10.3295 193.479 10.2216 193.68C10.1136 193.879 9.94792 194.101 9.72443 194.347C9.50095 194.594 9.19886 194.895 8.81818 195.251L7.1108 196.862L7.10227 196.898H9.98011L9.90057 197.376H6.28409ZM12.9851 197.455C12.6082 197.455 12.2843 197.383 12.0135 197.239C11.7427 197.094 11.5438 196.897 11.4169 196.648C11.29 196.4 11.2521 196.123 11.3033 195.816C11.343 195.579 11.4292 195.359 11.5618 195.154C11.6963 194.95 11.861 194.777 12.0561 194.637C12.2531 194.495 12.4643 194.403 12.6896 194.362V194.339C12.4169 194.255 12.2161 194.086 12.0874 193.83C11.9605 193.575 11.9264 193.288 11.9851 192.969C12.0381 192.682 12.1555 192.426 12.3374 192.202C12.5211 191.977 12.7493 191.8 13.022 191.671C13.2947 191.542 13.5921 191.478 13.9141 191.478C14.2417 191.478 14.5258 191.546 14.7663 191.683C15.0088 191.819 15.1877 192.005 15.3033 192.239C15.4188 192.472 15.4519 192.737 15.4027 193.032C15.3459 193.354 15.2067 193.632 14.9851 193.867C14.7635 194.102 14.5059 194.259 14.2124 194.339V194.362C14.4264 194.407 14.6101 194.504 14.7635 194.651C14.9169 194.797 15.0277 194.977 15.0959 195.191C15.1641 195.403 15.1773 195.631 15.1357 195.876C15.0864 196.179 14.9595 196.45 14.755 196.688C14.5523 196.925 14.2976 197.112 13.9908 197.251C13.6839 197.387 13.3487 197.455 12.9851 197.455ZM12.9964 196.978C13.2805 196.978 13.5391 196.927 13.772 196.825C14.005 196.722 14.1963 196.582 14.3459 196.404C14.4974 196.224 14.5921 196.019 14.63 195.788C14.666 195.558 14.6404 195.355 14.5533 195.177C14.4661 194.997 14.3288 194.856 14.1413 194.754C13.9557 194.651 13.7332 194.6 13.4737 194.6C13.2029 194.6 12.9491 194.655 12.7124 194.765C12.4775 194.873 12.2805 195.022 12.1214 195.211C11.9624 195.398 11.8639 195.612 11.826 195.85C11.79 196.07 11.8146 196.265 11.8999 196.435C11.9851 196.606 12.1214 196.739 12.3089 196.836C12.4964 196.931 12.7256 196.978 12.9964 196.978ZM13.4624 194.146C13.6972 194.146 13.916 194.095 14.1186 193.995C14.3232 193.895 14.4936 193.758 14.63 193.586C14.7682 193.414 14.8563 193.219 14.8942 193.001C14.9302 192.789 14.9122 192.604 14.8402 192.447C14.7682 192.288 14.6527 192.165 14.4936 192.077C14.3345 191.99 14.1394 191.947 13.9084 191.947C13.6697 191.947 13.4491 191.995 13.2464 192.092C13.0438 192.186 12.8752 192.318 12.7408 192.487C12.6063 192.653 12.5211 192.844 12.4851 193.06C12.4491 193.274 12.468 193.463 12.5419 193.626C12.6158 193.789 12.7322 193.916 12.8913 194.009C13.0504 194.1 13.2408 194.146 13.4624 194.146ZM16.1364 196.126L16.2045 195.694L19.4858 191.558H19.804L19.6875 192.282H19.4517L16.8125 195.612V195.648H20.2131L20.1335 196.126H16.1364ZM18.642 197.376L18.8722 195.987L18.9062 195.793L19.608 191.558H20.1136L19.1477 197.376H18.642ZM22.8658 197.455C22.4567 197.455 22.1271 197.338 21.8771 197.103C21.6271 196.866 21.4633 196.525 21.3857 196.08C21.308 195.633 21.3203 195.095 21.4226 194.467C21.5249 193.842 21.6896 193.307 21.9169 192.862C22.1442 192.415 22.4216 192.073 22.7493 191.836C23.0788 191.597 23.4472 191.478 23.8544 191.478C24.2597 191.478 24.5883 191.597 24.8402 191.836C25.0921 192.073 25.2588 192.415 25.3402 192.862C25.4235 193.307 25.4131 193.842 25.3089 194.467C25.2029 195.094 25.0362 195.63 24.8089 196.077C24.5817 196.523 24.3023 196.863 23.9709 197.1C23.6413 197.337 23.273 197.455 22.8658 197.455ZM22.9368 196.978C23.3838 196.978 23.7711 196.76 24.0987 196.325C24.4283 195.889 24.6593 195.27 24.7919 194.467C24.879 193.942 24.897 193.491 24.8459 193.114C24.7966 192.737 24.6821 192.449 24.5021 192.248C24.3222 192.047 24.0836 191.947 23.7862 191.947C23.3411 191.947 22.9548 192.166 22.6271 192.606C22.2995 193.043 22.0694 193.664 21.9368 194.467C21.8497 194.991 21.8307 195.441 21.88 195.816C21.9292 196.191 22.0429 196.479 22.2209 196.68C22.3989 196.879 22.6375 196.978 22.9368 196.978ZM27.0703 191.558H27.6839L28.9567 196.626H29.0107L31.9567 191.558H32.5703L31.6044 197.376H31.1044L31.8885 192.68H31.843L29.0959 197.376H28.6129L27.4339 192.68H27.3885L26.6044 197.376H26.1044L27.0703 191.558Z" fill="white"/>
</svg>
