<svg width="200" height="200" viewBox="0 0 200 200" fill="none" xmlns="http://www.w3.org/2000/svg">
<path d="M91.2539 115.727H92.021L93.6119 122.062H93.6793L97.3619 115.727H98.1289L96.9215 123H96.2965L97.2766 117.13H97.2198L93.7859 123H93.1822L91.7085 117.13H91.6516L90.6715 123H90.0465L91.2539 115.727ZM98.8658 123H98.1697L102.023 115.727H102.733L104.171 123H103.475L102.264 116.59H102.218L98.8658 123ZM99.8317 120.212H103.44L103.34 120.809H99.7322L99.8317 120.212ZM105.418 123L106.625 115.727H107.289L106.181 122.403H109.647L109.548 123H105.418ZM111.043 123L112.25 115.727H112.914L111.806 122.403H115.272L115.173 123H111.043ZM122.943 119.403C122.818 120.153 122.576 120.805 122.219 121.359C121.861 121.913 121.425 122.342 120.909 122.645C120.392 122.948 119.831 123.099 119.225 123.099C118.603 123.099 118.077 122.944 117.649 122.634C117.222 122.322 116.921 121.884 116.743 121.32C116.566 120.754 116.539 120.089 116.665 119.325C116.79 118.574 117.032 117.922 117.389 117.368C117.747 116.814 118.185 116.385 118.703 116.082C119.222 115.779 119.785 115.628 120.394 115.628C121.009 115.628 121.53 115.783 121.956 116.093C122.382 116.403 122.685 116.841 122.865 117.407C123.045 117.97 123.071 118.636 122.943 119.403ZM122.308 119.325C122.417 118.676 122.402 118.123 122.265 117.666C122.13 117.209 121.898 116.86 121.569 116.619C121.24 116.375 120.841 116.253 120.372 116.253C119.887 116.253 119.431 116.378 119.005 116.629C118.579 116.878 118.216 117.238 117.915 117.709C117.614 118.178 117.408 118.742 117.297 119.403C117.191 120.049 117.205 120.602 117.34 121.061C117.475 121.518 117.707 121.868 118.036 122.112C118.367 122.354 118.768 122.474 119.24 122.474C119.727 122.474 120.184 122.349 120.61 122.098C121.036 121.847 121.399 121.487 121.697 121.018C121.998 120.547 122.201 119.983 122.308 119.325ZM123.953 123L125.16 115.727H127.507C128.024 115.727 128.439 115.82 128.754 116.004C129.071 116.189 129.29 116.446 129.411 116.775C129.534 117.102 129.561 117.478 129.493 117.904C129.422 118.326 129.27 118.698 129.038 119.023C128.808 119.347 128.505 119.602 128.129 119.786C127.752 119.969 127.309 120.06 126.797 120.06H124.801L124.904 119.452H126.882C127.264 119.452 127.59 119.39 127.863 119.264C128.135 119.139 128.353 118.96 128.516 118.728C128.679 118.496 128.787 118.221 128.839 117.904C128.891 117.585 128.873 117.306 128.786 117.07C128.701 116.833 128.542 116.649 128.31 116.519C128.08 116.389 127.774 116.324 127.39 116.324H125.725L124.617 123H123.953ZM127.703 119.719L128.949 123H128.186L126.961 119.719H127.703ZM136.778 118H136.117C136.11 117.751 136.06 117.522 135.968 117.311C135.876 117.098 135.747 116.912 135.581 116.754C135.415 116.595 135.218 116.472 134.988 116.384C134.761 116.297 134.506 116.253 134.224 116.253C133.76 116.253 133.317 116.375 132.893 116.619C132.469 116.86 132.104 117.215 131.799 117.684C131.494 118.153 131.285 118.726 131.174 119.403C131.063 120.07 131.08 120.633 131.227 121.089C131.374 121.544 131.614 121.888 131.948 122.123C132.284 122.357 132.679 122.474 133.131 122.474C133.42 122.474 133.696 122.431 133.962 122.343C134.227 122.255 134.471 122.134 134.693 121.977C134.916 121.819 135.111 121.633 135.279 121.42C135.447 121.207 135.577 120.976 135.67 120.727H136.337C136.221 121.061 136.059 121.372 135.851 121.661C135.643 121.948 135.396 122.199 135.112 122.414C134.83 122.629 134.519 122.798 134.178 122.918C133.84 123.039 133.48 123.099 133.099 123.099C132.478 123.099 131.954 122.944 131.526 122.634C131.099 122.324 130.796 121.887 130.616 121.324C130.439 120.758 130.414 120.092 130.542 119.325C130.667 118.572 130.908 117.918 131.263 117.364C131.62 116.81 132.058 116.383 132.577 116.082C133.095 115.779 133.659 115.628 134.267 115.628C134.655 115.628 135.003 115.688 135.311 115.809C135.619 115.927 135.88 116.095 136.096 116.313C136.314 116.529 136.481 116.78 136.597 117.066C136.713 117.353 136.773 117.664 136.778 118ZM137.528 123H136.832L140.685 115.727H141.395L142.833 123H142.137L140.926 116.59H140.88L137.528 123ZM138.494 120.212H142.102L142.002 120.809H138.394L138.494 120.212Z" fill="white"/>
</svg>
