<svg width="200" height="200" viewBox="0 0 200 200" fill="none" xmlns="http://www.w3.org/2000/svg">
<path d="M28.3828 83.1137L27.1754 90.3865H26.5291L23.2443 84.2963H23.1875L22.1754 90.3865H21.5114L22.7188 83.1137H23.3615L26.657 89.211H26.7138L27.7294 83.1137H28.3828ZM29.109 90.3865L30.3164 83.1137H34.5352L34.4357 83.7103H30.881L30.4265 86.4483H33.7575L33.658 87.0449H30.3271L29.8725 89.7899H33.4982L33.3988 90.3865H29.109ZM36.3107 90.3865L35.5259 83.1137H36.2006L36.8079 89.3673H36.8647L39.5529 83.1137H40.32L40.9308 89.3673H40.9876L43.6722 83.1137H44.354L41.1545 90.3865H40.4407L39.7802 84.2182H39.734L37.021 90.3865H36.3107ZM46.8683 90.3865L46.957 89.8858L52.0103 83.7103H47.962L48.0543 83.1137H52.9052L52.8271 83.6145L47.7631 89.7899H51.8327L51.7333 90.3865H46.8683ZM53.3375 90.3865L54.5449 83.1137H58.7637L58.6642 83.7103H55.1096L54.655 86.4483H57.986L57.8865 87.0449H54.5556L54.101 89.7899H57.7267L57.6273 90.3865H53.3375ZM59.2857 90.3865H58.5897L62.4426 83.1137H63.1529L64.5911 90.3865H63.8951L62.6841 83.9767H62.638L59.2857 90.3865ZM60.2516 87.5988H63.8596L63.7601 88.1954H60.1522L60.2516 87.5988ZM65.8375 90.3865L67.0449 83.1137H67.709L66.601 89.7899H70.0669L69.9675 90.3865H65.8375ZM71.9322 90.3865H71.2362L75.0891 83.1137H75.7994L77.2376 90.3865H76.5415L75.3306 83.9767H75.2844L71.9322 90.3865ZM72.8981 87.5988H76.506L76.4066 88.1954H72.7987L72.8981 87.5988ZM85.3555 83.1137L84.1481 90.3865H83.5018L80.217 84.2963H80.1602L79.1481 90.3865H78.484L79.6914 83.1137H80.3342L83.6296 89.211H83.6864L84.7021 83.1137H85.3555ZM88.2301 90.3865H86.0817L87.2891 83.1137H89.5298C90.2211 83.1137 90.7917 83.2605 91.2415 83.5541C91.6913 83.8476 92.0038 84.2679 92.179 84.8147C92.3542 85.3592 92.3778 86.0103 92.25 86.7679C92.1245 87.5254 91.8842 88.1741 91.5291 88.7139C91.174 89.2537 90.7171 89.668 90.1584 89.9568C89.602 90.2432 88.9593 90.3865 88.2301 90.3865ZM86.8452 89.7899H88.2656C88.8859 89.7899 89.428 89.6644 89.892 89.4135C90.3561 89.1625 90.7337 88.8062 91.0249 88.3446C91.3161 87.8806 91.5137 87.3301 91.6179 86.6933C91.7221 86.0683 91.7102 85.5333 91.5824 85.0882C91.4569 84.6431 91.2143 84.3022 90.8544 84.0655C90.4969 83.8287 90.0223 83.7103 89.4304 83.7103H87.8501L86.8452 89.7899Z" fill="white"/>
</svg>
