<svg width="200" height="200" viewBox="0 0 200 200" fill="none" xmlns="http://www.w3.org/2000/svg">
<path d="M28.4006 83.1137L27.1932 90.3865H26.3409L23.3295 84.6762H23.2585L22.3068 90.3865H21.4261L22.6335 83.1137H23.4858L26.5114 88.8382H26.5824L27.5341 83.1137H28.4006ZM28.9554 90.3865L30.1628 83.1137H34.552L34.4242 83.895H30.9157L30.5037 86.3524H33.785L33.6571 87.1336H30.3759L29.964 89.6052H33.5293L33.4015 90.3865H28.9554ZM36.253 90.3865L35.4718 83.1137H36.3667L36.9064 89.037H36.9775L39.5059 83.1137H40.5002L41.0684 89.037H41.1394L43.6394 83.1137H44.5343L41.3382 90.3865H40.4292L39.79 84.591H39.7331L37.1621 90.3865H36.253ZM46.9952 90.3865L47.1088 89.7473L51.9952 83.895H48.0321L48.16 83.1137H53.1742L53.0748 83.753L48.1742 89.6052H52.1373L52.0094 90.3865H46.9952ZM53.4867 90.3865L54.6941 83.1137H59.0833L58.9554 83.895H55.4469L55.035 86.3524H58.3162L58.1884 87.1336H54.9071L54.4952 89.6052H58.0605L57.9327 90.3865H53.4867ZM59.7615 90.3865H58.8382L62.7161 83.1137H63.6252L65.0882 90.3865H64.165L63.0144 84.2643H62.9576L59.7615 90.3865ZM60.5712 87.5456H64.2928L64.165 88.3268H60.4434L60.5712 87.5456ZM66.2211 90.3865L67.4284 83.1137H68.3091L67.2296 89.6052H70.6103L70.4824 90.3865H66.2211ZM72.6033 90.3865H71.68L75.5579 83.1137H76.467L77.93 90.3865H77.0067L75.8562 84.2643H75.7994L72.6033 90.3865ZM73.413 87.5456H77.1346L77.0067 88.3268H73.2852L73.413 87.5456ZM86.0373 83.1137L84.8299 90.3865H83.9776L80.9663 84.6762H80.8952L79.9435 90.3865H79.0629L80.2702 83.1137H81.1225L84.1481 88.8382H84.2191L85.1708 83.1137H86.0373ZM88.8649 90.3865H86.5922L87.7995 83.1137H90.1149C90.8204 83.1137 91.4016 83.2617 91.8585 83.5576C92.3178 83.8536 92.6374 84.2762 92.8173 84.8254C92.9996 85.3746 93.0268 86.0304 92.899 86.7927C92.7759 87.5408 92.5368 88.1836 92.1816 88.721C91.8289 89.256 91.372 89.668 90.8109 89.9568C90.2522 90.2432 89.6035 90.3865 88.8649 90.3865ZM87.6042 89.6052H88.8933C89.4946 89.6052 90.0131 89.4869 90.4487 89.2501C90.8867 89.0134 91.2394 88.676 91.5069 88.238C91.7768 87.8001 91.9615 87.2804 92.0609 86.6791C92.1603 86.1014 92.1509 85.6055 92.0325 85.1912C91.9165 84.7745 91.688 84.4549 91.3471 84.2324C91.0086 84.0074 90.5552 83.895 89.987 83.895H88.5488L87.6042 89.6052Z" fill="white"/>
<path d="M122.244 114.279C121.27 114.155 117.331 118.471 117.331 119.591C117.331 120.711 118.451 120.711 118.451 122.392C118.451 124.072 113.97 129.672 113.97 129.672C113.97 129.672 107.25 140.314 106.129 141.434C105.009 142.554 98.8487 145.914 98.8486 147.594C98.8485 149.275 98.8487 149.835 99.4087 150.955C99.9686 152.075 102.769 152.075 103.329 153.195C103.889 154.315 102.769 154.875 101.649 155.995C100.529 157.115 98.8487 153.755 95.4882 153.755C92.1277 153.755 87.6474 158.796 84.847 160.476C82.0466 162.156 80.3666 166.637 79.8065 168.317C79.2463 169.997 80.3666 169.997 79.8065 172.237C79.2463 174.477 75.8861 182.878 74.2058 184.559C72.5255 186.239 64.6849 193.52 64.1247 194.08C63.5645 194.64 63.5648 195.76 62.4445 196.32C61.3243 196.88 56.844 198 54.0436 198C51.2432 198 49.563 197.44 48.443 196.32C47.323 195.2 47.3227 194.64 46.2027 194.08C45.0827 193.52 42.2822 194.08 41.7222 193.52C41.1623 192.959 40.0422 190.159 37.2417 190.719C34.4413 191.279 30.5209 191.839 29.4009 190.719C28.2808 189.599 27.7207 188.479 27.1606 186.799C26.6005 185.119 29.9611 179.518 31.081 177.838C32.2009 176.158 35.5614 171.117 37.2417 168.877C38.922 166.636 46.2026 158.236 49.003 156.555C51.8035 154.875 54.0436 154.875 54.0436 154.875C54.0436 154.875 59.6441 152.075 63.5647 149.835C67.4852 147.594 71.9655 142.554 74.2058 140.874C76.4462 139.193 78.1262 136.953 80.3665 134.713C82.6069 132.473 83.7268 129.112 83.7269 126.872C83.727 124.632 83.7268 122.952 85.9672 121.271C88.2075 119.591 88.2073 120.711 90.4476 119.591C92.688 118.471 93.2479 115.671 94.3681 113.991C95.4883 112.31 93.2479 108.95 93.808 107.27C94.3682 105.59 101.089 100.549 101.649 101.669C102.209 102.789 101.649 105.03 102.209 106.71C102.769 108.39 104.449 111.75 105.009 112.871C105.569 113.991 106.689 114.551 108.37 113.991C110.05 113.431 113.97 110.07 115.09 110.07C116.21 110.07 121.27 115.201 122.244 114.279ZM122.244 114.279C123.217 114.404 124.051 115.671 124.051 115.671C124.051 115.671 126.292 117.351 126.852 118.471C127.412 119.591 130.772 118.471 130.772 119.591C130.772 120.711 129.652 121.271 130.212 121.832C130.772 122.392 131.892 122.392 134.132 121.271C136.373 120.151 139.733 117.351 140.853 115.671C141.973 113.991 145.334 106.71 146.454 106.15C147.574 105.59 148.134 106.71 148.694 106.15C149.254 105.59 150.934 102.229 150.934 102.229C150.934 102.229 154.855 95.5083 154.855 93.2683C154.855 91.0283 153.175 91.5879 153.175 89.3479C153.175 87.1079 156.535 85.4272 157.655 84.8674C158.775 84.3076 163.256 85.4272 166.056 84.8674C168.856 84.3076 166.056 81.5068 166.616 79.8268C167.176 78.1469 168.835 79.4878 169.976 78.7067C171.835 77.4351 172.217 77.0263 172.777 73.6662C173.337 70.306 175.577 66.9454 175.577 64.7052C175.577 62.4649 174.457 62.4647 172.777 61.9049C171.097 61.345 166.616 62.4652 165.496 63.585C164.376 64.7049 165.496 66.3856 162.136 66.9454C158.775 67.5052 158.215 66.9454 155.975 65.8253C153.735 64.7052 146.454 60.2247 146.454 60.2247C146.454 60.2247 144.774 59.6644 144.774 56.3042C144.774 52.9441 144.774 52.3838 144.214 48.4634C143.653 44.5429 141.413 45.1027 140.853 43.9829C140.293 42.863 141.973 33.902 139.733 35.5819C137.493 37.2619 139.173 44.5429 139.173 44.5429L139.733 52.3838C139.733 52.3838 137.493 51.824 136.933 51.2637C136.373 50.7034 136.933 48.4636 135.813 47.9033C134.692 47.343 133.012 47.343 132.452 46.2231C131.892 45.1032 131.892 37.8222 131.332 36.702C130.772 35.5819 130.772 35.5819 130.212 34.4618C129.652 33.3417 131.332 28.8609 130.772 26.0609C130.212 23.2608 127.412 20.46 126.292 19.9002C125.171 19.3404 123.491 18.22 123.491 18.22C123.491 18.22 119.011 15.4199 117.331 14.8596C115.65 14.2993 115.089 13.1823 113.969 12.0624C112.849 10.9426 109.735 6.51445 108.615 4.27438C107.494 2.03432 104.449 3.09831 104.449 4.7785C104.449 6.45868 105.009 8.13887 105.569 10.3791C106.129 12.6194 107.641 13.5227 108.128 14.4962C108.615 15.4697 109.588 17.9034 110.075 18.8769C110.562 19.8504 112.509 22.2841 114.456 24.2311C116.403 26.1781 120.691 35.0219 122.371 37.8222C124.051 40.6225 126.852 47.9033 126.852 47.9033C126.852 47.9033 130.212 57.4244 130.212 61.9049C130.212 66.3853 126.292 76.4665 126.292 76.4665C126.292 76.4665 125.731 78.7067 124.051 79.2668C122.371 79.8268 117.891 80.947 116.21 82.0671C114.53 83.1872 115.09 83.7473 115.65 85.9875C116.21 88.2278 124.051 92.1482 124.051 92.1482C124.051 92.1482 130.772 97.1888 131.332 98.3089C131.892 99.429 132.452 101.669 131.892 103.91C131.332 106.15 130.212 107.83 129.092 108.95C127.972 110.07 123.704 113.741 122.244 114.279Z" stroke="white" stroke-linecap="round"/>
<path d="M106.689 6.45825C106.689 6.45825 108.369 8.6985 108.93 9.81863C109.49 10.9388 112.29 15.9793 112.29 15.9793C112.29 15.9793 113.97 18.2196 115.09 18.7796C116.21 19.3397 117.33 19.3397 117.33 19.3397C117.33 19.3397 121.332 19.7558 123.491 21.0199C125.651 22.284 126.064 23.3776 126.624 26.1779C127.184 28.9783 127.111 32.9924 127.111 32.9924C127.111 32.9924 127.412 37.2617 127.412 38.3818C127.412 39.5019 128.571 42.9189 129.652 45.6478C130.732 48.3768 138.053 59.1041 137.493 60.7843C136.933 62.4645 134.692 61.9044 134.132 63.0245C133.572 64.1447 133.572 66.945 134.132 68.6252C134.692 70.3054 141.413 70.3054 140.853 71.9855C140.293 73.6657 139.173 73.1057 137.493 74.2258C135.813 75.3459 135.252 75.906 135.252 77.5862C135.252 79.2663 140.293 80.3865 140.293 81.5066C140.293 82.6267 139.173 83.1868 138.053 83.7468C136.933 84.3069 134.132 80.9465 133.012 80.9465C131.892 80.9465 130.212 82.6267 129.652 84.3069C129.092 85.427 128.299 89.4551 129.652 91.8889C131.005 94.3226 132.452 96.0682 133.012 96.6283C133.572 97.1883 136.373 97.7484 136.373 99.9886C136.373 102.229 133.572 103.909 133.572 105.029C133.572 106.149 135.252 107.269 134.132 108.95C133.012 110.63 131.332 109.51 130.212 110.07C129.092 110.63 127.972 111.75 127.412 112.31C126.852 112.87 126.291 116.791 124.611 117.351C122.931 117.911 120.131 112.31 118.451 112.87C116.77 113.43 113.97 117.351 112.29 117.911C110.61 118.471 107.809 118.471 106.129 118.471C104.449 118.471 101.089 121.831 99.9685 122.951C98.8484 124.071 101.089 126.312 99.9685 127.432C98.8484 128.552 93.248 127.992 92.1278 129.672C90.4477 130.792 86.527 138.073 85.9669 139.753C85.4069 141.433 85.9669 148.154 85.4069 149.274C84.8468 150.394 78.9229 151.272 76.4892 153.219C74.0554 155.166 71.9654 159.355 70.8453 159.915C69.7252 160.475 66.9248 159.355 65.8047 159.915C64.6846 160.475 65.8047 162.716 65.2447 163.276C64.6846 163.836 60.2041 167.196 59.644 167.756C59.084 168.316 57.4038 166.636 55.1635 167.756C52.9233 168.876 49.0028 171.117 47.8827 171.677C44.3638 173.176 44.5226 183.438 43.9623 185.118C43.402 186.798 41.722 190.719 42.8422 191.839C43.9623 192.959 48.4428 190.719 49.5629 192.399C50.683 194.079 49.0028 194.639 49.0028 194.639" stroke="#FC5200" stroke-width="3" stroke-linecap="round"/>
</svg>
