<svg width="201" height="201" viewBox="0 0 201 201" fill="none" xmlns="http://www.w3.org/2000/svg">
<path d="M91.6684 115.727H92.7196L94.1968 121.764H94.2821L97.748 115.727H98.7991L97.5917 123H96.7679L97.6912 117.474H97.6201L94.4241 123H93.6287L92.2792 117.474H92.2082L91.2849 123H90.461L91.6684 115.727ZM99.6558 123H98.7325L102.61 115.727H103.519L104.983 123H104.059L102.909 116.878H102.852L99.6558 123ZM100.465 120.159H104.187L104.059 120.94H100.338L100.465 120.159ZM106.115 123L107.323 115.727H108.203L107.124 122.219H110.505L110.377 123H106.115ZM111.74 123L112.948 115.727H113.828L112.749 122.219H116.13L116.002 123H111.74ZM123.815 119.42C123.687 120.178 123.442 120.833 123.08 121.384C122.718 121.933 122.275 122.357 121.752 122.656C121.229 122.951 120.662 123.099 120.051 123.099C119.421 123.099 118.885 122.946 118.442 122.638C118.002 122.328 117.687 121.89 117.498 121.324C117.311 120.756 117.281 120.083 117.409 119.307C117.537 118.549 117.782 117.896 118.144 117.347C118.506 116.795 118.95 116.371 119.476 116.075C120.001 115.777 120.572 115.628 121.187 115.628C121.812 115.628 122.344 115.783 122.782 116.093C123.222 116.401 123.536 116.839 123.723 117.407C123.912 117.973 123.943 118.644 123.815 119.42ZM122.977 119.307C123.081 118.687 123.066 118.165 122.931 117.741C122.796 117.317 122.572 116.996 122.26 116.778C121.947 116.561 121.576 116.452 121.145 116.452C120.695 116.452 120.269 116.567 119.866 116.796C119.464 117.023 119.119 117.358 118.833 117.801C118.546 118.241 118.351 118.781 118.247 119.42C118.143 120.041 118.158 120.563 118.293 120.987C118.428 121.41 118.652 121.731 118.964 121.949C119.277 122.167 119.648 122.276 120.079 122.276C120.529 122.276 120.955 122.162 121.358 121.935C121.76 121.705 122.105 121.37 122.391 120.93C122.678 120.487 122.873 119.946 122.977 119.307ZM124.699 123L125.907 115.727H128.364C128.932 115.727 129.382 115.823 129.714 116.015C130.047 116.207 130.273 116.471 130.392 116.807C130.513 117.143 130.537 117.527 130.466 117.957C130.395 118.384 130.244 118.762 130.012 119.094C129.782 119.425 129.47 119.686 129.074 119.875C128.681 120.064 128.203 120.159 127.64 120.159H125.651L125.793 119.364H127.753C128.142 119.364 128.464 119.307 128.719 119.193C128.975 119.08 129.174 118.917 129.316 118.707C129.458 118.496 129.553 118.246 129.6 117.957C129.647 117.664 129.634 117.409 129.561 117.194C129.49 116.976 129.344 116.808 129.124 116.69C128.906 116.569 128.601 116.509 128.208 116.509H126.66L125.58 123H124.699ZM128.662 119.733L129.912 123H128.89L127.668 119.733H128.662ZM137.772 118H136.905C136.896 117.747 136.844 117.524 136.749 117.332C136.655 117.141 136.527 116.98 136.366 116.849C136.207 116.717 136.025 116.617 135.819 116.551C135.613 116.485 135.393 116.452 135.158 116.452C134.709 116.452 134.282 116.567 133.88 116.796C133.477 117.023 133.133 117.358 132.847 117.801C132.56 118.241 132.365 118.781 132.261 119.42C132.156 120.041 132.172 120.563 132.307 120.987C132.442 121.41 132.665 121.731 132.978 121.949C133.29 122.167 133.662 122.276 134.093 122.276C134.342 122.276 134.585 122.242 134.825 122.176C135.066 122.11 135.291 122.012 135.499 121.881C135.71 121.749 135.897 121.587 136.06 121.395C136.226 121.201 136.356 120.978 136.451 120.727H137.332C137.201 121.099 137.025 121.432 136.802 121.725C136.582 122.019 136.328 122.268 136.039 122.474C135.75 122.678 135.439 122.833 135.105 122.94C134.771 123.046 134.424 123.099 134.065 123.099C133.435 123.099 132.899 122.946 132.456 122.638C132.016 122.328 131.701 121.89 131.511 121.324C131.324 120.756 131.295 120.083 131.423 119.307C131.55 118.549 131.795 117.896 132.158 117.347C132.52 116.795 132.964 116.371 133.489 116.075C134.015 115.777 134.585 115.628 135.201 115.628C135.57 115.628 135.91 115.681 136.22 115.788C136.53 115.894 136.8 116.05 137.03 116.256C137.259 116.46 137.438 116.709 137.566 117.002C137.696 117.293 137.765 117.626 137.772 118ZM138.67 123H137.746L141.624 115.727H142.533L143.996 123H143.073L141.922 116.878H141.866L138.67 123ZM139.479 120.159H143.201L143.073 120.94H139.351L139.479 120.159Z" fill="white"/>
<path d="M2.31567 128.772C2.31567 128.772 2.67381 124.833 3.39009 123.758C4.10636 122.684 5.53891 121.251 6.25518 121.251C6.97146 121.251 11.2841 123.913 11.9854 122.326C12.6866 120.738 18.8697 116.485 19.8644 116.953C21.2283 116.772 21.6551 113.014 22.7295 112.298C23.8039 111.581 24.8783 111.581 25.5946 110.865C26.3109 110.149 29.176 104.419 30.2504 103.702C31.3248 102.986 39.2038 108 40.6364 107.642C42.0689 107.284 42.427 107.284 43.1433 106.926C43.8596 106.568 42.0689 105.851 42.427 105.135C42.7852 104.419 44.934 104.061 46.0084 103.344C47.0828 102.628 47.441 99.7629 48.8735 98.6885C50.3061 97.6141 54.6037 95.8234 54.9618 94.749C55.32 93.6746 55.32 93.3165 54.6037 93.3165C53.8874 93.3165 52.813 94.3909 52.0967 94.0327C51.3805 93.6746 51.0223 91.8839 51.7386 91.1676C52.4549 90.4514 54.2456 90.0932 54.2456 89.7351C54.2456 89.3769 52.813 88.6607 53.1712 87.5863C53.5293 86.5118 58.1851 84.7212 59.2595 84.363C60.3339 84.0049 64.2734 85.7956 64.9897 85.7956C65.706 85.7956 68.2129 84.7212 68.9292 84.7212C69.6455 84.7212 72.1524 87.5863 73.2268 87.2281C74.3012 86.87 77.8826 80.7817 79.3152 80.4235C80.7477 80.0654 81.464 83.2886 83.2547 84.363C85.0454 85.4374 85.7616 84.7212 85.7616 84.0049C85.7616 83.2886 85.7616 81.8561 86.1198 81.1398C86.4779 80.4235 88.2686 76.8421 89.343 75.7677C90.4174 74.6933 91.1337 73.6189 92.5662 73.6189C93.9988 73.6189 97.222 75.0515 98.2964 74.3352C99.3708 73.6189 100.803 70.0375 100.803 69.6794C100.803 69.3213 100.087 69.3213 100.087 68.605C100.087 67.8887 100.803 66.8143 101.52 66.4562C102.236 66.098 103.668 66.4562 104.743 66.098C105.817 65.7399 106.534 64.3073 107.25 63.5911C107.966 62.8748 109.041 62.1585 109.757 62.1585C110.473 62.1585 111.548 62.5167 112.264 62.1585C112.98 61.8004 117.278 59.6516 117.278 59.6516C117.278 59.6516 120.501 58.219 121.217 57.8609C121.933 57.5027 121.217 57.1446 122.292 56.7865C123.366 56.4283 129.813 53.5632 129.813 53.5632" stroke="#FC5200" stroke-width="3" stroke-linecap="round"/>
<path d="M0.524892 125.549C0.166755 128.414 3.74813 137.009 4.10626 138.442C4.4644 139.874 6.97136 140.59 8.40391 141.665C9.83646 142.739 20.2224 137.367 20.9387 140.232C21.655 143.098 19.148 142.739 19.5062 145.246C19.8643 147.753 22.3713 151.335 24.5201 153.125C26.6689 154.916 29.534 157.065 31.6828 155.274C33.8316 153.483 33.8316 145.246 35.2642 142.739C36.6967 140.232 42.0688 139.158 42.7851 139.158C43.5014 139.158 51.0222 135.218 51.0222 135.218C51.0222 135.218 56.0361 131.995 59.6175 133.428C63.1989 134.86 71.0779 142.739 71.436 145.246C71.7942 147.753 66.7803 150.618 66.4221 152.051C66.064 153.483 71.0779 157.065 71.0779 158.855C71.0779 160.646 69.2872 163.511 69.6454 166.376C70.0035 169.242 75.0174 175.688 77.8825 177.837C80.7476 179.986 85.4034 179.269 85.4034 179.269C85.4034 179.269 97.5801 182.134 100.803 179.986C104.027 177.837 113.996 181.048 114.054 183.925C114.113 186.802 112.622 184.999 112.264 186.074C111.906 187.148 112.98 187.865 114.054 188.939C115.129 190.013 123.366 199.325 124.44 199.683C125.515 200.041 125.873 200.399 128.38 199.683C130.887 198.967 140.198 187.148 141.631 186.074C143.063 184.999 143.78 186.79 146.287 186.074C148.794 185.358 154.524 180.702 156.673 178.553C158.822 176.404 162.761 168.883 164.194 165.66C165.626 162.437 168.849 146.321 170.64 144.172C172.431 142.023 180.31 134.86 180.31 134.86C180.31 134.86 184.966 130.205 186.398 128.056C187.831 125.907 194.993 111.581 196.068 109.791C197.142 108 200.365 99.0466 200.007 96.5396C199.649 94.0326 198.217 91.5258 196.068 90.4513C193.919 89.3768 184.249 85.7956 182.817 85.0792C181.384 84.3629 178.161 80.0654 177.087 79.7072C176.012 79.349 175.296 79.7071 174.58 80.7816C173.863 81.8561 175.296 84.7211 173.505 86.5118C171.714 88.3025 162.761 94.0327 159.538 93.6745C156.315 93.3164 147.719 88.3025 145.57 86.8699C143.422 85.4373 135.184 75.4096 136.259 71.8282C137.333 68.2467 149.152 66.098 150.226 64.3073C151.301 62.5166 152.375 56.7864 150.226 56.7864C148.077 56.7865 134.11 63.9492 132.677 62.8747C131.245 61.8003 129.812 56.0702 130.529 54.6376C131.245 53.205 140.915 51.0563 143.063 50.3399C145.212 49.6236 152.733 43.5353 153.091 41.0284C153.449 38.5214 146.287 41.3865 143.78 41.3865C141.273 41.3865 134.468 47.1167 132.677 47.4748C130.887 47.833 124.798 46.7586 121.933 46.7586C119.068 46.7586 108.682 49.9818 106.892 50.3399C105.101 50.6981 105.817 53.205 104.385 53.9213C102.952 54.6376 97.2219 56.4283 95.7894 57.5027C94.3568 58.5771 91.4917 61.4422 89.701 62.1585C87.9104 62.8747 85.0453 63.591 81.4639 63.9492C77.8825 64.3073 69.6454 70.7538 69.6454 70.7538C69.6454 70.7538 52.4548 82.5723 51.3804 87.2281C50.306 91.8839 37.6379 101.673 32.3991 100.121C27.1603 98.5695 18.4317 112.656 16.6411 114.088C14.8515 115.52 6.98126 119.455 5.54152 120.175L5.53881 120.177C4.10626 120.893 0.88303 122.684 0.524892 125.549Z" stroke="white"/>
</svg>
