<svg width="200" height="202" viewBox="0 0 200 202" fill="none" xmlns="http://www.w3.org/2000/svg">
<path d="M28.4006 82.7204L27.1932 89.9932H26.3409L23.3295 84.2829H23.2585L22.3068 89.9932H21.4261L22.6335 82.7204H23.4858L26.5114 88.4449H26.5824L27.5341 82.7204H28.4006ZM28.9554 89.9932L30.1628 82.7204H34.552L34.4242 83.5017H30.9157L30.5037 85.9591H33.785L33.6571 86.7403H30.3759L29.964 89.2119H33.5293L33.4015 89.9932H28.9554ZM36.253 89.9932L35.4718 82.7204H36.3667L36.9064 88.6437H36.9775L39.5059 82.7204H40.5002L41.0684 88.6437H41.1394L43.6394 82.7204H44.5343L41.3382 89.9932H40.4292L39.79 84.1977H39.7331L37.1621 89.9932H36.253ZM46.9952 89.9932L47.1088 89.354L51.9952 83.5017H48.0321L48.16 82.7204H53.1742L53.0748 83.3596L48.1742 89.2119H52.1373L52.0094 89.9932H46.9952ZM53.4867 89.9932L54.6941 82.7204H59.0833L58.9554 83.5017H55.4469L55.035 85.9591H58.3162L58.1884 86.7403H54.9071L54.4952 89.2119H58.0605L57.9327 89.9932H53.4867ZM59.7615 89.9932H58.8382L62.7161 82.7204H63.6252L65.0882 89.9932H64.165L63.0144 83.871H62.9576L59.7615 89.9932ZM60.5712 87.1523H64.2928L64.165 87.9335H60.4434L60.5712 87.1523ZM66.2211 89.9932L67.4284 82.7204H68.3091L67.2296 89.2119H70.6103L70.4824 89.9932H66.2211ZM72.6033 89.9932H71.68L75.5579 82.7204H76.467L77.93 89.9932H77.0067L75.8562 83.871H75.7994L72.6033 89.9932ZM73.413 87.1523H77.1346L77.0067 87.9335H73.2852L73.413 87.1523ZM86.0373 82.7204L84.8299 89.9932H83.9776L80.9663 84.2829H80.8952L79.9435 89.9932H79.0629L80.2702 82.7204H81.1225L84.1481 88.4449H84.2191L85.1708 82.7204H86.0373ZM88.8649 89.9932H86.5922L87.7995 82.7204H90.1149C90.8204 82.7204 91.4016 82.8684 91.8585 83.1643C92.3178 83.4603 92.6374 83.8828 92.8173 84.4321C92.9996 84.9813 93.0268 85.6371 92.899 86.3994C92.7759 87.1475 92.5368 87.7903 92.1816 88.3277C91.8289 88.8627 91.372 89.2747 90.8109 89.5635C90.2522 89.8499 89.6035 89.9932 88.8649 89.9932ZM87.6042 89.2119H88.8933C89.4946 89.2119 90.0131 89.0935 90.4487 88.8568C90.8867 88.6201 91.2394 88.2827 91.5069 87.8447C91.7768 87.4068 91.9615 86.8871 92.0609 86.2858C92.1603 85.7081 92.1509 85.2122 92.0325 84.7979C91.9165 84.3812 91.688 84.0616 91.3471 83.839C91.0086 83.6141 90.5552 83.5017 89.987 83.5017H88.5488L87.6042 89.2119Z" fill="white"/>
<path d="M125 114.809C124 114.68 119.953 119.115 119.953 120.265C119.953 121.416 121.104 121.416 121.104 123.142C121.104 124.868 116.501 130.621 116.501 130.621C116.501 130.621 109.598 141.552 108.447 142.702C107.296 143.853 100.968 147.305 100.968 149.031C100.968 150.757 100.968 151.332 101.543 152.483C102.119 153.633 104.995 153.633 105.571 154.784C106.146 155.934 104.995 156.51 103.845 157.66C102.694 158.811 100.968 155.359 97.5162 155.359C94.0643 155.359 89.462 160.537 86.5853 162.263C83.7087 163.989 81.983 168.591 81.4075 170.317C80.8321 172.043 81.983 172.043 81.4075 174.344C80.8321 176.646 77.3805 185.275 75.6544 187.001C73.9284 188.727 65.8742 196.206 65.2988 196.782C64.7234 197.357 64.7236 198.507 63.5729 199.083C62.4222 199.658 57.8199 200.809 54.9432 200.809C52.0666 200.809 50.3406 200.233 49.1901 199.083C48.0396 197.932 48.0394 197.357 46.8889 196.782C45.7384 196.206 42.8616 196.782 42.2864 196.206C41.7112 195.631 40.5606 192.754 37.6839 193.33C34.8072 193.905 30.7801 194.48 29.6296 193.33C28.4791 192.179 27.9036 191.028 27.3283 189.302C26.753 187.577 30.2051 181.823 31.3555 180.098C32.5059 178.372 35.9579 173.194 37.6839 170.893C39.41 168.591 46.8888 159.962 49.7654 158.236C52.6421 156.51 54.9432 156.51 54.9432 156.51C54.9432 156.51 60.6962 153.633 64.7235 151.332C68.7508 149.031 73.3531 143.853 75.6544 142.127C77.9558 140.401 79.6815 138.1 81.9828 135.799C84.2842 133.497 85.4346 130.045 85.4347 127.744C85.4348 125.443 85.4346 123.717 87.736 121.991C90.0373 120.265 90.0371 121.416 92.3384 120.265C94.6398 119.114 95.2149 116.238 96.3656 114.512C97.5163 112.786 95.2149 109.334 95.7903 107.608C96.3657 105.882 103.269 100.705 103.845 101.855C104.42 103.006 103.845 105.307 104.42 107.033C104.995 108.759 106.721 112.211 107.297 113.361C107.872 114.512 109.022 115.087 110.748 114.512C112.474 113.937 116.502 110.485 117.652 110.485C118.803 110.485 124 115.756 125 114.809ZM125 114.809C126 114.937 126.857 116.238 126.857 116.238C126.857 116.238 129.158 117.964 129.734 119.115C130.309 120.265 133.761 119.115 133.761 120.265C133.761 121.416 132.61 121.991 133.185 122.566C133.761 123.142 134.911 123.142 137.213 121.991C139.514 120.84 142.966 117.964 144.116 116.238C145.267 114.512 148.719 107.033 149.869 106.458C151.02 105.883 151.595 107.033 152.171 106.458C152.746 105.883 154.472 102.431 154.472 102.431C154.472 102.431 158.499 95.5265 158.499 93.2255C158.499 90.9245 156.773 91.4994 156.773 89.1984C156.773 86.8974 160.225 85.1709 161.376 84.5959C162.526 84.0208 167.129 85.1709 170.005 84.5959C172.882 84.0208 170.005 81.1438 170.581 79.4181C171.156 77.6924 172.86 79.0698 174.032 78.2675C175.942 76.9613 176.334 76.5413 176.909 73.0897C177.484 69.638 179.786 66.1859 179.786 63.8847C179.786 61.5834 178.635 61.5832 176.909 61.0081C175.183 60.4331 170.581 61.5837 169.43 62.7341C168.279 63.8844 169.43 65.6109 165.978 66.1859C162.526 66.761 161.951 66.1859 159.65 65.0353C157.348 63.8847 149.869 59.2822 149.869 59.2822C149.869 59.2822 148.143 58.7066 148.143 55.255C148.143 51.8034 148.143 51.2279 147.568 47.2007C146.993 43.1735 144.692 43.7486 144.116 42.5982C143.541 41.4478 145.267 32.2428 142.966 33.9685C140.664 35.6942 142.39 43.1735 142.39 43.1735L142.966 51.2279C142.966 51.2279 140.664 50.6528 140.089 50.0772C139.514 49.5017 140.089 47.2009 138.938 46.6254C137.788 46.0498 136.062 46.0498 135.487 44.8994C134.911 43.7491 134.911 36.2698 134.336 35.1191C133.761 33.9685 133.761 33.9685 133.185 32.8179C132.61 31.6673 134.336 27.0645 133.761 24.1882C133.185 21.3119 130.309 18.4349 129.158 17.8598C128.008 17.2848 126.282 16.1339 126.282 16.1339C126.282 16.1339 121.679 13.2576 119.953 12.682C118.227 12.1065 117.651 10.9591 116.5 9.80869C115.349 8.65831 112.151 4.10965 111 1.80859C109.849 -0.492462 106.721 0.600498 106.721 2.32643C106.721 4.05236 107.296 5.7783 107.872 8.07954C108.447 10.3808 110 11.3087 110.5 12.3087C111 13.3087 112 15.8087 112.5 16.8087C113 17.8087 115 20.3087 117 22.3087C119 24.3087 123.405 33.3932 125.131 36.2698C126.857 39.1463 129.734 46.6254 129.734 46.6254C129.734 46.6254 133.185 56.4057 133.185 61.0081C133.185 65.6106 129.158 75.9662 129.158 75.9662C129.158 75.9662 128.583 78.2675 126.857 78.8428C125.131 79.4181 120.529 80.5687 118.803 81.7193C117.077 82.8699 117.652 83.4453 118.227 85.7465C118.803 88.0477 126.857 92.0749 126.857 92.0749C126.857 92.0749 133.761 97.2527 134.336 98.4033C134.911 99.554 135.487 101.855 134.911 104.156C134.336 106.458 133.185 108.184 132.035 109.334C130.884 110.485 126.5 114.256 125 114.809Z" stroke="white" stroke-linecap="round"/>
<path d="M109.022 4.052C109.022 4.052 110.748 6.35325 111.324 7.50387C111.899 8.65449 114.775 13.8323 114.775 13.8323C114.775 13.8323 116.501 16.1335 117.652 16.7088C118.803 17.2842 119.953 17.2842 119.953 17.2842C119.953 17.2842 124.063 17.7116 126.282 19.0101C128.5 20.3086 128.925 21.432 129.5 24.3086C130.075 27.1851 130 31.3086 130 31.3086C130 31.3086 130.309 35.6941 130.309 36.8447C130.309 37.9953 131.5 41.5053 132.61 44.3086C133.72 47.1119 141.24 58.1312 140.664 59.8572C140.089 61.5831 137.788 61.0078 137.213 62.1584C136.637 63.309 136.637 66.1856 137.213 67.9115C137.788 69.6374 144.692 69.6374 144.116 71.3634C143.541 73.0893 142.39 72.514 140.664 73.6646C138.938 74.8152 138.363 75.3905 138.363 77.1165C138.363 78.8424 143.541 79.993 143.541 81.1437C143.541 82.2943 142.39 82.8696 141.24 83.4449C140.089 84.0202 137.213 80.5683 136.062 80.5683C134.911 80.5683 133.185 82.2943 132.61 84.0202C132.035 85.1708 131.22 89.3086 132.61 91.8086C134 94.3086 135.487 96.1017 136.062 96.677C136.637 97.2524 139.514 97.8277 139.514 100.129C139.514 102.43 136.637 104.156 136.637 105.307C136.637 106.457 138.363 107.608 137.213 109.334C136.062 111.06 134.336 109.909 133.185 110.485C132.035 111.06 130.884 112.21 130.309 112.786C129.734 113.361 129.158 117.388 127.432 117.964C125.706 118.539 122.83 112.786 121.104 113.361C119.378 113.936 116.501 117.964 114.775 118.539C113.05 119.114 110.173 119.114 108.447 119.114C106.721 119.114 103.269 122.566 102.119 123.717C100.968 124.867 103.269 127.169 102.119 128.319C100.968 129.47 95.2151 128.894 94.0645 130.62C92.3385 131.771 88.3111 139.25 87.7358 140.976C87.1605 142.702 87.7358 149.606 87.1605 150.756C86.5852 151.907 80.5 152.809 78 154.809C75.5 156.809 73.353 161.112 72.2024 161.687C71.0518 162.262 68.1752 161.112 67.0246 161.687C65.874 162.262 67.0246 164.564 66.4493 165.139C65.874 165.714 61.2715 169.166 60.6962 169.741C60.1209 170.317 58.395 168.591 56.0937 169.741C53.7925 170.892 49.7653 173.193 48.6147 173.769C45 175.308 45.1631 185.85 44.5875 187.576C44.012 189.302 42.2863 193.329 43.4369 194.48C44.5875 195.63 49.19 193.329 50.3406 195.055C51.4912 196.781 49.7653 197.356 49.7653 197.356" stroke="#FC5200" stroke-width="3" stroke-linecap="round"/>
</svg>
