<svg width="150" height="200" viewBox="0 0 150 200" fill="none" xmlns="http://www.w3.org/2000/svg">
<path d="M39.4369 103.036H38.7764C38.7693 102.787 38.7195 102.558 38.6272 102.347C38.5349 102.134 38.4059 101.948 38.2401 101.789C38.0744 101.631 37.8767 101.508 37.6471 101.42C37.4198 101.333 37.1653 101.289 36.8836 101.289C36.4196 101.289 35.9757 101.411 35.5519 101.654C35.1282 101.896 34.7636 102.251 34.4582 102.72C34.1528 103.189 33.9445 103.762 33.8332 104.439C33.7219 105.106 33.7397 105.668 33.8865 106.125C34.0332 106.58 34.2735 106.924 34.6073 107.159C34.9435 107.393 35.3377 107.51 35.7899 107.51C36.0787 107.51 36.3557 107.467 36.6208 107.379C36.886 107.291 37.1298 107.169 37.3524 107.013C37.5749 106.855 37.7702 106.669 37.9383 106.456C38.1064 106.243 38.2366 106.012 38.3289 105.763H38.9965C38.8805 106.097 38.7184 106.408 38.51 106.697C38.3017 106.984 38.0555 107.235 37.7714 107.45C37.4897 107.665 37.1784 107.833 36.8374 107.954C36.4989 108.075 36.1391 108.135 35.7579 108.135C35.1376 108.135 34.6133 107.98 34.1847 107.67C33.7586 107.36 33.4556 106.923 33.2757 106.36C33.0981 105.794 33.0732 105.128 33.2011 104.36C33.3266 103.608 33.5669 102.954 33.922 102.4C34.2794 101.846 34.7174 101.419 35.2359 101.118C35.7544 100.815 36.3178 100.664 36.9262 100.664C37.3145 100.664 37.6625 100.724 37.9703 100.845C38.278 100.963 38.5396 101.131 38.7551 101.349C38.9729 101.565 39.1398 101.815 39.2558 102.102C39.3718 102.388 39.4321 102.7 39.4369 103.036ZM46.7354 104.439C46.6099 105.189 46.3684 105.841 46.0109 106.395C45.6534 106.949 45.2166 107.378 44.7006 107.681C44.1845 107.984 43.6234 108.135 43.0173 108.135C42.3947 108.135 41.8691 107.98 41.4406 107.67C41.0145 107.358 40.7126 106.92 40.5351 106.356C40.3575 105.79 40.3315 105.125 40.4569 104.36C40.5824 103.61 40.8239 102.958 41.1814 102.404C41.5389 101.85 41.9768 101.421 42.4953 101.118C43.0138 100.815 43.5772 100.664 44.1856 100.664C44.8012 100.664 45.322 100.819 45.7481 101.129C46.1743 101.439 46.4773 101.877 46.6572 102.443C46.8372 103.006 46.8632 103.672 46.7354 104.439ZM46.0997 104.36C46.2086 103.712 46.1944 103.159 46.0571 102.702C45.9221 102.245 45.6901 101.896 45.3611 101.654C45.032 101.411 44.6331 101.289 44.1643 101.289C43.679 101.289 43.2233 101.414 42.7971 101.665C42.371 101.914 42.0076 102.274 41.7069 102.745C41.4063 103.213 41.2003 103.778 41.089 104.439C40.9825 105.085 40.9967 105.638 41.1317 106.097C41.2666 106.554 41.4986 106.904 41.8277 107.148C42.1591 107.39 42.5604 107.51 43.0315 107.51C43.5192 107.51 43.9761 107.385 44.4023 107.134C44.8284 106.883 45.1906 106.523 45.4889 106.054C45.7896 105.583 45.9932 105.019 46.0997 104.36ZM47.7448 108.036L48.9521 100.763H51.2994C51.8155 100.763 52.231 100.855 52.5459 101.04C52.8631 101.225 53.0821 101.482 53.2029 101.811C53.326 102.137 53.3532 102.514 53.2845 102.94C53.2135 103.361 53.062 103.734 52.83 104.059C52.6003 104.383 52.2973 104.637 51.9209 104.822C51.5445 105.004 51.1006 105.096 50.5892 105.096H48.5935L48.6965 104.488H50.6744C51.0556 104.488 51.3823 104.426 51.6546 104.3C51.9268 104.175 52.1446 103.996 52.308 103.764C52.4713 103.532 52.579 103.257 52.6311 102.94C52.6832 102.62 52.6655 102.342 52.5779 102.105C52.4926 101.869 52.334 101.685 52.102 101.555C51.8724 101.425 51.5658 101.36 51.1823 101.36H49.5168L48.4088 108.036H47.7448ZM51.4948 104.755L52.7412 108.036H51.9777L50.7526 104.755H51.4948ZM58.9007 102.62C58.9172 102.194 58.7906 101.86 58.5207 101.619C58.2532 101.378 57.8779 101.257 57.395 101.257C57.0588 101.257 56.751 101.316 56.4717 101.434C56.1947 101.55 55.9662 101.71 55.7863 101.914C55.6088 102.117 55.4987 102.349 55.4561 102.61C55.4253 102.802 55.4395 102.97 55.4987 103.114C55.5579 103.256 55.649 103.379 55.7721 103.483C55.8952 103.587 56.0361 103.676 56.1947 103.75C56.3557 103.823 56.519 103.885 56.6847 103.934L57.4198 104.154C57.6376 104.218 57.8543 104.3 58.0697 104.4C58.2851 104.499 58.4769 104.623 58.645 104.772C58.8131 104.922 58.9374 105.105 59.0178 105.323C59.1007 105.541 59.1173 105.801 59.0676 106.104C59.0013 106.497 58.8427 106.849 58.5917 107.159C58.3431 107.467 58.0164 107.71 57.6116 107.89C57.2068 108.07 56.7392 108.16 56.2089 108.16C55.7141 108.16 55.2974 108.079 54.9589 107.915C54.6204 107.749 54.3706 107.521 54.2096 107.23C54.0486 106.939 53.9871 106.601 54.0249 106.218H54.7068C54.6807 106.504 54.734 106.747 54.8666 106.946C55.0015 107.145 55.1933 107.296 55.4419 107.4C55.6928 107.502 55.9816 107.553 56.3083 107.553C56.6705 107.553 57.0032 107.493 57.3062 107.372C57.6092 107.249 57.859 107.078 58.0555 106.86C58.2544 106.64 58.3775 106.385 58.4248 106.093C58.4674 105.847 58.4378 105.64 58.336 105.472C58.2366 105.304 58.0815 105.163 57.8708 105.049C57.6625 104.933 57.4139 104.832 57.1251 104.744L56.2941 104.488C55.752 104.323 55.3483 104.089 55.0832 103.789C54.8204 103.488 54.7269 103.105 54.8026 102.638C54.8689 102.245 55.0311 101.901 55.2892 101.605C55.5496 101.306 55.8727 101.074 56.2586 100.909C56.6445 100.743 57.0612 100.66 57.5086 100.66C57.9608 100.66 58.3455 100.744 58.6627 100.912C58.9823 101.08 59.2191 101.312 59.373 101.608C59.5292 101.902 59.5872 102.239 59.547 102.62H58.9007ZM60.3424 108.036L61.5498 100.763H65.7686L65.6691 101.36H62.1144L61.6599 104.098H64.9909L64.8914 104.694H61.5605L61.1059 107.439H64.7316L64.6322 108.036H60.3424Z" fill="white"/>
</svg>
