<svg width="200" height="200" viewBox="0 0 200 200" fill="none" xmlns="http://www.w3.org/2000/svg">
<path d="M85.2101 107.855L86.4175 100.582H90.6256L90.5261 101.179H86.9821L86.5276 103.917H89.7413L89.6419 104.513H86.4281L85.8742 107.855H85.2101ZM91.0695 107.855L92.2769 100.582H94.6242C95.1403 100.582 95.5557 100.675 95.8706 100.859C96.1878 101.044 96.4068 101.301 96.5276 101.63C96.6507 101.957 96.6779 102.333 96.6092 102.759C96.5382 103.181 96.3867 103.553 96.1547 103.878C95.9251 104.202 95.622 104.457 95.2456 104.641C94.8692 104.823 94.4253 104.915 93.9139 104.915H91.9182L92.0212 104.307H93.9992C94.3803 104.307 94.707 104.245 94.9793 104.119C95.2515 103.994 95.4693 103.815 95.6327 103.583C95.796 103.351 95.9037 103.076 95.9558 102.759C96.0079 102.439 95.9902 102.161 95.9026 101.925C95.8173 101.688 95.6587 101.504 95.4267 101.374C95.1971 101.244 94.8905 101.179 94.507 101.179H92.8415L91.7335 107.855H91.0695ZM94.8195 104.574L96.0659 107.855H95.3024L94.0773 104.574H94.8195ZM97.3887 107.855H96.6927L100.546 100.582H101.256L102.694 107.855H101.998L100.787 101.445H100.741L97.3887 107.855ZM98.3546 105.067H101.963L101.863 105.664H98.2552L98.3546 105.067ZM110.812 100.582L109.605 107.855H108.958L105.674 101.765H105.617L104.605 107.855H103.941L105.148 100.582H105.791L109.086 106.68H109.143L110.159 100.582H110.812ZM118.055 102.855H117.394C117.387 102.606 117.337 102.377 117.245 102.166C117.153 101.953 117.024 101.767 116.858 101.609C116.692 101.45 116.494 101.327 116.265 101.239C116.038 101.152 115.783 101.108 115.501 101.108C115.037 101.108 114.593 101.23 114.17 101.474C113.746 101.715 113.381 102.07 113.076 102.539C112.77 103.008 112.562 103.581 112.451 104.258C112.34 104.925 112.357 105.488 112.504 105.944C112.651 106.399 112.891 106.743 113.225 106.978C113.561 107.212 113.955 107.329 114.408 107.329C114.696 107.329 114.973 107.286 115.239 107.198C115.504 107.11 115.747 106.989 115.97 106.832C116.193 106.674 116.388 106.488 116.556 106.275C116.724 106.062 116.854 105.831 116.947 105.582H117.614C117.498 105.916 117.336 106.227 117.128 106.516C116.919 106.803 116.673 107.054 116.389 107.269C116.107 107.484 115.796 107.653 115.455 107.773C115.117 107.894 114.757 107.954 114.376 107.954C113.755 107.954 113.231 107.799 112.802 107.489C112.376 107.179 112.073 106.742 111.893 106.179C111.716 105.613 111.691 104.947 111.819 104.18C111.944 103.427 112.185 102.773 112.54 102.219C112.897 101.665 113.335 101.238 113.854 100.937C114.372 100.634 114.935 100.483 115.544 100.483C115.932 100.483 116.28 100.543 116.588 100.664C116.896 100.782 117.157 100.95 117.373 101.168C117.591 101.384 117.757 101.635 117.873 101.921C117.989 102.207 118.05 102.519 118.055 102.855ZM118.794 107.855L120.001 100.582H124.22L124.121 101.179H120.566L120.112 103.917H123.443L123.343 104.513H120.012L119.558 107.258H123.183L123.084 107.855H118.794Z" fill="white"/>
</svg>
