<svg width="151" height="201" viewBox="0 0 151 201" fill="none" xmlns="http://www.w3.org/2000/svg">
<path d="M38.4503 69.8872C38.4503 69.8872 27.5496 69.3147 27.1193 69.8872C26.689 70.4598 28.1233 74.0382 27.1193 74.4677C26.1152 74.8971 20.378 74.4677 19.2305 73.0363C18.0831 71.6049 10.6247 50.4204 9.62065 48.7028C8.61664 46.9851 4.60056 48.989 3.59654 47.9871C2.59252 46.9851 0.727918 43.9792 0.727918 41.689C0.727918 39.3988 5.03085 38.9694 5.60458 37.3948C6.1783 35.8203 6.32174 32.9576 5.60458 32.2419C4.88742 31.5262 1.30164 32.6713 0.727918 31.383C0.154193 30.0948 0.727918 15.6378 1.73194 14.2064C2.73595 12.7751 3.20916 11.9697 5.60458 10.4847C8 8.99979 30 3.49979 32 3.99979C34 4.49979 37.4463 6.33385 39.5978 7.76523C41.7493 9.19661 44.9047 9.19655 46.1956 10.4849C47.4865 11.7732 48.9208 14.9221 49.7814 17.6418C50.642 20.3615 48.4905 23.7967 49.7814 26.0869C51.0723 28.3772 57.8135 31.383 57.8135 31.383M38.4503 69.8872C38.4503 69.8872 40.6018 68.0265 43.1836 67.4539C45.7653 66.8813 43.7573 60.7264 44.9047 59.7244C46.0522 58.7224 47.6299 60.297 48.4905 59.0087C49.3511 57.7205 54.2278 52.9969 54.2278 51.1361C54.2278 49.2753 53.654 47.8439 54.2278 46.842C54.8015 45.84 58.5307 44.1223 58.6741 42.4047C58.8176 40.687 57.5267 33.1007 57.8135 31.383M38.4503 69.8872C38.4503 69.8872 41.319 70.7461 42.7533 71.0323C44.1876 71.3186 46.1956 69.3147 47.3431 68.4559C48.4905 67.597 50.3551 64.1617 52.2197 64.3048C54.0843 64.448 56.2358 68.3127 56.3792 69.8872C56.5227 71.4618 54.9449 70.1735 54.2278 71.0323C53.5106 71.8912 54.2278 77.6167 54.2278 78.6187C54.2278 79.6206 51.5026 82.3403 51.3591 82.9128C51.2157 83.4854 52.0763 84.2011 53.2237 84.6305C54.3712 85.0599 57.5267 79.9069 59.2479 80.05C60.969 80.1932 62.4033 80.3363 62.9771 81.6246C63.5508 82.9128 64.1245 87.0638 64.6982 88.2089C65.272 89.354 67.8537 91.7874 72.587 91.6442C77.3202 91.5011 74.595 86.3481 75.4556 85.203C76.3162 84.0579 81.1928 82.9128 81.1928 82.9128M57.8135 31.383C57.8135 31.383 55.6621 28.234 55.6621 27.5183C55.6621 26.8026 55.6621 24.9418 57.8135 24.6555C59.965 24.3693 60.2519 26.2301 61.6862 27.5183C63.1205 28.8066 63.5508 34.9615 63.5508 34.9615C63.5508 34.9615 64.1245 44.5518 64.6982 45.6969C65.272 46.842 66.9749 44.758 66.9931 46.2694C67.0114 47.7808 70.0052 52.7106 70.8658 53.7126C71.7264 54.7146 69.288 53.9989 69.0012 54.5714C68.7143 55.144 68.1406 61.2989 69.0012 61.2989C69.8618 61.2989 70.5789 58.1499 71.5829 57.7205C72.587 57.2911 73.591 59.1519 73.8778 59.7244C74.1647 60.297 72.587 61.2989 72.587 61.2989M81.1928 82.9128C79.9019 81.6246 67.8537 77.7598 67.8537 77.7598L64.6982 68.4559L65.7023 63.5891L72.587 61.2989M81.1928 82.9128C81.6231 84.2011 79.6151 84.7736 79.4717 85.7756C79.3282 86.7775 83.3443 95.2227 83.3443 95.2227C83.3443 95.2227 84.3483 97.9423 85.3523 98.658C86.3564 99.3737 86.9301 99.2306 86.3564 100.662C85.7826 102.093 80.4757 102.523 80.1888 103.382C79.9019 104.24 79.4716 109.393 80.1888 110.395C80.906 111.397 83.6312 109.25 84.7786 109.823C85.9261 110.395 89.0815 112.972 88.7947 114.833C88.5078 116.693 83.1886 117.758 83.3443 120.129C83.5 122.5 87.7207 128.293 87.3604 129.146C87 130 85.9261 129.146 85.3523 131.294C84.7786 133.441 86.5 135.5 87.3604 135.731C88.2207 135.962 88 135 88.9381 134.503M72.587 61.2989C72.587 61.2989 74.595 64.3048 76.0293 64.3048C77.4636 64.3048 79.7585 62.444 81.1928 62.1578C82.6271 61.8715 83.2009 61.1558 85.4958 61.2989C87.7907 61.4421 86.3563 63.1597 87.3604 64.3048C88.3644 65.4499 90.3724 66.4519 92.3805 67.4539C94.3885 68.4559 100.413 66.0225 100.699 68.4559C100.986 70.8892 95.9662 76.1853 95.8228 77.7598C95.6794 79.3344 96.9703 80.6226 97.8308 80.05C98.6914 79.4775 98.1177 77.4736 98.8349 77.0441C99.552 76.6147 102.851 76.1853 103.998 76.6147C105.146 77.0441 105.002 79.3344 104.716 80.6226C104.429 81.9108 98.548 82.4834 98.548 82.4834C98.548 82.4834 99.8389 87.0638 101.417 87.0638C102.994 87.0638 103.138 84.9167 104.716 84.6305C106.293 84.3442 106.58 85.0599 106.867 88.2089C107.154 91.358 109.449 101.763 110.023 103.382C110.596 105 110.74 105.958 113.465 107.246C116.19 108.535 116.764 106.101 118.485 105.672C120.206 105.242 120.206 111.97 122.071 111.684C123.935 111.397 127.234 110.395 127.234 110.395C127.234 110.395 129.673 109.823 129.816 111.684C129.959 113.544 124.222 115.405 125.083 116.693C125.943 117.982 128.525 117.982 129.816 120.129C131.107 122.276 132.254 124.852 132.972 126.999C133.689 129.146 132.685 131.723 133.689 133.441C134.693 135.158 136.414 132.868 136.414 134.586C136.414 136.303 134.289 137.283 134.433 138.715C134.576 140.146 135.41 147.754 135.123 149.329C135.123 150.188 134.98 153.909 135.697 154.911C136.414 155.913 142.151 162.355 141.864 165.074C141.864 165.79 141.864 168.08 141.864 169.225C141.864 170.37 146.129 173.329 147.315 174.664C148.5 176 149.61 176.382 149.036 178.1C148.462 179.817 142.438 182.537 141.864 182.394C141.291 182.251 140.86 181.392 140.86 181.392M140.86 181.392C141.588 180.665 142.295 180.39 142.725 179.531C143.155 178.672 143.012 176.955 142.725 176.096C142.438 175.237 140.169 174 139.426 172.517C138.683 171.035 138.422 169.225 138.422 169.225C138.422 169.225 137.848 166.649 137.418 165.79C136.988 164.931 135.697 161.639 135.123 160.351C134.549 159.062 131.681 157.345 131.681 157.345M140.86 181.392L136.127 183.11C136.127 183.11 132.18 184.5 131.5 186.5C130.82 188.5 131.64 192.557 130.82 193.272C130 193.988 126 200 123.935 198.998C121.871 197.996 121 195 120.35 193.988C119.699 192.976 118 189.5 115.903 189.121C113.806 188.743 112.848 189.751 112.174 191.125C111.5 192.5 111.774 193.908 111.887 194.704C112 195.5 113.29 196.633 113.895 197.567C114.5 198.5 115.364 199.5 114.182 200C113 200.5 111.037 198.998 109.018 198.998C107 198.998 97 201 95.5359 199.427C94.0719 197.855 99 183 96.2531 180.533C93.5062 178.066 87 181 85.9261 179.961C84.8521 178.921 78.5 155.5 78.0373 154.625C77.5747 153.75 76.5 154 76.603 153.051C76.7061 152.101 76.603 151 77.1768 150.331C77.7505 149.662 79.4513 149.662 80.4757 150.331C81.5 151 81.5331 152.674 81.7666 153.337C82 154 85.7127 154.827 86.3564 155.913C87 157 86.0733 159.988 86.7866 160.494C87.5 161 93.5 159.205 94.2451 159.205C94.9901 159.205 97.4006 159.205 97.4006 159.205M131.681 157.345C131.681 157.345 133.115 156.056 132.972 155.484C132.828 154.911 129.959 153.051 129.673 152.192C129.386 151.333 129.673 145.894 129.673 145.321C129.673 144.749 128.692 144.033 128.382 143.46C128.071 142.887 130.533 142.172 130.533 141.027C130.533 139.882 127.234 129.146 127.234 129.146C127.234 129.146 124.222 122.848 123.792 121.56C123.362 120.272 125.083 119.27 124.509 118.268C123.935 117.266 114.756 113.258 114.756 113.258C114.756 113.258 111.027 112.113 110.596 111.684C110.166 111.254 110.883 110.968 110.596 110.395C110.309 109.823 106.58 110.968 105.146 110.395C103.712 109.823 103.425 108.535 103.425 108.535C103.425 108.535 102.708 102.952 101.99 102.093C101.273 101.235 96.2531 100.662 95.1057 100.662C93.9582 100.662 90.9462 100.089 90.229 100.662C89.5118 101.235 89.6553 105.958 90.229 107.246C90.8027 108.535 94.2451 111.684 95.1057 113.258C95.9662 114.833 98.548 117.982 98.548 120.129C98.548 122.276 96.9703 123.278 96.9703 123.278C96.9703 123.278 97.1137 125.854 95.8228 129.146C94.5319 132.439 88.9381 134.503 88.9381 134.503M131.681 157.345C131.681 157.345 127.46 156.689 126.23 157.345C125 158 120.699 161.854 120.35 162.927C120 164 118.888 168.305 117.194 168.653C115.5 169 111.5 167 110.453 166.649C109.406 166.297 102 162.5 100.843 161.639C99.6858 160.778 97.4006 159.205 97.4006 159.205M97.4006 159.205C97.4006 159.205 101.5 140 100.413 138.307C99.3252 136.615 93 138.307 91.8067 137.162C90.6135 136.017 88.9381 134.503 88.9381 134.503" stroke="white"/>
<path d="M28.0859 48.5449C28.0859 48.5449 30.8089 49.6862 31.8121 48.9729C32.8153 48.2596 33 48 34.9649 46.4048C36.9299 44.8096 37.4013 45.2633 38.4044 43.694C39.4076 42.1246 39.5509 41.1258 40.2675 39.8417C40.9841 38.5577 40.1242 37.8443 40.8408 35.8468C41.5573 33.8494 44.8535 32.708 46.2866 32.9933C47.7198 33.2787 50.1561 34.9908 50.7293 35.8468C51.3026 36.7029 52.5924 39.1284 53.0223 40.6978C53.4523 42.2672 53.3089 44.978 53.7389 45.5487C54.1688 46.1194 56.2834 46.4293 57 47C57.7166 47.5707 60.0446 48.2596 61.9077 48.9729C63.7708 49.6863 64.0701 50.0013 64.5 51C64.9299 51.9987 65.0606 52.1118 66.0638 53.3958C67.0669 54.6799 69.0733 59.1028 69.0733 59.1028C69.0733 59.1028 72.3695 66.3793 73.0861 67.5207C73.8026 68.6621 76.3823 67.9487 77.2421 68.5194C78.102 69.0901 81.8281 70.8022 82.4014 72.2289C82.9746 73.6557 84.1211 79.3627 83.9778 80.5041C83.8345 81.6455 82.4014 82.9295 82.4014 83.7856C82.4014 84.6416 84.8377 85.9257 84.8377 85.9257C84.8377 85.9257 87.1307 88.0658 87.1307 89.4926C87.1307 90.9193 87.1307 92.1013 87.1307 93.7728C87.1307 93.7728 87.4173 100.336 87.5606 101.905C87.7039 103.475 90.1403 101.763 90.7135 102.333C91.2868 102.904 92.2899 104.045 93.8664 104.901C95.4428 105.758 100.889 106.614 101.749 107.612C102.608 108.611 101.175 110.608 101.749 111.75C102.322 112.891 102.608 113.319 103.468 113.747C104.328 114.175 105.331 112.178 106.048 112.321C106.765 112.463 108.341 112.606 109.917 113.747C111.494 114.889 110.061 117.885 111.494 119.597C112.927 121.309 120.093 117.885 120.952 119.026C121.812 120.168 122.816 125.304 123.245 126.303C123.675 127.301 125.109 130.583 125.682 131.296C126.255 132.01 127.688 134.007 127.975 135.006C128.261 136.005 124.105 137.717 124.105 138.858C124.105 139.999 126.398 140.428 126.542 141.141C126.685 141.854 127.831 145.564 127.545 146.705C127.258 147.847 125.538 147.419 125.682 148.845C125.825 150.272 127.545 150.985 127.545 150.985C127.545 150.985 129.981 153.696 129.981 155.266C129.981 156.835 127.545 162.114 127.545 163.684C127.545 165.253 129.121 164.825 129.551 166.537C129.981 168.249 129.265 170.104 129.981 170.96C130.698 171.816 139.927 169.5 140.5 169.5" stroke="#FC5200" stroke-width="3"/>
</svg>
