<svg width="155" height="206" viewBox="0 0 155 206" fill="none" xmlns="http://www.w3.org/2000/svg">
<g filter="url(#filter0_d_136_30)">
<g filter="url(#filter1_d_136_30)">
<path d="M38.2756 25.5L37.4908 18.2273H38.1655L38.7727 24.4808H38.8295L41.5178 18.2273H42.2848L42.8956 24.4808H42.9524L45.6371 18.2273H46.3189L43.1193 25.5H42.4055L41.745 19.3317H41.6989L38.9858 25.5H38.2756ZM45.7525 25.5H45.0565L48.9094 18.2273H49.6197L51.0579 25.5H50.3619L49.1509 19.0902H49.1048L45.7525 25.5ZM46.7184 22.7124H50.3263L50.2269 23.3089H46.619L46.7184 22.7124Z" fill="white"/>
</g>
<g filter="url(#filter2_d_136_30)">
<path d="M43.5703 63.9027C43.4448 64.6532 43.2034 65.3054 42.8459 65.8594C42.4884 66.4134 42.0516 66.8419 41.5355 67.1449C41.0194 67.4479 40.4583 67.5994 39.8523 67.5994C39.2296 67.5994 38.7041 67.4444 38.2756 67.1342C37.8494 66.8217 37.5476 66.3838 37.37 65.8203C37.1925 65.2545 37.1664 64.5893 37.2919 63.8246C37.4174 63.0741 37.6589 62.4219 38.0163 61.8679C38.3738 61.3139 38.8118 60.8854 39.3303 60.5824C39.8487 60.2794 40.4122 60.1278 41.0206 60.1278C41.6361 60.1278 42.157 60.2829 42.5831 60.593C43.0092 60.9032 43.3123 61.3411 43.4922 61.907C43.6721 62.4704 43.6982 63.1357 43.5703 63.9027ZM42.9347 63.8246C43.0436 63.1759 43.0294 62.6231 42.892 62.1662C42.7571 61.7093 42.5251 61.3601 42.196 61.1186C41.867 60.8748 41.468 60.7528 40.9993 60.7528C40.514 60.7528 40.0582 60.8783 39.6321 61.1293C39.206 61.3778 38.8426 61.7377 38.5419 62.2088C38.2412 62.6776 38.0353 63.2422 37.924 63.9027C37.8175 64.549 37.8317 65.1018 37.9666 65.5611C38.1016 66.018 38.3336 66.3684 38.6626 66.6122C38.9941 66.8537 39.3954 66.9744 39.8665 66.9744C40.3542 66.9744 40.8111 66.849 41.2372 66.598C41.6634 66.3471 42.0256 65.9872 42.3239 65.5185C42.6245 65.0473 42.8281 64.4827 42.9347 63.8246ZM44.5797 67.5L45.7871 60.2273H48.1344C48.6505 60.2273 49.066 60.3196 49.3809 60.5043C49.6981 60.6889 49.9171 60.9458 50.0378 61.2749C50.1609 61.6016 50.1882 61.978 50.1195 62.4041C50.0485 62.8255 49.897 63.1984 49.665 63.5227C49.4353 63.8471 49.1323 64.1016 48.7559 64.2862C48.3794 64.4685 47.9355 64.5597 47.4242 64.5597H45.4284L45.5314 63.9524H47.5094C47.8906 63.9524 48.2173 63.8897 48.4895 63.7642C48.7618 63.6387 48.9796 63.46 49.1429 63.228C49.3063 62.996 49.414 62.7214 49.4661 62.4041C49.5182 62.0845 49.5004 61.8063 49.4128 61.5696C49.3276 61.3329 49.169 61.1494 48.937 61.0192C48.7073 60.889 48.4007 60.8239 48.0172 60.8239H46.3517L45.2438 67.5H44.5797ZM48.3297 64.2188L49.5762 67.5H48.8127L47.5875 64.2188H48.3297Z" fill="white"/>
</g>
<g filter="url(#filter3_d_136_30)">
<path d="M45.5277 141.5H44.8672C44.8601 141.251 44.8104 141.022 44.718 140.811C44.6257 140.598 44.4967 140.412 44.331 140.254C44.1652 140.095 43.9676 139.972 43.7379 139.884C43.5107 139.797 43.2562 139.753 42.9744 139.753C42.5104 139.753 42.0665 139.875 41.6428 140.119C41.219 140.36 40.8544 140.715 40.549 141.184C40.2436 141.653 40.0353 142.226 39.924 142.903C39.8127 143.57 39.8305 144.133 39.9773 144.589C40.1241 145.044 40.3643 145.388 40.6982 145.623C41.0343 145.857 41.4285 145.974 41.8807 145.974C42.1695 145.974 42.4465 145.931 42.7116 145.843C42.9768 145.755 43.2206 145.634 43.4432 145.477C43.6657 145.319 43.861 145.133 44.0291 144.92C44.1972 144.707 44.3274 144.476 44.4197 144.227H45.0874C44.9714 144.561 44.8092 144.872 44.6009 145.161C44.3925 145.448 44.1463 145.699 43.8622 145.914C43.5805 146.129 43.2692 146.298 42.9283 146.418C42.5897 146.539 42.2299 146.599 41.8487 146.599C41.2285 146.599 40.7041 146.444 40.2756 146.134C39.8494 145.824 39.5464 145.387 39.3665 144.824C39.1889 144.258 39.1641 143.592 39.2919 142.825C39.4174 142.072 39.6577 141.418 40.0128 140.864C40.3703 140.31 40.8082 139.883 41.3267 139.582C41.8452 139.279 42.4086 139.128 43.017 139.128C43.4053 139.128 43.7533 139.188 44.0611 139.309C44.3688 139.427 44.6304 139.595 44.8459 139.813C45.0637 140.029 45.2306 140.28 45.3466 140.566C45.4626 140.853 45.523 141.164 45.5277 141.5ZM46.2779 146.5H45.5819L49.4348 139.227H50.1451L51.5833 146.5H50.8873L49.6763 140.09H49.6301L46.2779 146.5ZM47.2438 143.712H50.8517L50.7523 144.309H47.1444L47.2438 143.712Z" fill="white"/>
</g>
<g filter="url(#filter4_d_136_30)">
<path d="M46.9879 86.035L47.6579 122.407C47.6579 122.407 93.5075 167.68 94.8475 169.116C96.1875 170.551 102.027 175.337 99.7292 178.113C97.4318 180.888 95.7334 183.186 94.8475 188.546C94.5145 189.519 98.8677 195.437 96.4747 195.82C94.0817 196.203 73.3107 198.5 73.3107 198.5C73.4263 196.912 74.5549 194.671 69.4818 188.546C64.4087 182.42 62.1115 183.473 60.1014 182.42C58.0913 181.367 57.517 181.941 55.2197 180.888C52.9224 179.836 56.21 176.448 52.2524 176.773C48.2948 177.098 41.5319 176.103 41.5319 174.188C41.5319 172.274 42.157 170.298 41.5319 168.063C39.4169 168.38 38.8213 167.438 38.5646 164.234C30.4671 156.78 30.3043 155.767 29.6627 153.705C28.3161 150.621 30.0455 149.303 31.8642 148.633C33.6829 147.963 30.8113 146.335 30.8113 146.335C30.8113 146.335 28.4183 146.718 27.2697 145.474C26.121 144.23 23.9195 141.741 24.2067 139.252C24.4938 136.764 25.1638 135.807 24.2067 135.424C23.2495 135.041 21.1436 134.084 20.3779 132.265C19.6121 130.447 14.8262 125.182 13.6775 122.407C12.5289 119.631 14.4433 115.994 13.6775 113.888C12.9118 111.782 10.9974 110.825 10.1359 109.389C9.27445 107.954 7.93438 108.528 7.45578 105.657C6.97719 102.785 9.65732 100.871 10.1359 99.0522C10.6145 97.2336 9.27445 86.035 9.27445 86.035M46.9879 86.035H9.27445M46.9879 86.035H74.0764V64.4034L74.555 60.7662L72.0663 57.5119L76.2779 48.8976L78.4795 43.059L77.0437 40.8575L74.555 38.6561M9.27445 86.035C9.27445 86.035 7.93438 85.5564 7.64722 84.2164C7.36006 82.8764 8.0301 80.5792 7.64722 78.9521C7.26434 77.3249 6.83787 77.1529 6.21143 76.1763C5.58499 75.1997 9.84876 68.8063 10.0402 66.222C10.2316 63.6377 9.42871 56.7542 10.806 50.9076C10.806 50.9076 10.806 45.9304 11.6674 44.8775C12.5289 43.8247 10.2316 42.9632 10.806 40.8575C11.3803 38.7518 11.6674 35.4975 11.6674 35.4975M74.555 38.6561C66.1648 38.2449 56.6427 39.2711 50.9123 39.7089C48.3481 40.0369 46.3177 40.5703 45.0734 41.2404C43.829 41.9104 38.0859 42.9632 36.6502 42.6761C35.2145 42.389 28.6098 43.5375 27.844 44.0161C27.0782 44.4947 23.9194 43.2504 23.1537 42.4847C22.3879 41.7189 22.3879 40.5704 22.1008 39.9961C21.8137 39.4218 20.665 38.0818 18.2721 36.7418C15.8791 35.4018 11.6674 35.4975 11.6674 35.4975M74.555 38.6561L73.5978 34.8275V2.9544C73.5978 2.9544 23.0581 2.28439 21.6222 2.57154C20.1864 2.85868 24.5896 5.44299 24.2067 6.01727C23.8237 6.59156 19.2293 6.59156 19.2293 6.59156C19.2293 6.59156 17.4107 7.07014 17.4106 8.50586C17.4105 9.94159 18.0806 9.84587 18.6549 10.3244C19.2293 10.803 21.3351 10.0373 21.6222 10.803C21.9093 11.5687 22.2923 12.6216 21.1436 12.6216C19.9949 12.6216 11.093 13.2916 10.2316 12.6216L10.2096 12.6045C9.31925 11.9119 6.29842 9.56192 5.25424 9.94159C4.20127 10.3244 4.29705 13.9616 5.25424 15.9716C6.21143 17.9816 10.4661 28.6223 10.2316 30.0417C9.99714 31.4611 12.5289 28.8931 12.7203 29.6589C12.9118 30.4246 11.8589 32.1475 11.6674 33.1046C11.476 34.0618 10.2316 34.2532 10.2316 34.2532C10.2316 34.2532 9.65732 35.0189 10.2316 35.4975C10.806 35.9761 11.6674 35.4975 11.6674 35.4975" stroke="white" stroke-linecap="round" shape-rendering="crispEdges"/>
</g>
<g filter="url(#filter5_d_136_30)">
<path d="M77.4228 196.19C77.4228 196.19 77.5775 195.887 78.0582 195.311C78.5389 194.736 79.8848 193.106 79.8848 191.476C79.8848 189.845 78.4427 190.325 78.0582 188.79C77.6737 187.256 81.0384 183.516 78.8273 179.201C76.6162 174.885 71.4248 178.529 69.502 177.283C67.5792 176.036 62.4839 177.762 63.1569 176.036C63.8299 174.31 62.5213 170.486 61.811 168.748C61.1007 167.009 63.8299 167.213 63.8299 165.679C63.8299 164.145 63.8299 153.98 63.8299 153.98C63.331 148.562 61.4264 141.513 58.6385 140.746C55.8505 139.979 53.9277 133.841 52.005 132.115C50.0823 130.389 46.0636 126.783 45.4524 123.93C45.4524 123.93 44.6259 121.15 44.4337 119.04C44.2414 116.931 45.0831 114.758 42.872 113.511C40.6608 112.264 36.2384 109.387 35.6617 105.264C35.0849 101.14 34.7003 98.7427 33.7389 97.4001C32.7776 96.0575 30.4703 96.4411 29.4127 96.6329C28.3552 96.8247 20.8565 91.2627 20.472 89.8242C20.0874 88.3857 21.1449 86.7555 22.4909 85.5088C23.8368 84.2621 24.9904 84.0703 25.7595 83.3032C26.5286 82.536 27.7784 81.3852 30.3741 80.8098C32.9698 80.2344 28.8359 76.878 28.9321 74.097C29.0282 71.316 31.8162 64.0278 32.4891 61.5344C33.1621 59.0411 31.2394 57.8903 32.4891 51.2734C33.7389 44.6565 31.8162 43.4098 31.8162 42.1631C31.8162 40.9165 33.1621 39.8616 34.6042 35.3544C36.0462 30.8472 34.6042 28.1621 35.2771 26.1482C35.9501 24.1344 34.6042 23.7508 35.2771 22.1205C35.9501 20.4903 38.7381 14.5446 37.5844 12.1472C36.4308 9.74977 40.1366 8.31564 40.1366 4.47974" stroke="#FC5200" stroke-width="3" stroke-linecap="round"/>
</g>
</g>
<defs>
<filter id="filter0_d_136_30" x="2" y="-1" width="154.5" height="204" filterUnits="userSpaceOnUse" color-interpolation-filters="sRGB">
<feFlood flood-opacity="0" result="BackgroundImageFix"/>
<feColorMatrix in="SourceAlpha" type="matrix" values="0 0 0 0 0 0 0 0 0 0 0 0 0 0 0 0 0 0 127 0" result="hardAlpha"/>
<feOffset dy="0.5"/>
<feGaussianBlur stdDeviation="1"/>
<feComposite in2="hardAlpha" operator="out"/>
<feColorMatrix type="matrix" values="0 0 0 0 0 0 0 0 0 0 0 0 0 0 0 0 0 0 0.5 0"/>
<feBlend mode="normal" in2="BackgroundImageFix" result="effect1_dropShadow_136_30"/>
<feBlend mode="normal" in="SourceGraphic" in2="effect1_dropShadow_136_30" result="shape"/>
</filter>
<filter id="filter1_d_136_30" x="33.4907" y="16.2273" width="21.5674" height="15.2727" filterUnits="userSpaceOnUse" color-interpolation-filters="sRGB">
<feFlood flood-opacity="0" result="BackgroundImageFix"/>
<feColorMatrix in="SourceAlpha" type="matrix" values="0 0 0 0 0 0 0 0 0 0 0 0 0 0 0 0 0 0 127 0" result="hardAlpha"/>
<feOffset dy="2"/>
<feGaussianBlur stdDeviation="2"/>
<feComposite in2="hardAlpha" operator="out"/>
<feColorMatrix type="matrix" values="0 0 0 0 0 0 0 0 0 0 0 0 0 0 0 0 0 0 0.25 0"/>
<feBlend mode="normal" in2="BackgroundImageFix" result="effect1_dropShadow_136_30"/>
<feBlend mode="normal" in="SourceGraphic" in2="effect1_dropShadow_136_30" result="shape"/>
</filter>
<filter id="filter2_d_136_30" x="33.1035" y="58.1279" width="21.1191" height="15.4714" filterUnits="userSpaceOnUse" color-interpolation-filters="sRGB">
<feFlood flood-opacity="0" result="BackgroundImageFix"/>
<feColorMatrix in="SourceAlpha" type="matrix" values="0 0 0 0 0 0 0 0 0 0 0 0 0 0 0 0 0 0 127 0" result="hardAlpha"/>
<feOffset dy="2"/>
<feGaussianBlur stdDeviation="2"/>
<feComposite in2="hardAlpha" operator="out"/>
<feColorMatrix type="matrix" values="0 0 0 0 0 0 0 0 0 0 0 0 0 0 0 0 0 0 0.25 0"/>
<feBlend mode="normal" in2="BackgroundImageFix" result="effect1_dropShadow_136_30"/>
<feBlend mode="normal" in="SourceGraphic" in2="effect1_dropShadow_136_30" result="shape"/>
</filter>
<filter id="filter3_d_136_30" x="35.1001" y="137.128" width="20.4834" height="15.4714" filterUnits="userSpaceOnUse" color-interpolation-filters="sRGB">
<feFlood flood-opacity="0" result="BackgroundImageFix"/>
<feColorMatrix in="SourceAlpha" type="matrix" values="0 0 0 0 0 0 0 0 0 0 0 0 0 0 0 0 0 0 127 0" result="hardAlpha"/>
<feOffset dy="2"/>
<feGaussianBlur stdDeviation="2"/>
<feComposite in2="hardAlpha" operator="out"/>
<feColorMatrix type="matrix" values="0 0 0 0 0 0 0 0 0 0 0 0 0 0 0 0 0 0 0.25 0"/>
<feBlend mode="normal" in2="BackgroundImageFix" result="effect1_dropShadow_136_30"/>
<feBlend mode="normal" in="SourceGraphic" in2="effect1_dropShadow_136_30" result="shape"/>
</filter>
<filter id="filter4_d_136_30" x="0" y="0" width="104.758" height="205.063" filterUnits="userSpaceOnUse" color-interpolation-filters="sRGB">
<feFlood flood-opacity="0" result="BackgroundImageFix"/>
<feColorMatrix in="SourceAlpha" type="matrix" values="0 0 0 0 0 0 0 0 0 0 0 0 0 0 0 0 0 0 127 0" result="hardAlpha"/>
<feOffset dy="2"/>
<feGaussianBlur stdDeviation="2"/>
<feComposite in2="hardAlpha" operator="out"/>
<feColorMatrix type="matrix" values="0 0 0 0 0 0 0 0 0 0 0 0 0 0 0 0 0 0 0.25 0"/>
<feBlend mode="normal" in2="BackgroundImageFix" result="effect1_dropShadow_136_30"/>
<feBlend mode="normal" in="SourceGraphic" in2="effect1_dropShadow_136_30" result="shape"/>
</filter>
<filter id="filter5_d_136_30" x="14.8916" y="0.979736" width="70.4932" height="202.711" filterUnits="userSpaceOnUse" color-interpolation-filters="sRGB">
<feFlood flood-opacity="0" result="BackgroundImageFix"/>
<feColorMatrix in="SourceAlpha" type="matrix" values="0 0 0 0 0 0 0 0 0 0 0 0 0 0 0 0 0 0 127 0" result="hardAlpha"/>
<feOffset dy="2"/>
<feGaussianBlur stdDeviation="2"/>
<feComposite in2="hardAlpha" operator="out"/>
<feColorMatrix type="matrix" values="0 0 0 0 0 0 0 0 0 0 0 0 0 0 0 0 0 0 0.25 0"/>
<feBlend mode="normal" in2="BackgroundImageFix" result="effect1_dropShadow_136_30"/>
<feBlend mode="normal" in="SourceGraphic" in2="effect1_dropShadow_136_30" result="shape"/>
</filter>
</defs>
</svg>
