<svg width="150" height="200" viewBox="0 0 150 200" fill="none" xmlns="http://www.w3.org/2000/svg">
<path d="M60.7472 25L59.9659 17.7273H60.8608L61.4006 23.6506H61.4716L64 17.7273H64.9943L65.5625 23.6506H65.6335L68.1335 17.7273H69.0284L65.8324 25H64.9233L64.2841 19.2045H64.2273L61.6562 25H60.7472ZM68.6502 25H67.7269L71.6048 17.7273H72.5138L73.9769 25H73.0536L71.9031 18.8778H71.8462L68.6502 25ZM69.4599 22.1591H73.1815L73.0536 22.9403H69.332L69.4599 22.1591Z" fill="white"/>
<path d="M66.1591 63.4205C66.0313 64.178 65.7862 64.8326 65.424 65.3842C65.0618 65.9335 64.6191 66.3572 64.0959 66.6555C63.5727 66.9515 63.0057 67.0994 62.3949 67.0994C61.7652 67.0994 61.2289 66.9455 60.7862 66.6378C60.3459 66.3277 60.031 65.8897 59.8416 65.3239C59.6546 64.7557 59.625 64.0833 59.7528 63.3068C59.8807 62.5492 60.1257 61.8958 60.4879 61.3466C60.8501 60.795 61.294 60.3712 61.8196 60.0753C62.3452 59.777 62.9157 59.6278 63.5312 59.6278C64.1562 59.6278 64.6877 59.7829 65.1257 60.093C65.5661 60.4008 65.8797 60.8388 66.0668 61.407C66.2562 61.9728 66.2869 62.6439 66.1591 63.4205ZM65.321 63.3068C65.4252 62.6866 65.4098 62.1645 65.2749 61.7408C65.1399 61.317 64.9162 60.9962 64.6037 60.7784C64.2912 60.5606 63.9195 60.4517 63.4886 60.4517C63.0388 60.4517 62.6127 60.5665 62.2102 60.7962C61.8078 61.0234 61.4633 61.3584 61.1768 61.8011C60.8904 62.2415 60.6951 62.7812 60.5909 63.4205C60.4867 64.0407 60.5021 64.5627 60.6371 64.9865C60.772 65.4103 60.9957 65.7311 61.3082 65.9489C61.6207 66.1667 61.9924 66.2756 62.4233 66.2756C62.8731 66.2756 63.2992 66.1619 63.7017 65.9347C64.1042 65.705 64.4486 65.37 64.7351 64.9297C65.0215 64.487 65.2169 63.946 65.321 63.3068ZM67.0433 67L68.2507 59.7273H70.7081C71.2763 59.7273 71.7261 59.8232 72.0575 60.0149C72.3913 60.2067 72.6174 60.4706 72.7358 60.8068C72.8565 61.143 72.8814 61.5265 72.8104 61.9574C72.7393 62.3835 72.5878 62.7623 72.3558 63.0938C72.1262 63.4252 71.8137 63.6856 71.4183 63.875C71.0253 64.0644 70.5471 64.1591 69.9837 64.1591H67.995L68.1371 63.3636H70.0973C70.4856 63.3636 70.8075 63.3068 71.0632 63.1932C71.3189 63.0795 71.5178 62.9174 71.6598 62.7067C71.8018 62.496 71.8965 62.2462 71.9439 61.9574C71.9912 61.6638 71.9782 61.4093 71.9048 61.1939C71.8338 60.9761 71.6882 60.808 71.468 60.6896C71.2502 60.5689 70.9448 60.5085 70.5518 60.5085H69.0036L67.924 67H67.0433ZM71.0064 63.733L72.2564 67H71.2337L70.0121 63.733H71.0064Z" fill="white"/>
<path d="M68.1023 141H67.2358C67.2263 140.747 67.1742 140.524 67.0795 140.332C66.9848 140.141 66.857 139.98 66.696 139.849C66.5374 139.717 66.3551 139.617 66.1491 139.551C65.9432 139.485 65.723 139.452 65.4886 139.452C65.0388 139.452 64.6127 139.567 64.2102 139.796C63.8078 140.023 63.4633 140.358 63.1768 140.801C62.8904 141.241 62.6951 141.781 62.5909 142.42C62.4867 143.041 62.5021 143.563 62.6371 143.987C62.772 144.41 62.9957 144.731 63.3082 144.949C63.6207 145.167 63.9924 145.276 64.4233 145.276C64.6719 145.276 64.9157 145.242 65.1548 145.176C65.3963 145.11 65.6212 145.012 65.8295 144.881C66.0402 144.749 66.2273 144.587 66.3906 144.395C66.5563 144.201 66.6866 143.978 66.7812 143.727H67.6619C67.5317 144.099 67.3554 144.432 67.1328 144.725C66.9126 145.019 66.6581 145.268 66.3693 145.474C66.0805 145.678 65.7692 145.833 65.4354 145.94C65.1016 146.046 64.7547 146.099 64.3949 146.099C63.7652 146.099 63.2289 145.946 62.7862 145.638C62.3459 145.328 62.031 144.89 61.8416 144.324C61.6546 143.756 61.625 143.083 61.7528 142.307C61.8807 141.549 62.1257 140.896 62.4879 140.347C62.8501 139.795 63.294 139.371 63.8196 139.075C64.3452 138.777 64.9157 138.628 65.5312 138.628C65.9006 138.628 66.2403 138.681 66.5504 138.788C66.8606 138.894 67.1304 139.05 67.3601 139.256C67.5897 139.46 67.7685 139.709 67.8963 140.002C68.0265 140.293 68.0952 140.626 68.1023 141ZM68.9998 146H68.0765L71.9544 138.727H72.8635L74.3265 146H73.4032L72.2527 139.878H72.1958L68.9998 146ZM69.8095 143.159H73.5311L73.4032 143.94H69.6816L69.8095 143.159Z" fill="white"/>
<path d="M69.4878 85.535L70.1579 121.907C70.1579 121.907 116.007 167.18 117.347 168.616C118.687 170.051 124.526 174.837 122.229 177.613C119.932 180.388 118.233 182.686 117.347 188.046C117.015 189.019 121.368 194.937 118.975 195.32C116.582 195.703 95.8106 198 95.8106 198C95.9263 196.412 97.0549 194.171 91.9818 188.046C86.9087 181.92 84.6115 182.973 82.6014 181.92C80.5913 180.867 80.017 181.441 77.7197 180.388C75.4224 179.336 78.71 175.948 74.7524 176.273C70.7948 176.598 64.0319 175.603 64.0319 173.688C64.0319 171.774 64.657 169.798 64.0319 167.563C61.9169 167.88 61.3213 166.938 61.0646 163.734C52.9671 156.28 52.8043 155.267 52.1627 153.205C50.8161 150.121 52.5455 148.803 54.3642 148.133C56.1829 147.463 53.3113 145.835 53.3113 145.835C53.3113 145.835 50.9183 146.218 49.7697 144.974C48.621 143.73 46.4195 141.241 46.7067 138.752C46.9938 136.264 47.6638 135.307 46.7067 134.924C45.7495 134.541 43.6436 133.584 42.8779 131.765C42.1121 129.947 37.3262 124.682 36.1775 121.907C35.0289 119.131 36.9433 115.494 36.1775 113.388C35.4118 111.282 33.4974 110.325 32.6359 108.889C31.7744 107.454 30.4344 108.028 29.9558 105.157C29.4772 102.285 32.1573 100.371 32.6359 98.5522C33.1145 96.7336 31.7744 85.535 31.7744 85.535M69.4878 85.535H31.7744M69.4878 85.535H96.5764V63.9034L97.055 60.2662L94.5663 57.0119L98.7779 48.3976L100.979 42.559L99.5437 40.3575L97.055 38.1561M31.7744 85.535C31.7744 85.535 30.4344 85.0564 30.1472 83.7164C29.8601 82.3764 30.5301 80.0792 30.1472 78.4521C29.7643 76.8249 29.3379 76.6529 28.7114 75.6763C28.085 74.6997 32.3488 68.3063 32.5402 65.722C32.7316 63.1377 31.9287 56.2542 33.306 50.4076C33.306 50.4076 33.306 45.4304 34.1674 44.3775C35.0289 43.3247 32.7316 42.4632 33.306 40.3575C33.8803 38.2518 34.1674 34.9975 34.1674 34.9975M97.055 38.1561C88.6647 37.7449 79.1427 38.7711 73.4123 39.2089C70.8481 39.5369 68.8177 40.0703 67.5734 40.7404C66.329 41.4104 60.5859 42.4632 59.1502 42.1761C57.7145 41.889 51.1098 43.0375 50.344 43.5161C49.5782 43.9947 46.4194 42.7504 45.6537 41.9847C44.8879 41.2189 44.8879 40.0704 44.6008 39.4961C44.3137 38.9218 43.165 37.5818 40.7721 36.2418C38.3791 34.9018 34.1674 34.9975 34.1674 34.9975M97.055 38.1561L96.0978 34.3275V2.4544C96.0978 2.4544 45.5581 1.78439 44.1222 2.07154C42.6864 2.35868 47.0896 4.94299 46.7067 5.51727C46.3237 6.09156 41.7293 6.09156 41.7293 6.09156C41.7293 6.09156 39.9107 6.57014 39.9106 8.00586C39.9105 9.44159 40.5806 9.34587 41.1549 9.82445C41.7293 10.303 43.8351 9.5373 44.1222 10.303C44.4093 11.0687 44.7923 12.1216 43.6436 12.1216C42.4949 12.1216 33.593 12.7916 32.7316 12.1216L32.7096 12.1045C31.8193 11.4119 28.7984 9.06192 27.7542 9.44159C26.7013 9.82445 26.797 13.4616 27.7542 15.4716C28.7114 17.4816 32.9661 28.1223 32.7316 29.5417C32.4971 30.9611 35.0289 28.3931 35.2203 29.1589C35.4118 29.9246 34.3589 31.6475 34.1674 32.6046C33.976 33.5618 32.7316 33.7532 32.7316 33.7532C32.7316 33.7532 32.1573 34.5189 32.7316 34.9975C33.306 35.4761 34.1674 34.9975 34.1674 34.9975" stroke="white" stroke-linecap="round"/>
<path d="M99.9228 195.69C99.9228 195.69 100.078 195.387 100.558 194.811C101.039 194.236 102.385 192.606 102.385 190.976C102.385 189.345 100.943 189.825 100.558 188.29C100.174 186.756 103.538 183.016 101.327 178.701C99.1162 174.385 93.9248 178.029 92.002 176.783C90.0792 175.536 84.9839 177.262 85.6569 175.536C86.3299 173.81 85.0213 169.986 84.311 168.248C83.6007 166.509 86.3299 166.713 86.3299 165.179C86.3299 163.645 86.3299 153.48 86.3299 153.48C85.831 148.062 83.9264 141.013 81.1385 140.246C78.3505 139.479 76.4277 133.341 74.505 131.615C72.5823 129.889 68.5636 126.283 67.9524 123.43C67.9524 123.43 67.1259 120.65 66.9337 118.54C66.7414 116.431 67.5831 114.258 65.372 113.011C63.1608 111.764 58.7384 108.887 58.1617 104.764C57.5849 100.64 57.2003 98.2427 56.2389 96.9001C55.2776 95.5575 52.9703 95.9411 51.9127 96.1329C50.8552 96.3247 43.3565 90.7627 42.972 89.3242C42.5874 87.8857 43.6449 86.2555 44.9909 85.0088C46.3368 83.7621 47.4904 83.5703 48.2595 82.8032C49.0286 82.036 50.2784 80.8852 52.8741 80.3098C55.4698 79.7344 51.3359 76.378 51.4321 73.597C51.5282 70.816 54.3162 63.5278 54.9891 61.0344C55.6621 58.5411 53.7394 57.3903 54.9891 50.7734C56.2389 44.1565 54.3162 42.9098 54.3162 41.6631C54.3162 40.4165 55.6621 39.3616 57.1042 34.8544C58.5462 30.3472 57.1042 27.6621 57.7771 25.6482C58.4501 23.6344 57.1042 23.2508 57.7771 21.6205C58.4501 19.9903 61.2381 14.0446 60.0844 11.6472C58.9308 9.24977 62.6366 7.81564 62.6366 3.97974" stroke="#FC5200" stroke-width="3" stroke-linecap="round"/>
</svg>
