<svg width="200" height="200" viewBox="0 0 200 200" fill="none" xmlns="http://www.w3.org/2000/svg">
<path d="M85.89 144.159C85.8663 143.915 85.8119 143.688 85.7267 143.477C85.6414 143.264 85.5219 143.078 85.368 142.92C85.2141 142.761 85.0235 142.637 84.7963 142.547C84.5713 142.457 84.3062 142.412 84.0008 142.412C83.5486 142.412 83.1106 142.531 82.6869 142.77C82.2655 143.01 81.8997 143.361 81.5896 143.825C81.2818 144.287 81.0723 144.853 80.961 145.523C80.8521 146.178 80.8628 146.738 80.993 147.202C81.1232 147.666 81.354 148.021 81.6855 148.268C82.0169 148.511 82.43 148.633 82.9248 148.633C83.3699 148.633 83.7842 148.534 84.1677 148.335C84.5512 148.134 84.8744 147.849 85.1372 147.479C85.3999 147.11 85.5704 146.672 85.6485 146.165L85.8474 146.233H83.5178L83.6279 145.636H86.3872L86.2771 146.233C86.1776 146.855 85.9658 147.393 85.6414 147.845C85.3171 148.297 84.9146 148.646 84.434 148.893C83.9535 149.136 83.4302 149.258 82.8644 149.258C82.23 149.258 81.6997 149.106 81.2735 148.8C80.8498 148.493 80.5526 148.059 80.3822 147.501C80.2117 146.942 80.1904 146.283 80.3183 145.523C80.4082 144.952 80.5669 144.437 80.7941 143.978C81.0214 143.519 81.3008 143.127 81.6322 142.802C81.966 142.476 82.3377 142.225 82.7472 142.05C83.1592 141.874 83.5948 141.787 84.0541 141.787C84.4518 141.787 84.8057 141.85 85.1159 141.975C85.426 142.1 85.6888 142.273 85.9042 142.493C86.1196 142.711 86.283 142.963 86.3943 143.25C86.5079 143.534 86.5671 143.837 86.5718 144.159H85.89ZM87.2359 149.159H86.5399L90.3928 141.886H91.1031L92.5413 149.159H91.8453L90.6343 142.749H90.5882L87.2359 149.159ZM88.2018 146.371H91.8097L91.7103 146.968H88.1024L88.2018 146.371ZM98.635 143.743C98.6516 143.317 98.5249 142.984 98.2551 142.742C97.9875 142.501 97.6123 142.38 97.1294 142.38C96.7932 142.38 96.4854 142.439 96.2061 142.557C95.9291 142.673 95.7006 142.833 95.5207 143.037C95.3431 143.24 95.233 143.472 95.1904 143.733C95.1597 143.925 95.1739 144.093 95.233 144.237C95.2922 144.379 95.3834 144.502 95.5065 144.606C95.6296 144.711 95.7704 144.799 95.9291 144.873C96.0901 144.946 96.2534 145.008 96.4191 145.057L97.1542 145.278C97.372 145.341 97.5886 145.423 97.8041 145.523C98.0195 145.622 98.2113 145.746 98.3794 145.895C98.5474 146.045 98.6717 146.228 98.7522 146.446C98.8351 146.664 98.8517 146.924 98.8019 147.227C98.7356 147.62 98.577 147.972 98.3261 148.282C98.0775 148.59 97.7508 148.833 97.346 149.013C96.9411 149.193 96.4736 149.283 95.9433 149.283C95.4485 149.283 95.0318 149.202 94.6933 149.038C94.3547 148.872 94.105 148.644 93.944 148.353C93.783 148.062 93.7214 147.724 93.7593 147.341H94.4411C94.4151 147.627 94.4684 147.87 94.6009 148.069C94.7359 148.268 94.9276 148.419 95.1762 148.523C95.4272 148.625 95.716 148.676 96.0427 148.676C96.4049 148.676 96.7375 148.616 97.0406 148.495C97.3436 148.372 97.5934 148.201 97.7899 147.984C97.9887 147.763 98.1118 147.508 98.1592 147.216C98.2018 146.97 98.1722 146.763 98.0704 146.595C97.971 146.427 97.8159 146.286 97.6052 146.172C97.3969 146.056 97.1483 145.955 96.8595 145.867L96.0285 145.611C95.4864 145.446 95.0827 145.212 94.8176 144.912C94.5548 144.611 94.4613 144.228 94.537 143.761C94.6033 143.368 94.7655 143.024 95.0235 142.728C95.2839 142.43 95.6071 142.198 95.993 142.032C96.3789 141.866 96.7955 141.783 97.243 141.783C97.6952 141.783 98.0799 141.867 98.3971 142.035C98.7167 142.203 98.9535 142.435 99.1073 142.731C99.2636 143.025 99.3216 143.362 99.2813 143.743H98.635ZM100.077 149.159L101.284 141.886H103.631C104.148 141.886 104.563 141.984 104.878 142.181C105.193 142.377 105.409 142.645 105.528 142.984C105.649 143.322 105.673 143.704 105.602 144.131C105.534 144.552 105.382 144.933 105.148 145.274C104.916 145.613 104.609 145.881 104.228 146.08C103.849 146.279 103.404 146.378 102.893 146.378H101.046L101.146 145.782H102.975C103.356 145.782 103.684 145.711 103.958 145.569C104.235 145.424 104.457 145.228 104.622 144.979C104.788 144.728 104.897 144.445 104.949 144.131C105.001 143.811 104.984 143.527 104.899 143.278C104.816 143.03 104.66 142.836 104.43 142.696C104.203 142.554 103.898 142.483 103.514 142.483H101.849L100.741 149.159H100.077ZM106.327 149.159L107.534 141.886H111.753L111.653 142.483H108.099L107.644 145.221H110.975L110.876 145.817H107.545L107.09 148.562H110.716L110.617 149.159H106.327ZM109.47 141.13L110.645 139.518H111.398L110.045 141.13H109.47ZM117.112 143.743C117.128 143.317 117.002 142.984 116.732 142.742C116.464 142.501 116.089 142.38 115.606 142.38C115.27 142.38 114.962 142.439 114.683 142.557C114.406 142.673 114.177 142.833 113.997 143.037C113.82 143.24 113.71 143.472 113.667 143.733C113.636 143.925 113.65 144.093 113.71 144.237C113.769 144.379 113.86 144.502 113.983 144.606C114.106 144.711 114.247 144.799 114.406 144.873C114.567 144.946 114.73 145.008 114.896 145.057L115.631 145.278C115.849 145.341 116.065 145.423 116.281 145.523C116.496 145.622 116.688 145.746 116.856 145.895C117.024 146.045 117.148 146.228 117.229 146.446C117.312 146.664 117.328 146.924 117.278 147.227C117.212 147.62 117.054 147.972 116.803 148.282C116.554 148.59 116.227 148.833 115.823 149.013C115.418 149.193 114.95 149.283 114.42 149.283C113.925 149.283 113.508 149.202 113.17 149.038C112.831 148.872 112.582 148.644 112.421 148.353C112.26 148.062 112.198 147.724 112.236 147.341H112.918C112.892 147.627 112.945 147.87 113.078 148.069C113.212 148.268 113.404 148.419 113.653 148.523C113.904 148.625 114.193 148.676 114.519 148.676C114.881 148.676 115.214 148.616 115.517 148.495C115.82 148.372 116.07 148.201 116.266 147.984C116.465 147.763 116.588 147.508 116.636 147.216C116.678 146.97 116.649 146.763 116.547 146.595C116.448 146.427 116.292 146.286 116.082 146.172C115.873 146.056 115.625 145.955 115.336 145.867L114.505 145.611C113.963 145.446 113.559 145.212 113.294 144.912C113.031 144.611 112.938 144.228 113.014 143.761C113.08 143.368 113.242 143.024 113.5 142.728C113.761 142.43 114.084 142.198 114.47 142.032C114.855 141.866 115.272 141.783 115.72 141.783C116.172 141.783 116.556 141.867 116.874 142.035C117.193 142.203 117.43 142.435 117.584 142.731C117.74 143.025 117.798 143.362 117.758 143.743H117.112ZM120.425 141.886L119.217 149.159H118.553L119.761 141.886H120.425ZM121.151 149.159L122.358 141.886H126.577L126.478 142.483H122.923L122.468 145.221H125.799L125.7 145.817H122.369L121.915 148.562H125.54L125.441 149.159H121.151Z" fill="white"/>
</svg>
