<svg width="200" height="201" viewBox="0 0 200 201" fill="none" xmlns="http://www.w3.org/2000/svg">
<path d="M114.924 13.5257C114.941 13.0995 114.814 12.7657 114.544 12.5243C114.277 12.2828 113.902 12.162 113.419 12.162C113.082 12.162 112.775 12.2212 112.495 12.3396C112.218 12.4556 111.99 12.6154 111.81 12.819C111.632 13.0226 111.522 13.2546 111.48 13.515C111.449 13.7068 111.463 13.8749 111.522 14.0193C111.582 14.1613 111.673 14.2844 111.796 14.3886C111.919 14.4928 112.06 14.5816 112.218 14.6549C112.379 14.7283 112.543 14.7899 112.708 14.8396L113.444 15.0598C113.661 15.1237 113.878 15.2054 114.093 15.3048C114.309 15.4042 114.501 15.5285 114.669 15.6777C114.837 15.8268 114.961 16.0103 115.042 16.2281C115.124 16.4459 115.141 16.7063 115.091 17.0093C115.025 17.4023 114.866 17.7539 114.615 18.064C114.367 18.3718 114.04 18.6156 113.635 18.7956C113.23 18.9755 112.763 19.0655 112.233 19.0655C111.738 19.0655 111.321 18.9838 110.983 18.8204C110.644 18.6547 110.394 18.4262 110.233 18.1351C110.072 17.8439 110.011 17.5065 110.049 17.123H110.73C110.704 17.4094 110.758 17.6521 110.89 17.851C111.025 18.0498 111.217 18.2013 111.466 18.3055C111.716 18.4073 112.005 18.4582 112.332 18.4582C112.694 18.4582 113.027 18.3978 113.33 18.2771C113.633 18.154 113.883 17.9835 114.079 17.7657C114.278 17.5456 114.401 17.2899 114.448 16.9987C114.491 16.7525 114.462 16.5453 114.36 16.3772C114.26 16.2092 114.105 16.0683 113.895 15.9547C113.686 15.8387 113.438 15.7369 113.149 15.6493L112.318 15.3936C111.776 15.2279 111.372 14.9947 111.107 14.694C110.844 14.3933 110.751 14.0098 110.826 13.5434C110.893 13.1504 111.055 12.806 111.313 12.5101C111.573 12.2118 111.896 11.9798 112.282 11.814C112.668 11.6483 113.085 11.5655 113.532 11.5655C113.984 11.5655 114.369 11.6495 114.686 11.8176C115.006 11.9857 115.243 12.2177 115.397 12.5136C115.553 12.8072 115.611 13.1445 115.571 13.5257H114.924ZM117.63 18.9412L116.846 11.6684H117.52L118.127 17.922H118.184L120.872 11.6684H121.64L122.25 17.922H122.307L124.992 11.6684H125.674L122.474 18.9412H121.76L121.1 12.7728H121.054L118.341 18.9412H117.63ZM127.534 11.6684L126.327 18.9412H125.663L126.87 11.6684H127.534ZM128.928 12.265L129.028 11.6684H134.301L134.202 12.265H131.897L130.789 18.9412H130.125L131.233 12.265H128.928ZM134.301 18.9412L134.39 18.4405L139.443 12.265H135.395L135.487 11.6684H140.338L140.26 12.1691L135.196 18.3446H139.266L139.166 18.9412H134.301ZM140.77 18.9412L141.978 11.6684H146.197L146.097 12.265H142.542L142.088 15.003H145.419L145.319 15.5995H141.988L141.534 18.3446H145.16L145.06 18.9412H140.77ZM146.708 18.9412L147.915 11.6684H150.263C150.779 11.6684 151.194 11.7608 151.509 11.9454C151.826 12.1301 152.045 12.3869 152.166 12.716C152.289 13.0427 152.316 13.4191 152.248 13.8453C152.177 14.2667 152.025 14.6396 151.793 14.9639C151.563 15.2882 151.26 15.5427 150.884 15.7274C150.508 15.9097 150.064 16.0008 149.552 16.0008H147.557L147.66 15.3936H149.638C150.019 15.3936 150.345 15.3308 150.618 15.2054C150.89 15.0799 151.108 14.9012 151.271 14.6691C151.434 14.4371 151.542 14.1625 151.594 13.8453C151.646 13.5257 151.629 13.2475 151.541 13.0108C151.456 12.774 151.297 12.5905 151.065 12.4603C150.836 12.3301 150.529 12.265 150.145 12.265H148.48L147.372 18.9412H146.708ZM150.458 15.6599L151.704 18.9412H150.941L149.716 15.6599H150.458ZM153.016 18.9412L154.224 11.6684H154.888L153.78 18.3446H157.246L157.146 18.9412H153.016ZM159.111 18.9412H158.415L162.268 11.6684H162.978L164.417 18.9412H163.721L162.51 12.5314H162.463L159.111 18.9412ZM160.077 16.1535H163.685L163.586 16.7501H159.978L160.077 16.1535ZM172.534 11.6684L171.327 18.9412H170.681L167.396 12.851H167.339L166.327 18.9412H165.663L166.87 11.6684H167.513L170.809 17.7657H170.865L171.881 11.6684H172.534ZM175.409 18.9412H173.261L174.468 11.6684H176.709C177.4 11.6684 177.971 11.8152 178.42 12.1088C178.87 12.4023 179.183 12.8226 179.358 13.3694C179.533 13.9139 179.557 14.565 179.429 15.3226C179.303 16.0801 179.063 16.7288 178.708 17.2686C178.353 17.8083 177.896 18.2226 177.337 18.5115C176.781 18.7979 176.138 18.9412 175.409 18.9412ZM174.024 18.3446H175.445C176.065 18.3446 176.607 18.2191 177.071 17.9682C177.535 17.7172 177.913 17.3609 178.204 16.8993C178.495 16.4352 178.693 15.8848 178.797 15.248C178.901 14.623 178.889 14.0879 178.761 13.6429C178.636 13.1978 178.393 12.8569 178.033 12.6201C177.676 12.3834 177.201 12.265 176.609 12.265H175.029L174.024 18.3446Z" fill="white"/>
<path d="M131.554 173.411L130.346 180.684H129.682L130.89 173.411H131.554ZM132.948 174.007L133.047 173.411H138.32L138.221 174.007H135.916L134.808 180.684H134.144L135.252 174.007H132.948ZM137.769 180.684H137.073L140.926 173.411H141.636L143.074 180.684H142.378L141.168 174.274H141.121L137.769 180.684ZM138.735 177.896H142.343L142.244 178.493H138.636L138.735 177.896ZM144.321 180.684L145.528 173.411H146.192L145.084 180.087H148.55L148.451 180.684H144.321ZM150.13 173.411H150.886L152.473 176.863H152.544L155.268 173.411H156.039L152.729 177.534L152.207 180.684H151.547L152.065 177.534L150.13 173.411Z" fill="white"/>
<path d="M187.635 107.297C185.321 104.925 181.917 105.878 180.837 107.297C179.984 108.065 173.748 117.859 172.222 119.324C170.695 120.79 166.378 120.925 165.653 119.324C164.626 117.45 162.857 114.455 162.176 113.774C161.495 113.094 158.636 112.957 157.72 113.183C156.804 113.408 154.96 114.727 151.493 118.471C148.026 122.215 144.925 123.675 142.536 121.627C140.148 119.58 140.12 118.131 140.659 117.192C141.199 116.253 141.073 115.408 140.659 113.95C140.12 112.004 135.627 96.3476 128.461 97.1461C127.011 97.7432 124.964 94.0752 124.964 94.0752M124.964 94.0752C124.964 94.0752 121.381 94.0752 118.395 97.146C115.41 100.217 119.698 109.009 109.95 117.192C106.497 120.518 88.3176 127.627 84.9565 128.708C82.6533 129.305 78.8147 124.869 76.085 125.637C73.3553 126.404 74.6349 132.29 71.3933 132.717C68.1518 133.143 66.8723 129.39 62.2659 130.328C57.6595 131.267 56.1241 134.337 56.1241 134.337C54.5224 136.368 47.6451 158.983 52.8826 159.587C58.1201 160.19 58.6465 174.36 53.9915 178.694C46.6247 187.584 66.9372 202.835 75.6585 198.825C81.0972 196.816 84.4985 199.113 85.1952 200.5M124.964 94.0752C122.591 89.1111 128.12 81.536 123.257 80.0858C118.395 78.6357 115.068 76.8444 114.642 73.603C114.215 70.3615 118.609 71.7049 118.395 69.2527C118.911 66.2806 108.942 54.0058 105.344 51.51C101.863 49.2407 100.334 47.9469 99.1168 45.1977L96.7284 38.6296C95.7361 36.1705 94.2385 32.984 92.2073 32.4026C88.248 31.2692 83.4829 40.2548 78.3029 42.2122C76.7658 42.6802 73.6184 40.6149 73.6112 38.6295C73.604 36.6442 74.6349 30.8672 75.9144 30.0141C77.194 29.1611 77.6205 29.6729 78.3029 28.3081C78.9853 26.9433 77.7058 22.1664 77.1086 19.1809C76.5115 16.1954 87.9757 10.0303 82.0562 7.23877C76.1367 4.4472 73.1357 6.62658 70.7109 7.23877C68.3084 8.34943 59.7948 8.98141 55.8682 4.85035C51.9416 0.719296 50.75 0.5 50.75 0.5" stroke="white" stroke-linecap="round"/>
<path d="M50.7083 107.58C52.553 106.459 51.4336 102.665 52.7968 101.643C54.1601 100.62 58.0089 100.245 60.2095 96.1897C62.3056 86.6886 68.0483 84.4314 71.5417 83.0683C75.035 81.7052 73.068 77.0068 73.9274 77.4449C73.9274 77.4449 77.2503 79.1488 78.1876 77.4449C79.1248 75.7409 82.7429 68.0741 90.3717 60.4041C91.5948 60.2698 98.7275 47.1029 99.3181 47.2827C99.9087 47.4625 102.215 49.157 104.43 48.3051C106.646 47.4532 111.502 40.6368 111.247 37.3138C110.991 33.9909 127.606 33.6501 128.458 35.9506C129.31 38.2511 126.924 38.5067 127.265 39.87C127.606 41.2332 128.458 41.9148 129.821 41.2332C131.184 40.5516 132.973 36.8026 134.337 37.3138C135.7 37.8251 141.323 43.0225 141.579 45.1526C141.835 47.2827 146.862 46.7715 148.225 48.3051C149.588 49.8388 146.308 53.2477 148.225 55.2918C149.625 54.1367 151.023 66.1478 150.014 69.1801C149.005 72.2123 147.373 68.4984 146.265 69.1801C145.158 69.8617 142.857 83.7499 141.579 85.028C140.301 86.3061 142.261 95.9341 141.579 98.1494C140.898 100.365 146.691 101.302 146.265 103.602C145.839 105.903 136.292 106.907 132.377 110.248C129.966 112.775 128.816 114.234 129.821 117.491C124.589 124.564 121.83 128.029 117.892 131.379C111.952 133.706 109.33 135.475 106.134 139.644C105.288 141.337 105.773 142.449 108.094 144.671C108.094 144.671 107.412 147.397 104.43 148.59C101.448 149.783 101.789 154.384 100.681 152.339C99.5737 150.294 95.4016 148.25 92.8426 149.783C81.3642 159.962 78.5704 161.735 78.1876 159.922C76.6877 157.598 75.5574 156.874 72.7345 157.196C66.1161 159.05 63.4526 160.119 62.7657 162.137C52.8952 167.414 48.9005 170.222 45.7249 174.833C44.5606 174.997 29.7577 197.014 30.4734 190.851C31.1891 184.688 23.4867 174.492 23.8275 173.81C24.1683 173.129 27.1369 171.497 26.9801 169.976C23.928 167.706 23.4018 166.806 23.8275 165.631C27.9845 161.847 24.7779 152.988 25.3612 152.339C29.2695 147.991 30.3973 139.13 29.2806 137.428C28.1638 135.727 28.3636 127.722 30.4734 127.289H34.5632C32.8121 123.364 32.4086 122.103 32.4331 121.069C33.6928 119.442 34.5825 118.656 39.079 119.28C40.5403 119.241 40.8247 111.84 40.4839 110.647C40.1431 109.454 45.1701 108.006 45.1701 108.006" stroke="#FC5200" stroke-width="3" stroke-linecap="round"/>
<path d="M8.51136 49.166L9.71875 41.8933H13.9268L13.8274 42.4899H10.2834L9.82884 45.2278H13.0426L12.9432 45.8244H9.7294L9.17543 49.166H8.51136ZM14.3707 49.166L15.5781 41.8933H17.9254C18.4415 41.8933 18.857 41.9856 19.1719 42.1703C19.4891 42.3549 19.7081 42.6118 19.8288 42.9409C19.9519 43.2676 19.9792 43.644 19.9105 44.0701C19.8395 44.4915 19.688 44.8644 19.456 45.1887C19.2263 45.5131 18.9233 45.7676 18.5469 45.9522C18.1705 46.1345 17.7266 46.2257 17.2152 46.2257H15.2195L15.3224 45.6184H17.3004C17.6816 45.6184 18.0083 45.5557 18.2805 45.4302C18.5528 45.3047 18.7706 45.126 18.9339 44.894C19.0973 44.662 19.205 44.3874 19.2571 44.0701C19.3092 43.7505 19.2914 43.4724 19.2038 43.2356C19.1186 42.9989 18.96 42.8154 18.728 42.6852C18.4983 42.555 18.1918 42.4899 17.8082 42.4899H16.1428L15.0348 49.166H14.3707ZM18.1207 45.8848L19.3672 49.166H18.6037L17.3786 45.8848H18.1207ZM20.69 49.166H19.994L23.8469 41.8933H24.5572L25.9954 49.166H25.2994L24.0884 42.7562H24.0423L20.69 49.166ZM21.6559 46.3784H25.2638L25.1644 46.975H21.5565L21.6559 46.3784ZM34.1133 41.8933L32.9059 49.166H32.2596L28.9748 43.0758H28.918L27.9059 49.166H27.2418L28.4492 41.8933H29.092L32.3874 47.9906H32.4442L33.4599 41.8933H34.1133ZM41.3558 44.166H40.6953C40.6882 43.9174 40.6385 43.6878 40.5462 43.4771C40.4538 43.264 40.3248 43.0782 40.1591 42.9196C39.9934 42.7609 39.7957 42.6378 39.5661 42.5502C39.3388 42.4627 39.0843 42.4189 38.8026 42.4189C38.3385 42.4189 37.8946 42.5408 37.4709 42.7846C37.0471 43.0261 36.6825 43.3812 36.3771 43.85C36.0717 44.3187 35.8634 44.8916 35.7521 45.5687C35.6409 46.2363 35.6586 46.7986 35.8054 47.2555C35.9522 47.71 36.1925 48.0545 36.5263 48.2889C36.8625 48.5233 37.2566 48.6404 37.7088 48.6404C37.9976 48.6404 38.2746 48.5967 38.5398 48.5091C38.8049 48.4215 39.0488 48.2995 39.2713 48.1433C39.4938 47.9847 39.6892 47.7988 39.8572 47.5858C40.0253 47.3727 40.1555 47.1419 40.2479 46.8933H40.9155C40.7995 47.2271 40.6373 47.5384 40.429 47.8272C40.2206 48.1137 39.9744 48.3646 39.6903 48.5801C39.4086 48.7955 39.0973 48.9636 38.7564 49.0843C38.4179 49.2051 38.058 49.2654 37.6768 49.2654C37.0566 49.2654 36.5322 49.1104 36.1037 48.8002C35.6776 48.4901 35.3745 48.0533 35.1946 47.4899C35.017 46.9241 34.9922 46.2576 35.12 45.4906C35.2455 44.7377 35.4858 44.0843 35.8409 43.5304C36.1984 42.9764 36.6364 42.5491 37.1548 42.2484C37.6733 41.9454 38.2367 41.7939 38.8452 41.7939C39.2334 41.7939 39.5814 41.8542 39.8892 41.975C40.197 42.0933 40.4586 42.2614 40.674 42.4792C40.8918 42.6947 41.0587 42.9456 41.1747 43.2321C41.2907 43.5185 41.3511 43.8298 41.3558 44.166ZM42.0953 49.166L43.3027 41.8933H47.5215L47.4221 42.4899H43.8674L43.4128 45.2278H46.7438L46.6444 45.8244H43.3134L42.8588 48.5694H46.4846L46.3851 49.166H42.0953Z" fill="white"/>
</svg>
