<svg width="200" height="200" viewBox="0 0 200 200" fill="none" xmlns="http://www.w3.org/2000/svg">
<path d="M114.924 13.0257C114.941 12.5995 114.814 12.2657 114.544 12.0243C114.277 11.7828 113.902 11.662 113.419 11.662C113.082 11.662 112.775 11.7212 112.495 11.8396C112.218 11.9556 111.99 12.1154 111.81 12.319C111.632 12.5226 111.522 12.7546 111.48 13.015C111.449 13.2068 111.463 13.3749 111.522 13.5193C111.582 13.6613 111.673 13.7844 111.796 13.8886C111.919 13.9928 112.06 14.0816 112.218 14.1549C112.379 14.2283 112.543 14.2899 112.708 14.3396L113.444 14.5598C113.661 14.6237 113.878 14.7054 114.093 14.8048C114.309 14.9042 114.501 15.0285 114.669 15.1777C114.837 15.3268 114.961 15.5103 115.042 15.7281C115.124 15.9459 115.141 16.2063 115.091 16.5093C115.025 16.9023 114.866 17.2539 114.615 17.564C114.367 17.8718 114.04 18.1156 113.635 18.2956C113.23 18.4755 112.763 18.5655 112.233 18.5655C111.738 18.5655 111.321 18.4838 110.983 18.3204C110.644 18.1547 110.394 17.9262 110.233 17.6351C110.072 17.3439 110.011 17.0065 110.049 16.623H110.73C110.704 16.9094 110.758 17.1521 110.89 17.351C111.025 17.5498 111.217 17.7013 111.466 17.8055C111.716 17.9073 112.005 17.9582 112.332 17.9582C112.694 17.9582 113.027 17.8978 113.33 17.7771C113.633 17.654 113.883 17.4835 114.079 17.2657C114.278 17.0456 114.401 16.7899 114.448 16.4987C114.491 16.2525 114.462 16.0453 114.36 15.8772C114.26 15.7092 114.105 15.5683 113.895 15.4547C113.686 15.3387 113.438 15.2369 113.149 15.1493L112.318 14.8936C111.776 14.7279 111.372 14.4947 111.107 14.194C110.844 13.8933 110.751 13.5098 110.826 13.0434C110.893 12.6504 111.055 12.306 111.313 12.0101C111.573 11.7118 111.896 11.4798 112.282 11.314C112.668 11.1483 113.085 11.0655 113.532 11.0655C113.984 11.0655 114.369 11.1495 114.686 11.3176C115.006 11.4857 115.243 11.7177 115.397 12.0136C115.553 12.3072 115.611 12.6445 115.571 13.0257H114.924ZM117.63 18.4412L116.846 11.1684H117.52L118.127 17.422H118.184L120.872 11.1684H121.64L122.25 17.422H122.307L124.992 11.1684H125.674L122.474 18.4412H121.76L121.1 12.2728H121.054L118.341 18.4412H117.63ZM127.534 11.1684L126.327 18.4412H125.663L126.87 11.1684H127.534ZM128.928 11.765L129.028 11.1684H134.301L134.202 11.765H131.897L130.789 18.4412H130.125L131.233 11.765H128.928ZM134.301 18.4412L134.39 17.9405L139.443 11.765H135.395L135.487 11.1684H140.338L140.26 11.6691L135.196 17.8446H139.266L139.166 18.4412H134.301ZM140.77 18.4412L141.978 11.1684H146.197L146.097 11.765H142.542L142.088 14.503H145.419L145.319 15.0995H141.988L141.534 17.8446H145.16L145.06 18.4412H140.77ZM146.708 18.4412L147.915 11.1684H150.263C150.779 11.1684 151.194 11.2608 151.509 11.4454C151.826 11.6301 152.045 11.8869 152.166 12.216C152.289 12.5427 152.316 12.9191 152.248 13.3453C152.177 13.7667 152.025 14.1396 151.793 14.4639C151.563 14.7882 151.26 15.0427 150.884 15.2274C150.508 15.4097 150.064 15.5008 149.552 15.5008H147.557L147.66 14.8936H149.638C150.019 14.8936 150.345 14.8308 150.618 14.7054C150.89 14.5799 151.108 14.4012 151.271 14.1691C151.434 13.9371 151.542 13.6625 151.594 13.3453C151.646 13.0257 151.629 12.7475 151.541 12.5108C151.456 12.274 151.297 12.0905 151.065 11.9603C150.836 11.8301 150.529 11.765 150.145 11.765H148.48L147.372 18.4412H146.708ZM150.458 15.1599L151.704 18.4412H150.941L149.716 15.1599H150.458ZM153.016 18.4412L154.224 11.1684H154.888L153.78 17.8446H157.246L157.146 18.4412H153.016ZM159.111 18.4412H158.415L162.268 11.1684H162.978L164.417 18.4412H163.721L162.51 12.0314H162.463L159.111 18.4412ZM160.077 15.6535H163.685L163.586 16.2501H159.978L160.077 15.6535ZM172.534 11.1684L171.327 18.4412H170.681L167.396 12.351H167.339L166.327 18.4412H165.663L166.87 11.1684H167.513L170.809 17.2657H170.865L171.881 11.1684H172.534ZM175.409 18.4412H173.261L174.468 11.1684H176.709C177.4 11.1684 177.971 11.3152 178.42 11.6088C178.87 11.9023 179.183 12.3226 179.358 12.8694C179.533 13.4139 179.557 14.065 179.429 14.8226C179.303 15.5801 179.063 16.2288 178.708 16.7686C178.353 17.3083 177.896 17.7226 177.337 18.0115C176.781 18.2979 176.138 18.4412 175.409 18.4412ZM174.024 17.8446H175.445C176.065 17.8446 176.607 17.7191 177.071 17.4682C177.535 17.2172 177.913 16.8609 178.204 16.3993C178.495 15.9352 178.693 15.3848 178.797 14.748C178.901 14.123 178.889 13.5879 178.761 13.1429C178.636 12.6978 178.393 12.3569 178.033 12.1201C177.676 11.8834 177.201 11.765 176.609 11.765H175.029L174.024 17.8446Z" fill="white"/>
<path d="M131.554 172.911L130.346 180.184H129.682L130.89 172.911H131.554ZM132.948 173.507L133.047 172.911H138.32L138.221 173.507H135.916L134.808 180.184H134.144L135.252 173.507H132.948ZM137.769 180.184H137.073L140.926 172.911H141.636L143.074 180.184H142.378L141.168 173.774H141.121L137.769 180.184ZM138.735 177.396H142.343L142.244 177.993H138.636L138.735 177.396ZM144.321 180.184L145.528 172.911H146.192L145.084 179.587H148.55L148.451 180.184H144.321ZM150.13 172.911H150.886L152.473 176.363H152.544L155.268 172.911H156.039L152.729 177.034L152.207 180.184H151.547L152.065 177.034L150.13 172.911Z" fill="white"/>
<path d="M8.51136 48.666L9.71875 41.3933H13.9268L13.8274 41.9899H10.2834L9.82884 44.7278H13.0426L12.9432 45.3244H9.7294L9.17543 48.666H8.51136ZM14.3707 48.666L15.5781 41.3933H17.9254C18.4415 41.3933 18.857 41.4856 19.1719 41.6703C19.4891 41.8549 19.7081 42.1118 19.8288 42.4409C19.9519 42.7676 19.9792 43.144 19.9105 43.5701C19.8395 43.9915 19.688 44.3644 19.456 44.6887C19.2263 45.0131 18.9233 45.2676 18.5469 45.4522C18.1705 45.6345 17.7266 45.7257 17.2152 45.7257H15.2195L15.3224 45.1184H17.3004C17.6816 45.1184 18.0083 45.0557 18.2805 44.9302C18.5528 44.8047 18.7706 44.626 18.9339 44.394C19.0973 44.162 19.205 43.8874 19.2571 43.5701C19.3092 43.2505 19.2914 42.9724 19.2038 42.7356C19.1186 42.4989 18.96 42.3154 18.728 42.1852C18.4983 42.055 18.1918 41.9899 17.8082 41.9899H16.1428L15.0348 48.666H14.3707ZM18.1207 45.3848L19.3672 48.666H18.6037L17.3786 45.3848H18.1207ZM20.69 48.666H19.994L23.8469 41.3933H24.5572L25.9954 48.666H25.2994L24.0884 42.2562H24.0423L20.69 48.666ZM21.6559 45.8784H25.2638L25.1644 46.475H21.5565L21.6559 45.8784ZM34.1133 41.3933L32.9059 48.666H32.2596L28.9748 42.5758H28.918L27.9059 48.666H27.2418L28.4492 41.3933H29.092L32.3874 47.4906H32.4442L33.4599 41.3933H34.1133ZM41.3558 43.666H40.6953C40.6882 43.4174 40.6385 43.1878 40.5462 42.9771C40.4538 42.764 40.3248 42.5782 40.1591 42.4196C39.9934 42.2609 39.7957 42.1378 39.5661 42.0502C39.3388 41.9627 39.0843 41.9189 38.8026 41.9189C38.3385 41.9189 37.8946 42.0408 37.4709 42.2846C37.0471 42.5261 36.6825 42.8812 36.3771 43.35C36.0717 43.8187 35.8634 44.3916 35.7521 45.0687C35.6409 45.7363 35.6586 46.2986 35.8054 46.7555C35.9522 47.21 36.1925 47.5545 36.5263 47.7889C36.8625 48.0233 37.2566 48.1404 37.7088 48.1404C37.9976 48.1404 38.2746 48.0967 38.5398 48.0091C38.8049 47.9215 39.0488 47.7995 39.2713 47.6433C39.4938 47.4847 39.6892 47.2988 39.8572 47.0858C40.0253 46.8727 40.1555 46.6419 40.2479 46.3933H40.9155C40.7995 46.7271 40.6373 47.0384 40.429 47.3272C40.2206 47.6137 39.9744 47.8646 39.6903 48.0801C39.4086 48.2955 39.0973 48.4636 38.7564 48.5843C38.4179 48.7051 38.058 48.7654 37.6768 48.7654C37.0566 48.7654 36.5322 48.6104 36.1037 48.3002C35.6776 47.9901 35.3745 47.5533 35.1946 46.9899C35.017 46.4241 34.9922 45.7576 35.12 44.9906C35.2455 44.2377 35.4858 43.5843 35.8409 43.0304C36.1984 42.4764 36.6364 42.0491 37.1548 41.7484C37.6733 41.4454 38.2367 41.2939 38.8452 41.2939C39.2334 41.2939 39.5814 41.3542 39.8892 41.475C40.197 41.5933 40.4586 41.7614 40.674 41.9792C40.8918 42.1947 41.0587 42.4456 41.1747 42.7321C41.2907 43.0185 41.3511 43.3298 41.3558 43.666ZM42.0953 48.666L43.3027 41.3933H47.5215L47.4221 41.9899H43.8674L43.4128 44.7278H46.7438L46.6444 45.3244H43.3134L42.8588 48.0694H46.4846L46.3851 48.666H42.0953Z" fill="white"/>
</svg>
