<svg width="200" height="200" viewBox="0 0 200 200" fill="none" xmlns="http://www.w3.org/2000/svg">
<path d="M13.038 87.5827C13.038 87.5827 16.473 92.3917 15.328 94.6817C14.183 96.9717 8 99.2617 8 101.781C8 104.3 8 119.414 8 121.704C8 123.994 11.664 135.215 13.038 135.902C14.412 136.589 25.404 143.23 25.404 145.978C25.404 148.726 31.129 155.596 33.419 155.825C35.709 156.054 43.495 148.039 45.327 148.726C47.159 149.413 55.174 142.772 56.777 141.398C58.38 140.024 63.418 147.123 64.563 145.978C65.708 144.833 72.349 135.215 73.723 134.299C75.097 133.383 80.135 131.093 83.112 130.406C86.089 129.719 95.478 132.467 95.478 132.467C95.478 132.467 103.951 136.36 106.699 135.902C109.447 135.444 110.134 117.353 113.34 114.834C116.546 112.315 133.034 109.567 133.034 109.567M133.034 109.567C133.034 109.567 137.614 97.4297 137.843 94.6817C138.072 91.9337 134.408 79.1097 134.637 77.0487C134.866 74.9877 144.942 61.7057 145.4 58.9577C145.858 56.2097 132.805 43.3857 130.973 43.3857C129.141 43.3857 109.676 30.3327 110.134 28.9587C110.592 27.5847 116.775 24.6077 117.462 22.5467C118.149 20.4857 110.134 13.6157 110.134 13.6157M133.034 109.567L141.049 115.521C141.049 115.521 149.751 122.849 151.125 125.826C152.499 128.803 165.094 130.406 166.239 132.467C167.384 134.528 166.239 141.856 169.216 144.146C172.193 146.436 177.231 149.184 177.918 152.39C178.605 155.596 177.002 163.153 180.895 165.672C184.788 168.191 191.2 174.603 191.2 174.603" stroke="#F2F2F2"/>
<path d="M17 193C17 193 26.3199 192.465 28.6099 192.236C30.8999 192.007 40.7469 189.488 41.6629 188.343C42.5789 187.198 41.8919 185.366 42.5789 184.679C43.2659 183.992 59.2959 177.351 59.7539 176.206C60.2119 175.061 59.2959 166.588 58.6089 164.985C57.9219 163.382 58.1509 160.863 58.6089 159.947C59.0669 159.031 62.5019 155.596 62.5019 154.451C62.5019 153.306 60.8989 150.787 60.2119 149.413C59.5249 148.039 60.8989 138.192 61.8149 137.047C62.7309 135.902 67.3109 138.879 69.3719 139.337C71.4329 139.795 78.5319 140.024 81.2799 139.795C84.0279 139.566 90.6689 138.879 92.5009 138.421C94.3329 137.963 99.1419 138.421 100.974 137.047C102.806 135.673 102.577 129.49 103.493 128.345C104.409 127.2 112.653 126.513 114.027 125.139C115.401 123.765 116.088 120.788 117.233 119.872C118.378 118.956 127.996 119.872 129.37 118.956C130.744 118.04 130.057 108.193 131.66 107.048C133.263 105.903 143.568 96.0558 144.713 93.9948C145.858 91.9338 137.649 83.202 137.649 81.599C137.649 79.996 141.084 75.416 142 74.5C142.916 73.584 163.491 80.4838 165.781 79.3388C168.071 78.1938 174.254 77.0488 175.17 76.1328C176.086 75.2168 183.872 64.4538 183.872 63.0798C183.872 61.7058 181.124 58.2708 180.208 57.3548C179.292 56.4388 179.292 50.7138 179.292 49.1108C179.292 47.5078 181.811 42.2408 181.124 41.0958C180.437 39.9508 172.193 40.4088 171.048 39.9508C169.903 39.4928 163.262 20.4858 163.262 18.8828C163.262 17.2798 164.178 9.03578 163.262 8.11978C162.346 7.20378 156.621 11.7838 155.476 13.6158C154.331 15.4478 153.415 26.6688 152.27 26.8978C151.125 27.1268 135.782 17.9668 134.179 18.8828C132.576 19.7988 125.477 27.1268 125.706 28.5008C125.935 29.8747 130.515 35.3708 131.66 36.5158C132.805 37.6607 139.217 42.9278 140.133 44.0728C141.049 45.2177 141.965 50.2558 142.652 51.4008C143.339 52.5457 149.293 58.0418 149.522 59.6448C149.751 61.2477 136.698 74.9878 135.782 76.1328C134.866 77.2777 131.889 83.0028 129.37 84.3768C126.851 85.7507 115.859 88.7277 114.027 89.8728C112.195 91.0178 111.05 94.6818 110.821 96.0558C110.592 97.4297 111.737 110.941 110.821 112.086C109.905 113.231 106.241 111.399 105.096 110.483C103.951 109.567 106.012 105.674 105.096 104.071C104.18 102.468 100.974 103.155 99.1419 101.552C97.3099 99.9488 98.4549 96.7427 97.3099 95.3688C96.1649 93.9948 93.4169 96.9717 92.5009 95.3688C91.5849 93.7658 88.8369 88.4988 87.0049 87.1248C85.1729 85.7508 83.1119 86.8958 82.4249 88.4988C81.7379 90.1017 81.2799 97.4298 79.6769 99.9488C78.0739 102.468 72.3489 105.445 71.4329 107.048C70.5169 108.651 72.1199 112.544 71.4329 113.689C70.7459 114.834 63.1889 118.956 61.8149 120.788C60.4409 122.62 63.4179 133.612 60.8989 134.757C58.3799 135.902 43.7239 126.055 42.5789 126.284C41.4339 126.513 38.6859 133.383 36.3959 133.612C34.1059 133.841 31.976 134.844 30.4419 137.047C29.1279 138.934 30.6709 140.253 29.0679 142.772C27.4649 145.291 24.4879 145.062 23.1139 147.581C21.7399 150.1 21.9689 151.932 23.1139 154.451C24.2589 156.97 26.0909 160.863 25.1749 163.153C24.2589 165.443 25.4039 169.336 24.2589 171.855C23.1139 174.374 19.4499 178.725 19.2209 180.786C18.9919 182.847 20.5949 183.305 20.3659 185.824C20.1369 188.343 16.4729 189.488 16.4729 189.488" stroke="#FC5200" stroke-width="3" stroke-linecap="round"/>
<path d="M30.7188 61.7273H31.4858L33.0767 68.0625H33.1442L36.8267 61.7273H37.5938L36.3864 69H35.7614L36.7415 63.13H36.6847L33.2507 69H32.647L31.1733 63.13H31.1165L30.1364 69H29.5114L30.7188 61.7273ZM44.8789 65.4027C44.7534 66.1532 44.512 66.8054 44.1545 67.3594C43.797 67.9134 43.3602 68.3419 42.8441 68.6449C42.328 68.9479 41.7669 69.0994 41.1609 69.0994C40.5382 69.0994 40.0127 68.9444 39.5842 68.6342C39.158 68.3217 38.8562 67.8838 38.6786 67.3203C38.5011 66.7545 38.475 66.0893 38.6005 65.3246C38.726 64.5741 38.9674 63.9219 39.3249 63.3679C39.6824 62.8139 40.1204 62.3854 40.6388 62.0824C41.1573 61.7794 41.7208 61.6278 42.3292 61.6278C42.9447 61.6278 43.4656 61.7829 43.8917 62.093C44.3178 62.4032 44.6209 62.8411 44.8008 63.407C44.9807 63.9704 45.0067 64.6357 44.8789 65.4027ZM44.2433 65.3246C44.3522 64.6759 44.338 64.1231 44.2006 63.6662C44.0657 63.2093 43.8337 62.8601 43.5046 62.6186C43.1755 62.3748 42.7766 62.2528 42.3079 62.2528C41.8226 62.2528 41.3668 62.3783 40.9407 62.6293C40.5146 62.8778 40.1512 63.2377 39.8505 63.7088C39.5498 64.1776 39.3439 64.7422 39.2326 65.4027C39.1261 66.049 39.1403 66.6018 39.2752 67.0611C39.4102 67.518 39.6422 67.8684 39.9712 68.1122C40.3027 68.3537 40.704 68.4744 41.1751 68.4744C41.6628 68.4744 42.1197 68.349 42.5458 68.098C42.9719 67.8471 43.3342 67.4872 43.6325 67.0185C43.9331 66.5473 44.1367 65.9827 44.2433 65.3246ZM52.7598 61.7273L51.5524 69H50.9061L47.6213 62.9098H47.5645L46.5524 69H45.8883L47.0957 61.7273H47.7385L51.0339 67.8246H51.0907L52.1064 61.7273H52.7598ZM54.1536 62.3239L54.253 61.7273H59.5265L59.427 62.3239H57.1223L56.0144 69H55.3503L56.4583 62.3239H54.1536ZM59.8141 69L61.0215 61.7273H65.2402L65.1408 62.3239H61.5861L61.1316 65.0618H64.4625L64.3631 65.6584H61.0321L60.5776 68.4034H64.2033L64.1039 69H59.8141ZM72.623 61.7273L71.4157 69H70.7694L67.4846 62.9098H67.4277L66.4157 69H65.7516L66.959 61.7273H67.6017L70.8972 67.8246H70.954L71.9696 61.7273H72.623ZM73.3493 69L74.5566 61.7273H78.7754L78.676 62.3239H75.1213L74.6667 65.0618H77.9977L77.8983 65.6584H74.5673L74.1127 68.4034H77.7385L77.639 69H73.3493ZM85.139 64C85.1154 63.7562 85.0609 63.5289 84.9757 63.3182C84.8904 63.1051 84.7709 62.9193 84.617 62.7607C84.4631 62.602 84.2725 62.4777 84.0453 62.3878C83.8204 62.2978 83.5552 62.2528 83.2498 62.2528C82.7976 62.2528 82.3597 62.3724 81.9359 62.6115C81.5145 62.8506 81.1487 63.2022 80.8386 63.6662C80.5308 64.1278 80.3213 64.6937 80.21 65.3636C80.1011 66.0194 80.1118 66.5793 80.242 67.0433C80.3722 67.5073 80.603 67.8625 80.9345 68.1087C81.2659 68.3525 81.679 68.4744 82.1738 68.4744C82.6189 68.4744 83.0332 68.375 83.4167 68.1761C83.8002 67.9749 84.1234 67.6896 84.3862 67.3203C84.649 66.951 84.8194 66.513 84.8975 66.0064L85.0964 66.0739H82.7669L82.877 65.4773H85.6362L85.5261 66.0739C85.4267 66.6965 85.2148 67.2339 84.8904 67.6861C84.5661 68.1383 84.1636 68.4875 83.6831 68.7337C83.2025 68.9775 82.6793 69.0994 82.1135 69.0994C81.479 69.0994 80.9487 68.9467 80.5225 68.6413C80.0988 68.3336 79.8017 67.9003 79.6312 67.3416C79.4608 66.7829 79.4395 66.1236 79.5673 65.3636C79.6573 64.7931 79.8159 64.2782 80.0431 63.8189C80.2704 63.3596 80.5498 62.9678 80.8812 62.6435C81.215 62.3168 81.5867 62.0658 81.9963 61.8906C82.4082 61.7154 82.8438 61.6278 83.3031 61.6278C83.7008 61.6278 84.0547 61.6906 84.3649 61.8161C84.675 61.9415 84.9378 62.1143 85.1532 62.3345C85.3687 62.5523 85.532 62.8045 85.6433 63.0909C85.7569 63.375 85.8161 63.678 85.8208 64H85.139ZM86.6989 69L87.9062 61.7273H90.2536C90.7696 61.7273 91.1851 61.8196 91.5 62.0043C91.8172 62.1889 92.0362 62.4458 92.157 62.7749C92.2801 63.1016 92.3073 63.478 92.2386 63.9041C92.1676 64.3255 92.0161 64.6984 91.7841 65.0227C91.5545 65.3471 91.2514 65.6016 90.875 65.7862C90.4986 65.9685 90.0547 66.0597 89.5433 66.0597H87.5476L87.6506 65.4524H89.6286C90.0097 65.4524 90.3364 65.3897 90.6087 65.2642C90.8809 65.1387 91.0987 64.96 91.2621 64.728C91.4254 64.496 91.5331 64.2214 91.5852 63.9041C91.6373 63.5845 91.6196 63.3063 91.532 63.0696C91.4467 62.8329 91.2881 62.6494 91.0561 62.5192C90.8265 62.389 90.5199 62.3239 90.1364 62.3239H88.4709L87.3629 69H86.6989ZM90.4489 65.7188L91.6953 69H90.9318L89.7067 65.7188H90.4489ZM99.5664 65.4027C99.4409 66.1532 99.1995 66.8054 98.842 67.3594C98.4845 67.9134 98.0477 68.3419 97.5316 68.6449C97.0155 68.9479 96.4544 69.0994 95.8484 69.0994C95.2257 69.0994 94.7002 68.9444 94.2717 68.6342C93.8455 68.3217 93.5437 67.8838 93.3661 67.3203C93.1886 66.7545 93.1625 66.0893 93.288 65.3246C93.4135 64.5741 93.6549 63.9219 94.0124 63.3679C94.3699 62.8139 94.8079 62.3854 95.3263 62.0824C95.8448 61.7794 96.4083 61.6278 97.0167 61.6278C97.6322 61.6278 98.1531 61.7829 98.5792 62.093C99.0053 62.4032 99.3084 62.8411 99.4883 63.407C99.6682 63.9704 99.6942 64.6357 99.5664 65.4027ZM98.9308 65.3246C99.0397 64.6759 99.0255 64.1231 98.8881 63.6662C98.7532 63.2093 98.5212 62.8601 98.1921 62.6186C97.863 62.3748 97.4641 62.2528 96.9954 62.2528C96.5101 62.2528 96.0543 62.3783 95.6282 62.6293C95.2021 62.8778 94.8387 63.2377 94.538 63.7088C94.2373 64.1776 94.0314 64.7422 93.9201 65.4027C93.8136 66.049 93.8278 66.6018 93.9627 67.0611C94.0977 67.518 94.3297 67.8684 94.6587 68.1122C94.9902 68.3537 95.3915 68.4744 95.8626 68.4744C96.3503 68.4744 96.8072 68.349 97.2333 68.098C97.6594 67.8471 98.0217 67.4872 98.32 67.0185C98.6206 66.5473 98.8242 65.9827 98.9308 65.3246Z" fill="white"/>
<path d="M104.522 169H103.826L107.679 161.727H108.389L109.827 169H109.131L107.92 162.59H107.874L104.522 169ZM105.488 166.212H109.096L108.996 166.809H105.388L105.488 166.212ZM111.074 169L112.281 161.727H112.945L111.837 168.403H115.303L115.204 169H111.074ZM116.699 169L117.906 161.727H120.36C120.834 161.727 121.215 161.81 121.504 161.976C121.792 162.142 121.991 162.368 122.1 162.654C122.211 162.941 122.235 163.266 122.171 163.631C122.121 163.934 122.028 164.193 121.891 164.408C121.753 164.621 121.586 164.795 121.39 164.93C121.196 165.063 120.986 165.159 120.761 165.218L120.751 165.275C120.983 165.291 121.197 165.374 121.393 165.523C121.59 165.67 121.737 165.876 121.834 166.141C121.933 166.406 121.953 166.724 121.894 167.093C121.833 167.46 121.695 167.788 121.482 168.077C121.272 168.363 120.983 168.589 120.616 168.755C120.251 168.918 119.808 169 119.288 169H116.699ZM117.462 168.403H119.387C119.948 168.403 120.384 168.279 120.694 168.031C121.004 167.782 121.192 167.469 121.259 167.093C121.304 166.816 121.277 166.565 121.18 166.34C121.083 166.113 120.925 165.933 120.705 165.8C120.484 165.668 120.211 165.602 119.884 165.602H117.931L117.462 168.403ZM118.031 165.012H119.881C120.167 165.012 120.428 164.953 120.662 164.835C120.896 164.716 121.09 164.553 121.244 164.344C121.398 164.136 121.496 163.898 121.539 163.631C121.605 163.245 121.533 162.931 121.322 162.69C121.114 162.446 120.76 162.324 120.261 162.324H118.471L118.031 165.012ZM123.184 169H122.488L126.341 161.727H127.051L128.49 169H127.794L126.583 162.59H126.536L123.184 169ZM124.15 166.212H127.758L127.659 166.809H124.051L124.15 166.212ZM136.607 161.727L135.4 169H134.754L131.469 162.91H131.412L130.4 169H129.736L130.943 161.727H131.586L134.882 167.825H134.938L135.954 161.727H136.607ZM139.205 161.727L137.998 169H137.334L138.541 161.727H139.205ZM139.942 169H139.246L143.099 161.727H143.809L145.247 169H144.551L143.34 162.59H143.294L139.942 169ZM140.908 166.212H144.516L144.416 166.809H140.808L140.908 166.212Z" fill="white"/>
<path d="M153.511 110L154.719 102.727H155.383L154.733 106.644H154.8L158.998 102.727H159.871L156.21 106.09L158.65 110H157.84L155.724 106.552L154.573 107.638L154.175 110H153.511ZM166.115 106.403C165.99 107.153 165.748 107.805 165.391 108.359C165.033 108.913 164.597 109.342 164.08 109.645C163.564 109.948 163.003 110.099 162.397 110.099C161.775 110.099 161.249 109.944 160.82 109.634C160.394 109.322 160.093 108.884 159.915 108.32C159.737 107.754 159.711 107.089 159.837 106.325C159.962 105.574 160.204 104.922 160.561 104.368C160.919 103.814 161.357 103.385 161.875 103.082C162.394 102.779 162.957 102.628 163.566 102.628C164.181 102.628 164.702 102.783 165.128 103.093C165.554 103.403 165.857 103.841 166.037 104.407C166.217 104.97 166.243 105.636 166.115 106.403ZM165.48 106.325C165.588 105.676 165.574 105.123 165.437 104.666C165.302 104.209 165.07 103.86 164.741 103.619C164.412 103.375 164.013 103.253 163.544 103.253C163.059 103.253 162.603 103.378 162.177 103.629C161.751 103.878 161.387 104.238 161.087 104.709C160.786 105.178 160.58 105.742 160.469 106.403C160.362 107.049 160.377 107.602 160.512 108.061C160.646 108.518 160.878 108.868 161.208 109.112C161.539 109.354 161.94 109.474 162.411 109.474C162.899 109.474 163.356 109.349 163.782 109.098C164.208 108.847 164.57 108.487 164.869 108.018C165.169 107.547 165.373 106.983 165.48 106.325ZM171.972 104.585C171.989 104.158 171.862 103.825 171.592 103.583C171.324 103.342 170.949 103.221 170.466 103.221C170.13 103.221 169.822 103.28 169.543 103.398C169.266 103.514 169.038 103.674 168.858 103.878C168.68 104.081 168.57 104.313 168.527 104.574C168.497 104.766 168.511 104.934 168.57 105.078C168.629 105.22 168.72 105.343 168.843 105.447C168.967 105.552 169.107 105.64 169.266 105.714C169.427 105.787 169.59 105.849 169.756 105.898L170.491 106.119C170.709 106.183 170.926 106.264 171.141 106.364C171.356 106.463 171.548 106.587 171.716 106.737C171.884 106.886 172.009 107.069 172.089 107.287C172.172 107.505 172.189 107.765 172.139 108.068C172.073 108.461 171.914 108.813 171.663 109.123C171.414 109.431 171.088 109.674 170.683 109.854C170.278 110.034 169.81 110.124 169.28 110.124C168.785 110.124 168.369 110.043 168.03 109.879C167.692 109.714 167.442 109.485 167.281 109.194C167.12 108.903 167.058 108.565 167.096 108.182H167.778C167.752 108.468 167.805 108.711 167.938 108.91C168.073 109.109 168.265 109.26 168.513 109.364C168.764 109.466 169.053 109.517 169.38 109.517C169.742 109.517 170.074 109.457 170.377 109.336C170.681 109.213 170.93 109.042 171.127 108.825C171.326 108.604 171.449 108.349 171.496 108.058C171.539 107.811 171.509 107.604 171.407 107.436C171.308 107.268 171.153 107.127 170.942 107.013C170.734 106.897 170.485 106.796 170.196 106.708L169.365 106.452C168.823 106.287 168.42 106.054 168.154 105.753C167.892 105.452 167.798 105.069 167.874 104.602C167.94 104.209 168.102 103.865 168.36 103.569C168.621 103.271 168.944 103.039 169.33 102.873C169.716 102.707 170.132 102.624 170.58 102.624C171.032 102.624 171.417 102.708 171.734 102.876C172.054 103.045 172.29 103.277 172.444 103.572C172.6 103.866 172.658 104.203 172.618 104.585H171.972ZM179.973 106.403C179.847 107.153 179.606 107.805 179.248 108.359C178.891 108.913 178.454 109.342 177.938 109.645C177.422 109.948 176.861 110.099 176.255 110.099C175.632 110.099 175.106 109.944 174.678 109.634C174.252 109.322 173.95 108.884 173.772 108.32C173.595 107.754 173.569 107.089 173.694 106.325C173.82 105.574 174.061 104.922 174.419 104.368C174.776 103.814 175.214 103.385 175.733 103.082C176.251 102.779 176.815 102.628 177.423 102.628C178.038 102.628 178.559 102.783 178.985 103.093C179.412 103.403 179.715 103.841 179.895 104.407C180.074 104.97 180.1 105.636 179.973 106.403ZM179.337 106.325C179.446 105.676 179.432 105.123 179.294 104.666C179.159 104.209 178.927 103.86 178.598 103.619C178.269 103.375 177.87 103.253 177.402 103.253C176.916 103.253 176.461 103.378 176.034 103.629C175.608 103.878 175.245 104.238 174.944 104.709C174.644 105.178 174.438 105.742 174.326 106.403C174.22 107.049 174.234 107.602 174.369 108.061C174.504 108.518 174.736 108.868 175.065 109.112C175.396 109.354 175.798 109.474 176.269 109.474C176.757 109.474 177.213 109.349 177.64 109.098C178.066 108.847 178.428 108.487 178.726 108.018C179.027 107.547 179.23 106.983 179.337 106.325ZM181.858 102.727L183.069 109.137H183.137L186.468 102.727H187.164L183.311 110H182.6L181.162 102.727H181.858ZM193.42 106.403C193.294 107.153 193.053 107.805 192.695 108.359C192.338 108.913 191.901 109.342 191.385 109.645C190.869 109.948 190.308 110.099 189.702 110.099C189.079 110.099 188.554 109.944 188.125 109.634C187.699 109.322 187.397 108.884 187.22 108.32C187.042 107.754 187.016 107.089 187.142 106.325C187.267 105.574 187.508 104.922 187.866 104.368C188.223 103.814 188.661 103.385 189.18 103.082C189.698 102.779 190.262 102.628 190.87 102.628C191.486 102.628 192.007 102.783 192.433 103.093C192.859 103.403 193.162 103.841 193.342 104.407C193.522 104.97 193.548 105.636 193.42 106.403ZM192.784 106.325C192.893 105.676 192.879 105.123 192.742 104.666C192.607 104.209 192.375 103.86 192.046 103.619C191.717 103.375 191.318 103.253 190.849 103.253C190.364 103.253 189.908 103.378 189.482 103.629C189.056 103.878 188.692 104.238 188.392 104.709C188.091 105.178 187.885 105.742 187.774 106.403C187.667 107.049 187.681 107.602 187.816 108.061C187.951 108.518 188.183 108.868 188.512 109.112C188.844 109.354 189.245 109.474 189.716 109.474C190.204 109.474 190.661 109.349 191.087 109.098C191.513 108.847 191.875 108.487 192.173 108.018C192.474 107.547 192.678 106.983 192.784 106.325Z" fill="white"/>
</svg>
